<?xml version="1.0" encoding="UTF-8"?>
<svg id="Layer_1" data-name="Layer 1" xmlns="http://www.w3.org/2000/svg" viewBox="0 0 454.44 257.37">
  <path d="M117.89,85.04C162.97,56.14,208.79,28.41,254.26.12l83.08-.12c3.15.9,4.11,3.01,4.38,6.11v144.39c.14,1.59-.57,2.73-2.25,2.74h-80.98c-1.82.07-2.51-.47-2.74-2.25-.67-5.12-.5-19.18.03-24.49s2.99-8.66,7.34-11.64c20.33-13.95,44.4-25.05,65.05-38.85,4.56-3.04,4.02-6.69-1.2-8.21l-70.71.25c-46.04,27.85-91.38,56.97-137.34,84.96-.31.44-1.02-.47-1.02-.53v-67.42Z"/>
  <path d="M194.21,200.3c16.85-1.8,33.38,4.09,36.03,22.64,3.48,24.36-12.63,36.21-35.66,34.15-32.45-2.89-32.78-53.32-.37-56.79ZM197.69,212.27c-19.45,3.15-17.65,34.97,4.82,32.78,12.5-1.21,16.58-14.02,12.17-24.53-2.57-6.13-10.7-9.27-16.99-8.25Z"/>
  <path d="M239.04,201.16h27.97c2.99,0,11.34,2.32,13.91,4.08,10.18,6.98,9.85,34.12,3.65,43.44-2.92,4.38-10.43,7.42-15.55,7.42h-29.97c-.05,0-.75-.7-.75-.75v-53.44c0-.14.58-.5.75-.75ZM252.27,244.11h14.24c.63,0,3.88-1.91,4.49-2.5,3.62-3.46,3.64-13.02,3.27-17.74-.94-12.01-7.24-10-16.75-10.22-1.72-.04-3.28-1.05-5.25,0v30.47Z"/>
  <path d="M396.64,218.64h-13.24c-.26,0-1.69-3.38-2.77-4.22-4.08-3.2-13.88-3.1-18.13-.19-4.28,2.93-1.13,6.49,2.75,7.57,9.5,2.64,25.86-.65,30.98,10.48,6.16,13.4-4.84,23.88-17.81,24.84-9.88.73-23.78.45-29.45-9.05-1.05-1.75-3.98-9.06-1.47-9.88.78-.26,10.47-.23,11.32.03,1.31.4,1.75,3.74,3.87,5.12,3.21,2.1,12.27,2.24,15.98,1.55,7.31-1.37,7.48-8.24-.39-9.64-10.8-1.92-29.67.89-31.04-14.42-1.67-18.66,16.2-22.26,31.1-20.61,8.63.96,19.11,8.94,18.29,18.43Z"/>
  <path d="M340.2,213.15l-28.62.1c-2.29.61-1.68,9.39-.1,9.39h22.73v11.49h-22.73c-.17,0-.76.66-1.25.5v8.74c0,.05.7.75.75.75h28.47c.05,0,.75.7.75.75v11.24h-43.21c-.05,0-.75-.7-.75-.75v-52.94c0-.09,1.16-1.25,1.25-1.25h41.96c.05,0,.75.7.75.75v11.24Z"/>
  <path d="M98.91,201.66c.49.16,1.08-.5,1.25-.5h12.24c.23.92.45,1.76.52,2.72.72,9.11.7,24.89,0,34-1.31,16.76-16.45,20.29-30.76,19.23-8.07-.6-17.3-4.85-19.95-13.02-2.19-6.78-1.91-32.25-1.29-40.21.08-.96.29-1.81.52-2.72h12.74c.05,0,.75.7.75.75v34.46c0,.2,1.11,3.31,1.3,3.7,3.21,6.58,17.6,6.82,21.11.72.31-.53,1.57-4.07,1.57-4.42v-34.71Z"/>
  <path d="M58.95,256.1h-14.24c-1.59-1.64-2.74-9.47-4.36-10.16-1.71-.72-16.81-.55-19.64-.35-.9.06-2.46-.02-3.11.64-.93.94-2.9,9.87-4.36,9.87H0l20.46-54.21c.43-.67,1.06-.65,1.75-.75,2.79-.38,11.7-.35,14.54,0,1.84.22,1.77,1.06,2.46,2.54,7.31,15.67,11.96,33.83,19.26,49.66l.48,2.77ZM22.48,234.12h13.24c.15,0,.89-.74.68-1.15-1.5-1.84-5.68-18.83-6.67-18.84-.91,0-.96.58-1.27,1.22-1.4,2.88-5.2,13.57-5.85,16.63-.15.71-.16,1.41-.12,2.13Z"/>
  <path d="M418.62,222.14l2.03-.72c2.31-2.37,17.19-20.25,18.71-20.25h14.49c1.34,0,.05,1.82-.25,2.24-5.54,7.77-15.7,15.94-21.96,23.47-.41.49-1.55,1.93-1.46,2.43l23.45,25.02.48,1.77h-16.74c-4.9-4.76-8.99-10.35-13.72-15.25-1.33-1.38-3.08-3.75-5.01-3.73v18.23c0,.05-.7.75-.75.75h-12.49c-.05,0-.75-.7-.75-.75v-53.69c.49.16,1.08-.5,1.25-.5h11.99c.05,0,.75.7.75.75v20.23Z"/>
  <path d="M150.86,213.65v41.2c0,.17-.66.76-.5,1.25h-13.49c.16-.49-.5-1.08-.5-1.25v-41.2l-16.24-.5c-.41.02-1.25-.47-1.25-.75v-10.49c0-.05.7-.75.75-.75h47.46c.11,0,1.25,1.56,1.25,1.75v9.49c0,2.38-8.96.78-10.72.73-2.27-.07-4.6-.13-6.77.52Z"/>
</svg>