<?xml version="1.0" encoding="UTF-8"?>
<svg id="Layer_1" data-name="Layer 1" xmlns="http://www.w3.org/2000/svg" viewBox="0 0 485.55 145.28">
  <path d="M163.81,1.72c3.14.56,6.3,7.01,7.84,9.66,13.32,23.04,27.19,49.04,39.17,72.83,1.49,2.96,3.09,8.21,4.54,10.46.2.3.98,1.26,1.2,1.05,4.46-11.92,11.33-22.79,17.27-33.99,9-16.97,17.68-34.7,27.15-51.35,1.57-2.75,4.23-8.66,7.84-8.66h23.75v141.25c0,.05-.7.75-.75.75h-22.75V43.22l-41.19,77.06c-2.95,7.57-16.41,8.48-21.32,3.06-2.73-3.02-7.29-12.64-9.58-16.78-10.51-19.07-20.61-38.34-31-57.5-.89-1.64-1.17-4.25-2.91-5.34v99.25c0,.05-.7.75-.75.75h-22.75c.16-.49-.5-1.08-.5-1.25V2.47c0-.05.7-.75.75-.75h24Z"/>
  <path d="M120.29,18.01c.19.22.79.2.8.5-.19.87-.71,1.6-1.13,2.37-.99,1.83-7.3,10.63-8.62,11.87-2.65,2.49-6.49,2.11-9.45.4-5.89-3.39-8.47-6.33-15.82-8.18C41.02,13.63,15.66,59.66,32.96,97.56c11.11,24.32,42.13,32.05,63.96,17.28,2.63-1.78,5.84-5.96,9.34-5.61,4.1.41,10.03,10.04,13.55,12.5.86,1.45-1.43,3.87-2.49,5-14.64,15.6-37.83,20.27-58.5,17.98C-17.82,136.21-20.9,15.22,57.44,1.36c19.95-3.53,48.92.38,62.85,16.65Z"/>
  <path d="M482.36,119.41c.84.99,2.74,2.79,2.45,3.79-.19.66-4.19,4.77-5,5.55-21.08,20.23-60.3,21.42-84.21,6.18-37.72-24.03-40.93-86.71-8.55-116.46,21.59-19.84,59.52-24.44,85.16-10.15,2.23,1.24,13.29,8.62,13.34,10.64.03,1.07-9.15,13.64-10.52,14.49-5.27,3.29-9.71-1.88-13.81-4.14-17.76-9.77-43-7.55-56.65,8.18-17.73,20.43-15.8,60.88,6.82,77.15,13.45,9.68,36.18,9.64,49.84.51,3.63-2.43,6.64-7.23,11.45-5.29,1.94.79,7.99,7.54,9.69,9.55Z"/>
  <path d="M315.56,33.22c4.15-.14,27.48-1.51,29.38.12.64.55.6,2.27.65,3.11.68,11.8-.18,24.77-.48,36.56-5.22,7.5-11.44,14.29-17.04,21.46-3.16,4.04-6.12,9.11-9.51,12.99-.74.84-1.76,2.24-2.99,2.26V33.22Z"/>
  <path d="M345.56,91.72v42.75c0,1.3-1.71,5.04-2.67,6.08-.91.98-4.86,3.17-6.08,3.17h-21c-.05,0-.75-.7-.75-.75v-14.5c0-1.43,11.93-13.74,12.67-16.58,5.94-4.61,10.79-15.04,16.11-19.65.63-.55.84-.65,1.73-.52Z"/>
  <path d="M315.56,1.72l29.43.07c.99.62.77,18.88.07,21.43h-29.5V1.72Z"/>
</svg>