<?xml version="1.0" encoding="UTF-8"?>
<svg id="Layer_2" data-name="Layer 2" xmlns="http://www.w3.org/2000/svg" viewBox="0 0 491 208.12">
  <defs>
    <style>
      .cls-1 {
        fill: #010420;
      }
    </style>
  </defs>
  <path class="cls-1" d="M245.38.08c.58-.09,1.07-.17,1.59.18,18.76,11.62,38.56,21.64,57.37,33.16,1.73,1.06,4.96,2.35,5.19,4.31l-.28,72.78-62.28,36.23-1.22.32c-21.3-11.78-42.41-24.29-63.5-36.55V36.5S245.38.08,245.38.08ZM304.92,39.08L245.74,5.46l-59.16,33.62.17,68.42,59,34.31,59.17-33.89V39.08Z"/>
  <path class="cls-1" d="M257,166h20.75c8.59,0,16.89,10.15,17.69,18.31,1.06,10.86-7.85,23.19-19.19,23.19h-18.5c-.05,0-.75-.7-.75-.75v-40.75ZM266.5,199h9.75c.23,0,3.75-1.47,4.23-1.77,7.5-4.8,7.19-18.01-1.14-21.81-.76-.34-4.01-1.41-4.59-1.41h-8.25v25Z"/>
  <path class="cls-1" d="M422.89,165.14c29.62-3.25,32.99,39.94,5.8,42.8-31.03,3.27-33.78-39.73-5.8-42.8ZM423.88,173.62c-15.92,1.88-13.88,28.3,3.82,25.83,15.14-2.11,12.72-27.78-3.82-25.83Z"/>
  <path class="cls-1" d="M491,207.5h-10.25c-.8,0-7.7-11.84-8.75-13.5h-7.5v13.5h-9v-41.5h23.25c.2,0,3.28,1.04,3.75,1.25,10.82,4.85,9.8,21.13-1,25.53l9.49,14.72ZM479.28,184.03c3.4-3.64.62-10.02-4.03-10.02h-10.75v12"/>
  <path class="cls-1" d="M107,166v8h-22.5v7.75c0,.05.7.75.75.75h18.75v8h-19.5v8.5h22.5v8.5h-31.5v-41.5h31.5Z"/>
  <path class="cls-1" d="M146.5,166v8h-22.5v7.75c0,.05.7.75.75.75h18.75v8h-19.5v8.5h22.5v8.5h-31.5v-41.5h31.5Z"/>
  <path class="cls-1" d="M207,207.5l18.23-42.03,8.2.1,17.57,41.93h-9.25c-1.85-1.37-3.06-8.9-4.58-9.42-1.05-.36-14.63-.33-16.44-.11-.33.04-.66-.08-.79.33l-3.44,9.2h-9.5ZM234,190c-1.15-3.54-2.65-8.61-4.4-11.85-.18-.33-.77-1.4-1.09-1.15l-5.01,13h10.5Z"/>
  <path class="cls-1" d="M395.94,170.06c.47.8-3.72,6.71-4.28,6.89-.88.29-7.04-3.27-9.89-3.47-3.53-.25-7.93,1.09-5.9,5.4,2.01,4.27,19.47,2.43,21.41,13.59,2.67,15.35-14.66,18.03-25.76,13.26-.95-.41-6.18-3.34-6.45-3.8-.69-1.2,3.95-5.58,4.74-6.91,3.34,1.39,5.92,4.03,9.93,4.48,3.15.35,11.16-.09,8.19-5.2s-19.59-3.01-21.32-13.18c-2.53-14.88,12.21-18.61,23.64-14.14.79.31,5.52,2.79,5.68,3.07Z"/>
  <path class="cls-1" d="M32,166v8H9.5v9h19.5v8.5H9.5v16H.75c-.05,0-.75-.7-.75-.75v-40.75h32Z"/>
  <path class="cls-1" d="M309.75,166l11,28.51,11-28.51h9.25l-16.31,41.53c-1.75-.38-7.48.63-8.45-.53l-16.25-41h9.75Z"/>
  <path class="cls-1" d="M186,166v8.5h-12.5v33h-8.75c-.05,0-.75-.7-.75-.75v-32.25h-11.75c-.05,0-.75-.7-.75-.75v-7.75h34.5Z"/>
  <path class="cls-1" d="M48,166v33h21v7.75c0,.05-.7.75-.75.75h-29.25v-41.5h9Z"/>
  <path class="cls-1" d="M357.5,166v40.75c0,.05-.7.75-.75.75h-8.75v-41.5h9.5Z"/>
  <path class="cls-1" d="M222,58.75l54.88-31.67,1.98.3,23.06,13.2v65.84s-55.07,31.7-55.07,31.7l-1.85.18-22.75-13.29v-30.51s63.18-36.58,63.18-36.58c.22-.35.2-6.36-.01-7.07-.3-.99-7.35-5.13-8.91-4.65l-54.49,31.3v-18.75ZM285.5,96.25v-19.25l-46.5,26.75c-.77.93-.79,11.12-.18,11.79.42.47,6.83,3.99,7.3,3.88l39.38-23.18Z"/>
  <path class="cls-1" d="M206,115.5l-16.52-9.34.27-65.17,55.61-32.42c2.02-.33,13.56,8.21,16.64,8.93l-1.33,1.41-53.34,30.66-1.33,1.17v64.75Z"/>
</svg>