<?xml version="1.0" encoding="UTF-8"?>
<svg id="Layer_1" data-name="Layer 1" xmlns="http://www.w3.org/2000/svg" viewBox="0 0 445 94">
  <path d="M138,18.5l16.01,41,17.74-41h13c.05,0,.75.7.75.75v55.5c0,.05-.7.75-.75.75h-9c-.05,0-.75-.7-.75-.75v-40.75c-1.21-.3-1.45,1.61-1.81,2.44-5.38,12.49-9.89,25.42-14.96,38.04-.9,1.62-7.6,1.73-8.43-.52l-13.65-33.85-3.15-6.6v41.25c0,.05-.7.75-.75.75h-8.5c-.05,0-.75-.7-.75-.75V19.25c0-.05.7-.75.75-.75h14.25Z"/>
  <path d="M95.5,0v44.25c0,.05-.7.75-.75.75h-44.5c-.05,0-.75-.7-.75-.75V0h46Z"/>
  <path d="M45.5,0v44.25c0,.05-.7.75-.75.75H0V0h45.5Z"/>
  <path d="M95,49v45h-45.5v-44.25c0-.05.7-.75.75-.75h44.75Z"/>
  <path d="M45,94H0v-45h44.25c.05,0,.75.7.75.75v44.25Z"/>
  <path d="M411.5,34.5h14v-8.75c0-.95,8.5-3.43,10-3.25v12h9.5v8.5h-9.5v19.25c0,.17.65,2.97.76,3.24,1.21,2.81,6.5,2.53,8.74,1.01v8.5c0,1.16-10.32,1.22-11.72.97-5.47-.97-7.89-6.87-8.27-11.73-.55-7.05.38-14.21.49-21.24h-14v31.75c0,.05-.7.75-.75.75h-9c-.05,0-.75-.7-.75-.75v-31.75h-6.5v-8.5h6.5v-7.75c0-.43,1.69-4.66,2.09-5.41,1.96-3.68,6.5-6.48,10.64-6.86,1.46-.13,8.77-.41,8.77,1.27v7.5c0,1.31-2.14-.16-2.78-.22-8.7-.82-8.32,4.35-8.22,11.47Z"/>
  <path d="M388.71,39.79c9.69,10.99,6.01,32.03-9.21,35.96-17.25,4.45-30.25-6.59-27.97-24.47,2.27-17.8,25.98-24.2,37.18-11.48ZM379.79,44.22c-11.37-8.68-21.5,6.13-16.5,17.74,3.28,7.62,15.25,8.19,18.73.81,2.27-4.81,2.34-15.06-2.23-18.55Z"/>
  <path d="M309.79,38.22c11.64,10.03,7.42,33.72-8.59,37.73-18.33,4.6-29.67-8.1-27.08-26.08,2.3-16.01,24.19-21.54,35.67-11.64ZM292.87,42.12c-11.65,2.21-12.2,26.34,2.85,25.89,10.18-.3,11.7-12.3,8.99-19.97-1.67-4.72-7.16-6.81-11.84-5.92Z"/>
  <path d="M345.5,34.5v10c-1.92-.26-3.62-1.84-5.4-2.35-3.37-.97-9.69-1.26-9.51,3.61.15,4.21,7.22,5.26,10.38,7.02,13.63,7.58,6.49,23.38-8.23,23.72-1.92.04-12.74-.97-12.74-2.75v-8c0-.1-.96-1.3.73-1.25.76.02,4.57,2.42,6.16,2.85,2.97.81,10.25,1.77,10.58-2.63s-8.49-6.47-11.55-8.4c-7.53-4.75-7.83-15.12-.59-20.23,6.15-4.34,13.29-3,20.16-1.59Z"/>
  <path d="M242.5,35.5v9.5c-3.99-1.21-6.67-3.41-11.12-2.87-5.62.69-9.74,5.11-10.32,10.68-1.21,11.6,7.12,18.41,18.04,13.54.68-.3,3.89-3,3.89-1.11v8c0,1.71-9.16,3.21-10.75,3.24-17.92.44-26.57-14.91-19.98-30.98,4.7-11.48,19.47-14.71,30.24-10.01Z"/>
  <path d="M259.5,34.5c.19.19-.14,3.72,0,4.5,1.89-3.16,12.16-8.38,14.25-4,.41.86.46,7.88.03,8.53-.92,1.35-2.96-.33-4.05-.5-3.87-.6-7.64,1.36-8.9,5.04-.41,1.2-1.33,4.64-1.33,5.68v21.75h-10c.16-.49-.5-1.08-.5-1.25v-39c0-.05.7-.75.75-.75,1.4,0,9.41-.34,9.75,0Z"/>
  <path d="M204,34.5v40.25c0,.05-.7.75-.75.75h-8.5c-.05,0-.75-.7-.75-.75v-40.25h10Z"/>
  <path d="M202.82,18.2c2.29,1.37,2.98,5.98,1.72,8.08-1.69,2.82-7.46,3.42-9.87,1.05-5.16-5.11,1.53-13.07,8.15-9.13Z"/>
</svg>