<?xml version="1.0" encoding="UTF-8"?>
<svg id="Layer_1" data-name="Layer 1" xmlns="http://www.w3.org/2000/svg" viewBox="0 0 504 126.64">
  <path d="M23.25,1.88l29.52,43.49c1.44,1.04,1.23-.64,1.23-1.24V2.63c0-.05.7-.75.75-.75h22c.05,0,.75.7.75.75v79.75c0,1.17-21.42.47-23.28.03l-29.2-42.8c-.46-.65-1.52.28-1.52.52v42.25c0,.07-1.18.5-1.25.5H0V1.88h23.25Z"/>
  <path d="M449.25,2.38c2.54.73,26.17,38.73,30.01,43.5.4.19,1.24-.58,1.24-.75V2.38h23.5v80.5h-23.25l-29.52-42.99c-.35-.89-1.23,0-1.23.24v42c0,.05-.7.75-.75.75h-22c-.05,0-.75-.7-.75-.75V3.13c0-.05.7-.75.75-.75,4.36,0,19-.86,22,0Z"/>
  <path d="M174,2.63c.26-.69,1.13-.67,1.72-.78,8.23-1.44,36.2-.62,45.52.04,15.04,1.06,25.64,6.49,25.28,23.27-.19,8.89-4.7,15.94-12.68,19.82-.85.41-5.74.95-5.34,2.65.07.29,4.15,1.98,5.23,2.77,9.09,6.6,12.83,22.6,19.26,31.74,0,.18-1.17.75-1.25.75h-26c-1.51,0-12.47-23.28-14.56-26.44-1.39-2.1-4.41-6-6.97-6.53-.96-.2-5.72-.27-5.72.72v31.75c0,.07-1.18.5-1.25.5h-22.5c-.05,0-.75-.7-.75-.75V2.63ZM198.5,19.63c-.46,4.29,0,10.02,0,14.5,0,.05.7.75.75.75h14c2.16,0,7.59-3.82,8.36-6.14,3.9-11.8-13.59-11.79-20.81-10.81-2,.27-2.14.21-2.3,1.7Z"/>
  <path d="M133.35.56c28.2,3.7,38.62,29.19,32.81,55.24-8.86,39.75-78.08,38.54-82.18-6.64C81.05,16.75,100.99-3.69,133.35.56ZM136.82,23.07c-4.53-4.18-11.84-4.93-17.52-3.13-17.28,5.48-15.42,55.4,13.18,44.68,13.01-4.87,13.16-33.4,4.33-41.55Z"/>
  <path d="M409.72,12.17c18.62,19.36,13.26,62.89-15.67,70.51-39.34,10.36-67.55-18.44-54.69-57.19,9.13-27.48,52.21-32.2,70.36-13.32ZM366.22,24.59c-8.34,10.01-7.36,39.2,9.16,41.68,19.84,2.97,23.22-20.67,18.99-34.99-3.57-12.11-20.17-16.26-28.15-6.68Z"/>
  <path d="M312.08,30.3c-1.18-.69-3.17-8.59-9.38-10.36-26.39-7.54-27.24,37.75-13.31,44.81,7.49,3.8,17.26.93,21.21-6.52,1.1-2.08,1.75-7.32,3.38-7.62,2.01-.37,16.09,6.14,19.65,5.77,1.57.94-.34,5.96-.88,7.5-6.95,19.88-32.76,23.87-50.87,18.88-35.11-9.66-35.19-74.54,3.92-80.83,17.08-2.75,36.18-.13,45.12,16.29.39.72,3.09,6.54,3.07,6.92-.05,1.15-20.94,5.73-21.91,5.16Z"/>
  <path d="M420.5,117.88c.69.41,1.05,7.83-.86,8.51s-1.52-1.01-1.64-1.01H0v-7.5h420.5Z"/>
  <path d="M463.5,125.13c-.49,2.61-4.94-1.9-6.99,1.25-1.93-3.79,2.27-16.03-3.76-16.03-5.84,0-1.84,12.36-3.46,14.57-.62.85-7.78.76-7.78-.28v-19.25c0-.35,5.37-.76,6.18-.43.99.4.82,2.22,1.59,2.43s7.13-6.27,12.44-1.46c.25.23,1.79,2.55,1.79,2.71,0,4.37.71,12.71,0,16.5Z"/>
  <path d="M489.84,107.54c.17.17,2.28,3.25,1.67,3.6-1.24.7-4.49-.18-6.18,1.16-10.27-10.35-13.6,11.53-3.3,8.36,1.52-.47,2.31-2.58,3.75-2.79.41-.06,5.49.59,5.73.75,1.18.77-1.08,4.02-1.82,4.7-7.85,7.16-23.91,2.3-21.58-10.58,1.67-9.19,15.81-11.07,21.72-5.21Z"/>
  <path d="M435,125.13c-.52,2.76-1.65.27-2.21.21-1.01-.12-2.91-.07-3.96.04-.46.05-.19,1.41-.82,1-.1-.06-1.51-1.63-1.51-1.74v-27.75c0-.43,8.5-1.12,8.5.25-1.08,8.18,1.45,20.31,0,28Z"/>
  <path d="M504,117.88v8.5c-1.48.35-.54-.85-1.71-1.04-2.48-.41-4.53,1.32-5.65.87-1.56-.62-1.57-8.33-1.14-8.33h8.5Z"/>
</svg>