<?xml version="1.0" encoding="UTF-8"?>
<svg id="Layer_1" data-name="Layer 1" xmlns="http://www.w3.org/2000/svg" viewBox="0 0 545.57 67.07">
  <path d="M134.75.56c3.4.5,7.77,4.77,9.1,7.9,1.81,4.27,1.74,20.93.16,25.36-1.88,5.28-5.24,7.11-10.27,8.74-.53.17-.91-.37-.73.74l13.49,23.26h-19.25c-4.76-7.73-9.46-15.52-13.75-23.5h-19.25c-.05,0-.75.7-.75.75v22.75h-18.5V.56h59.75ZM124.25,13.56h-30.75v15.25c0,.05.7.75.75.75h29.5c.12,0,2.04-1.04,2.12-1.13,1-1.2.95-12.36-.03-13.72-.06-.08-1.5-1.13-1.59-1.15Z"/>
  <path d="M445.25.56c4.13.73,8.93,6.82,9.63,10.87.6,3.52.57,15.72.14,19.39-.65,5.41-5,9.78-9.9,11.6-.91.34-2.39-.39-2.11.88l13.49,23.26h-19.5l-13.5-23.5h-19.5v22.25c0,.17-.66.76-.5,1.25h-18V.56h59.75ZM404,29.56h30.25c.37,0,1.4-.9,1.65-1.35,1.03-1.8,1.26-14.65-1.15-14.65h-30.75v16Z"/>
  <path d="M317.37.68c15.75,1.08,34.47-1.85,49.88-.12,7.34.83,10.65,7.65,11.24,14.26.86,9.55.8,27.41.02,37.01-.58,7.15-3.62,13.43-11.27,14.73-15.65-1.05-33.09,1.4-48.52.02-8.28-.74-11.16-8-11.72-15.28-.74-9.65-.86-26.93,0-36.49.6-6.69,3.43-12.37,10.36-14.14ZM354.9,13.67c-8.11-.04-16.48-.46-24.45.21-3.27,6.82-8.25,12.82-10.94,19.89l11.1,19.68c8.11.04,16.48.46,24.45-.21,3.27-6.82,8.25-12.82,10.94-19.89l-11.1-19.68Z"/>
  <path d="M217.3,3.28c2.34,1.66,4.38,5.71,4.71,8.52,1.59,13.21-1.24,29.5.01,43.04-.82,5.14-3.84,9.47-8.76,11.24-16-.2-34.67,1.92-50.54.5-5.79-.52-10.01-5.34-11.24-10.76,1.08-14.08-1.4-30.2-.01-44.04.52-5.23,5.51-10.63,10.77-11.23,15.58,1.11,33.19-1.47,48.52-.02,2.41.23,4.58,1.35,6.53,2.73ZM198.92,13.64c-7.22.54-16.19-.99-23.2-.11-.55.07-1.11-.04-1.46.54l-11.18,19.65,11.41,19.61,24.44.15c3.25-6.92,8.22-13.09,11.07-20.13l-11.07-19.71Z"/>
  <path d="M528.5.56v11.75c0,.09-1.16,1.25-1.25,1.25h-47.25v12.75c0,.05.7.75.75.75h29.5c.05,0,.75.7.75.75v11.75c-.49-.16-1.08.5-1.25.5h-29.75v13.5h47.25c.09,0,1.25,1.16,1.25,1.25v11.75h-67V.56h67Z"/>
  <path d="M300.5,55.31c-.7,4.75-5.53,10.37-10.38,11.12-15.75-.79-33.35,1.5-48.89.15-7.43-.65-11.27-6.82-11.76-13.74-.73-10.41-.98-29.77.08-39.96.61-5.88,5.02-11.74,11.17-12.33,15.43-1.49,33.28,1.1,48.96.08,2.86.35,7.34,3.38,8.75,5.86.33.59,2.06,5.04,2.06,5.33v12.5c0,.05-.7.75-.75.75h-16.25l-5.97-10.78-.87-.63h-23.31s-.87.63-.87.63l-10.83,19.1c2.9,6.76,7.57,12.79,10.83,19.45l.87.63h23.31c1.16-.36,5.86-9.63,6.84-11.41h16.25c.05,0,.75.7.75.75,0,3.63.49,9.16,0,12.5Z"/>
  <path d="M17.5,66.56H0V.56h59.25c3.37,0,8.27,5.58,9.22,8.78,1.06,3.57.92,17.29.52,21.46-.62,6.5-6.58,12.26-13.24,12.26H18.25c-.09,0-.65.57-.7.79l-.05,22.71ZM17.5,13.56c.71,4.16.62,8.53.52,12.77-.02.77-.92,3.23.23,3.23h30c1.01,0,2.13-1.64,2.27-2.73.24-1.78.28-9.37-.04-11.01-.12-.65-1.41-2.26-1.74-2.26h-31.25Z"/>
  <path d="M271.9,22.17l6.52,11.23-6.37,11.34c-.97.89-11.74.08-13.95.21l-6.52-11.23,6.37-11.34c1.01-.91,11.7-.07,13.95-.22Z"/>
  <path d="M542.83,1.26c3.12,1.86,3.67,7.23,1.18,9.92-5.25,5.67-14.18-.08-11.05-7.4,1.51-3.52,6.91-4.28,9.87-2.52ZM542,10.06c3.17-2.51,1.49-7.44-2.38-7.91-6.45-.78-7.18,7.96-2.36,8.9,2.1.41,3.22.22,4.74-.99-1.4,1.31-2.66-1.76-3.26-2-1.11-.44-.59,1.22-1.23,1.75-1.72,1.41-2.9-3.85-1.56-5.56.89-1.13,5.54-.84,5.98-.13.16.25.29,5.73.07,5.93Z"/>
</svg>