<?xml version="1.0" encoding="UTF-8"?>
<svg id="Layer_1" data-name="Layer 1" xmlns="http://www.w3.org/2000/svg" viewBox="0 0 194.52 168.21">
  <defs>
    <style>
      .cls-1 {
        font-family: Arial-BoldMT, Arial;
        font-size: 46.26px;
        font-weight: 700;
      }

      .cls-1, .cls-2, .cls-3 {
        isolation: isolate;
      }

      .cls-1, .cls-2, .cls-4 {
        fill: #1a1a1a;
      }

      .cls-2 {
        font-family: ArialMT, Arial;
        font-size: 13.45px;
      }

      .cls-5 {
        letter-spacing: -.02em;
      }

      .cls-6 {
        letter-spacing: -.02em;
      }
    </style>
  </defs>
  <path class="cls-4" d="M68.99,100.98h.01v-32.73l-6.93,6.92v26.33l4.34-.17c.42-.07.83-.13,1.25-.19.45-.07.88-.14,1.33-.2,0,0,0,.04,0,.04Z"/>
  <path class="cls-4" d="M83.52,21.27v77.89c-.28.02-.56.04-.84.07-1.76.16-3.52.35-5.27.57V27.69s6.11-6.42,6.11-6.42Z"/>
  <path class="cls-4" d="M102.78,0v98.66c-5.08-.19-10.16-.12-15.23.19l-.13-10.24-.11-8.07h0l-.53-38.8-.09-6.26L86.22,0h16.56Z"/>
  <path class="cls-4" d="M123.14,56.99v43.72c-5.15-.77-10.33-1.42-15.55-1.79-.42-.03-.84-.06-1.26-.08V1.63l4.88,7.6v27.13l9.98,17.24h.01l1.95,3.39h0Z"/>
  <path class="cls-4" d="M74.56,34.02v66.14c-.99.13-1.99.27-2.98.41V35.45c.92-.57,1.92-1.04,2.98-1.43Z"/>
  <path class="cls-4" d="M130.74,79.25v21.99h-4.31c-.46-.08-.93-.15-1.39-.22h0l.27-27.2s5.43,5.43,5.43,5.43Z"/>
  <path class="cls-4" d="M161.16,114.63c-12.01-4.43-25.1-7.18-38.29-9.16-5.25-.79-10.55-1.46-15.88-1.84-8.28-.59-16.65-.45-24.91.3-5.03.46-10.02,1.16-14.99,1.91-13.77,2.1-28.94,4.62-40.65,10.67,2.52-.23,5.45-1.3,7.98-1.88,2.78-.63,5.59-1.22,8.4-1.77,5.64-1.09,11.33-2,17.07-2.74,11.48-1.47,23.13-2.24,34.79-2.3,23.31-.12,46.65,2.58,68.73,8.11.99.25,1.98.5,2.97.76-1.72-.73-3.46-1.41-5.22-2.06h0Z"/>
  <g class="cls-3">
    <text class="cls-2" transform="translate(7.23 164.84)"><tspan x="0" y="0">PROPE</tspan><tspan class="cls-6" x="47.09" y="0">R</tspan><tspan x="56.56" y="0">T</tspan><tspan class="cls-6" x="64.77" y="0">Y</tspan><tspan x="73.5" y="0" xml:space="preserve"> MANAGEMEN</tspan><tspan class="cls-5" x="165.42" y="0">T</tspan></text>
  </g>
  <g class="cls-3">
    <text class="cls-1" transform="translate(0 151.51) scale(.97 1)"><tspan x="0" y="0">RELIANT</tspan></text>
  </g>
</svg>