<?xml version="1.0" encoding="UTF-8"?>
<svg id="Layer_1" data-name="Layer 1" xmlns="http://www.w3.org/2000/svg" viewBox="0 0 186.55 186.55">
  <defs>
    <style>
      .cls-1 {
        fill: #f15a29;
      }

      .cls-2 {
        fill: #fff;
      }

      .cls-3 {
        fill: #1a1a1a;
      }
    </style>
  </defs>
  <circle class="cls-3" cx="93.27" cy="93.27" r="93.27"/>
  <g>
    <path class="cls-2" d="M31.54,152.63l.38-.39c1.23,1.03,1.42,1.05,2.57-.14l5.42-5.6c1.15-1.19,1.12-1.38.06-2.58l.38-.39,3.71,3.59-.38.39c-1.23-1.03-1.42-1.05-2.57.14l-5.42,5.6c-1.16,1.2-1.12,1.38-.05,2.58l-.38.39-3.71-3.59Z"/>
    <path class="cls-2" d="M54.44,155.93c-.91-.61-1.43-.68-2-.06-.42.44-.98,1.11-2.07,2.56l-4.7,6.28-.48-.36-.52-13.14-.03-.02-2.93,3.91c-1.07,1.43-1.59,2.22-1.88,2.7-.52.85-.3,1.31.71,2.16l-.33.44-3.69-2.77.33-.44c.92.62,1.48.72,2.13.01.41-.45,1.03-1.18,2.09-2.59l2.57-3.43c.85-1.14.88-1.24.87-1.81-.04-.63-.27-1-.95-1.62l.33-.44,2.29,1.72.65,12.7.05.03,2.87-3.83c1.09-1.45,1.56-2.19,1.83-2.67.46-.78.25-1.25-.8-2.11l.33-.44,3.68,2.75-.33.44Z"/>
    <path class="cls-2" d="M65.88,161.67c-1.25-.46-1.56-.42-3,.79-1.05.91-5.11,4.4-8.25,7.32l-.54-.27c.45-3.77.93-8.26,1.2-11.29.15-1.54-.06-1.82-1.05-2.45l.25-.49,4.26,2.16-.25.49c-1.3-.5-1.42-.39-1.53.51-.19,1.45-.63,5.47-.96,9.05l.03.02c1.98-1.75,5.01-4.47,6.45-5.92.84-.84.8-1.01-.52-1.9l.25-.49,3.91,1.98-.25.49Z"/>
    <path class="cls-2" d="M72.5,173.22c-.31.57-1.25,2.19-1.61,2.71l-8.92-2.93.17-.52c1.73.42,1.92.32,2.42-1.19l2.42-7.36c.54-1.65.42-1.77-.99-2.35l.17-.52,8.25,2.71c-.15.46-.47,1.75-.73,2.71l-.56-.1c.09-.83.04-1.3-.08-1.77-.13-.49-.58-.79-1.91-1.22l-1.41-.46c-.57-.19-.63-.14-.8.39l-1.39,4.22,1.74.57c1.68.55,1.82.44,2.45-.73l.54.18-1.16,3.53-.54-.18c.19-1.39.1-1.55-1.51-2.08l-1.76-.58-1.15,3.5c-.29.87-.31,1.31-.05,1.64.27.36.92.57,1.84.87,1.41.46,1.97.48,2.54.14.44-.27,1-.8,1.5-1.44l.51.25Z"/>
    <path class="cls-2" d="M81.52,168.23c-.09-1.27-.34-2.69-2.01-3.02-1.47-.29-2.33.63-2.53,1.66-.28,1.39.51,2.24,1.87,3.31,1.35,1.08,2.98,2.31,2.55,4.47-.4,2.01-2.41,3.27-4.95,2.77-.78-.15-1.38-.43-1.82-.66-.45-.25-.7-.46-.88-.59-.05-.43.02-2.12.07-3.06l.6-.02c.06,1.22.54,3.32,2.52,3.71,1.45.29,2.47-.45,2.74-1.84.28-1.41-.64-2.29-1.92-3.34-1.09-.91-2.83-2.23-2.41-4.38.36-1.83,2.14-3.11,4.61-2.62.88.17,1.64.54,2.32.91-.06.68-.11,1.47-.2,2.7h-.57Z"/>
    <path class="cls-2" d="M93.3,169.39c-.13-.95-.29-1.44-.48-1.77-.3-.49-.6-.67-2.07-.77l-1.36-.09-.66,9.58c-.11,1.53.04,1.74,1.85,1.98l-.04.54-5.56-.39.04-.54c1.78,0,1.94-.18,2.05-1.71l.66-9.58-1.2-.08c-1.61-.11-2.01.04-2.3.45-.26.31-.45.87-.74,1.71l-.56-.04c.18-1.16.36-2.41.48-3.48l.39.03c.24.47.49.52,1.03.56l7.67.53c.52.04.69-.07,1.01-.42l.41.03c-.04.89-.06,2.32-.03,3.45l-.59.02Z"/>
    <path class="cls-2" d="M106.23,178.04l-.06-.54c1.57-.31,1.62-.43,1.39-2.48l-.94-7.89h-.08s-3.57,11.13-3.57,11.13l-.39.04-5.46-9.87h-.04s.31,5.55.31,5.55c.1,1.62.19,2.45.29,3.22.14.92.6,1.01,1.91,1.01l.06.54-4.51.49-.06-.54c1.13-.24,1.47-.51,1.52-1.34.04-.69.07-1.54-.02-3.58l-.17-4.06c-.1-2.54-.2-2.6-1.99-2.59l-.06-.54,3.18-.35,5.47,9.22,3.44-10.19,3.29-.36.06.54c-1.71.34-1.82.39-1.54,2.38l.94,6.99c.28,2.05.35,2.16,2.05,2.11l.06.54-5.09.55Z"/>
    <path class="cls-2" d="M122.25,171.01c.07.65.21,2.52.21,3.14l-9.01,2.63-.15-.52c1.66-.63,1.77-.82,1.32-2.35l-2.17-7.44c-.49-1.66-.66-1.69-2.15-1.38l-.15-.52,8.34-2.43c.14.47.6,1.71.94,2.65l-.52.23c-.4-.74-.7-1.09-1.06-1.41-.38-.33-.92-.32-2.27.07l-1.42.41c-.58.17-.6.24-.44.78l1.24,4.26,1.76-.51c1.7-.5,1.75-.67,1.61-1.99l.54-.16,1.04,3.57-.54.16c-.63-1.26-.79-1.33-2.42-.86l-1.78.52,1.03,3.53c.26.88.49,1.26.89,1.38.43.14,1.08-.05,2.01-.32,1.42-.41,1.9-.72,2.17-1.32.21-.47.37-1.23.42-2.03l.56-.08Z"/>
    <path class="cls-2" d="M131.85,156.73c-.96.52-1.27.95-.99,1.74.19.58.53,1.39,1.3,3.02l3.35,7.09-.55.26-11.86-5.68-.04.02,2.09,4.42c.77,1.62,1.22,2.44,1.51,2.93.51.86,1.02.88,2.25.38l.23.49-4.17,1.97-.23-.49c.98-.53,1.33-.97,1.01-1.88-.2-.57-.56-1.46-1.32-3.06l-1.83-3.87c-.61-1.29-.68-1.36-1.19-1.61-.58-.27-1.01-.23-1.88.09l-.23-.49,2.59-1.22,11.54,5.36.05-.02-2.05-4.33c-.77-1.64-1.2-2.4-1.5-2.86-.47-.77-.98-.81-2.24-.28l-.23-.49,4.15-1.96.23.49Z"/>
    <path class="cls-2" d="M141.72,152.78c-.69-.66-1.13-.95-1.48-1.08-.54-.2-.88-.15-2.1.69l-1.12.78,5.46,7.9c.87,1.27,1.11,1.34,2.69.39l.31.45-4.58,3.17-.31-.45c1.39-1.1,1.41-1.35.54-2.62l-5.46-7.9-.99.69c-1.33.92-1.55,1.28-1.51,1.78,0,.41.19.96.48,1.8l-.46.32c-.58-1.02-1.22-2.11-1.8-3.02l.32-.22c.48.21.71.1,1.16-.21l6.33-4.37c.43-.3.49-.48.52-.95l.34-.23c.52.73,1.4,1.85,2.13,2.71l-.45.38Z"/>
    <path class="cls-2" d="M147.55,147.43c-1.07-.69-2.36-1.33-3.62-.2-1.11,1-.89,2.24-.18,3.02.95,1.06,2.1.94,3.77.48,1.68-.44,3.64-1,5.11.63,1.37,1.52,1.18,3.89-.74,5.63-.59.54-1.17.85-1.61,1.06-.47.21-.79.29-1,.35-.38-.21-1.69-1.29-2.41-1.89l.34-.49c1.01.69,2.98,1.56,4.48.2,1.1-.99,1.12-2.25.17-3.3-.97-1.07-2.22-.86-3.82-.46-1.38.33-3.48.94-4.96-.69-1.25-1.39-1.21-3.58.66-5.26.66-.6,1.42-.99,2.12-1.31.51.45,1.11.97,2.05,1.77l-.35.45Z"/>
  </g>
  <g>
    <path class="cls-2" d="M56.98,31.37c-.18.13-.36.26-.54.37-1.19.78-2.05.9-3.45.41-1.07-.35-2.29-.9-3.29-1.31-.57-.24-.95-.23-1.72.33l-.48.35,1.75,2.4c.94,1.28,1.14,1.28,2.4.5l.31.42-3.96,2.88-.31-.42c1.17-.99,1.23-1.17.29-2.46l-4.43-6.07c-.94-1.28-1.09-1.24-2.35-.49l-.31-.42,3.75-2.73c1.1-.8,1.94-1.21,2.78-1.24.91-.06,1.79.33,2.45,1.24.95,1.3.72,2.69-.02,4,.61.3,1.98.85,2.93,1.2,1.12.39,1.7.56,2.37.68.72.17,1.21.07,1.61-.08l.23.44ZM47.87,30.52c.76-.55,1.17-1.03,1.31-1.63.26-.88.06-1.66-.53-2.48-1.19-1.63-2.7-1.45-3.84-.63-.44.32-.65.57-.71.75-.07.16,0,.36.32.79l2.72,3.73.72-.53Z"/>
    <path class="cls-2" d="M63.27,24.63c.19.6.69,2.32.82,2.91l-7.94,4.26-.25-.46c1.44-.92,1.5-1.12.77-2.47l-3.52-6.55c-.79-1.47-.95-1.46-2.29-.87l-.25-.46,7.35-3.94c.22.41.9,1.49,1.41,2.3l-.44.32c-.52-.61-.88-.89-1.28-1.12-.43-.24-.93-.12-2.12.52l-1.25.67c-.51.27-.52.34-.26.82l2.02,3.76,1.55-.83c1.5-.81,1.51-.98,1.12-2.19l.48-.26,1.69,3.15-.48.26c-.84-1.05-1.01-1.09-2.44-.32l-1.56.84,1.67,3.11c.42.77.71,1.08,1.11,1.12.43.05,1-.26,1.83-.71,1.25-.67,1.64-1.05,1.77-1.67.1-.48.11-1.22,0-1.99l.51-.19Z"/>
    <path class="cls-2" d="M71.28,24.8l-.18-.49c1.06-.54,1.17-.74.69-1.34-.48-.6-1.17-1.43-1.94-2.36l-3.75,1.35c0,.89,0,1.73.04,2.55.03,1.24.23,1.37,1.61,1.01l.18.49-3.83,1.38-.18-.49c1.07-.56,1.28-.76,1.31-2.54l.32-10.53.49-.35c2.17,2.61,4.56,5.55,6.79,8.2,1.09,1.32,1.39,1.39,2.57,1.08l.18.49-4.31,1.55ZM66.17,16.02h-.04c-.02,1.71-.01,3.45-.04,5.09l3.24-1.16-3.16-3.93Z"/>
    <path class="cls-2" d="M83.65,18.76c0,.59-.02,2.41-.07,3.01l-8.3,1.7-.1-.51c1.52-.42,1.64-.58,1.32-2.14l-1.5-7.33c-.32-1.56-.45-1.63-1.97-1.43l-.1-.51,4.78-.98.11.51c-1.42.41-1.57.51-1.25,2.09l1.48,7.23c.2.99.37,1.34.74,1.45.41.13,1.04.04,1.81-.12,1.01-.21,1.61-.43,1.93-.99.25-.43.46-1.09.57-1.99h.57Z"/>
    <path class="cls-2" d="M96.43,18.1c-.09.62-.41,2.39-.57,2.97l-9.01.27-.02-.52c1.7-.18,1.84-.34,1.8-1.87l-.22-7.44c-.05-1.66-.2-1.73-1.66-1.8l-.02-.52,8.33-.25c.01.47.15,1.73.23,2.69l-.54.09c-.19-.78-.39-1.19-.65-1.57-.27-.4-.78-.52-2.13-.48l-1.42.04c-.58.02-.62.07-.6.62l.13,4.26,1.76-.05c1.7-.05,1.79-.2,1.98-1.46l.54-.02.11,3.57-.54.02c-.28-1.32-.42-1.43-2.04-1.38l-1.78.05.11,3.53c.03.88.15,1.29.49,1.5.36.23,1.02.21,1.95.18,1.42-.04,1.94-.21,2.34-.71.31-.38.64-1.05.88-1.78l.54.06Z"/>
    <path class="cls-2" d="M103.53,12.38c-.21-1.2-.6-2.53-2.22-2.67-1.43-.13-2.16.84-2.25,1.85-.12,1.36.72,2.09,2.12,2.96,1.4.89,3.08,1.9,2.89,4.01-.17,1.95-1.97,3.37-4.44,3.16-.76-.07-1.37-.27-1.8-.44-.45-.19-.72-.36-.9-.47-.1-.4-.2-2.03-.25-2.93l.57-.08c.18,1.16.85,3.11,2.79,3.28,1.42.12,2.31-.68,2.43-2.04.12-1.38-.85-2.12-2.18-2.99-1.13-.76-2.94-1.83-2.75-3.94.16-1.79,1.72-3.19,4.13-2.98.86.07,1.62.35,2.31.63.02.66.05,1.41.09,2.6l-.55.05Z"/>
    <path class="cls-2" d="M115.22,14.66c0-.92-.08-1.41-.22-1.75-.22-.51-.48-.71-1.87-1.01l-1.28-.27-1.92,9.01c-.31,1.44-.2,1.66,1.5,2.13l-.11.51-5.23-1.11.11-.51c1.69.24,1.87.09,2.18-1.35l1.92-9.02-1.13-.24c-1.52-.32-1.92-.24-2.24.11-.29.26-.54.76-.94,1.52l-.53-.11c.33-1.08.67-2.25.92-3.24l.37.08c.17.48.4.56.91.67l7.22,1.54c.49.11.66.03,1.01-.26l.38.08c-.16.85-.37,2.2-.49,3.28l-.56-.06Z"/>
    <path class="cls-2" d="M119.23,25.84l.18-.49c1.16.26,1.37.17,1.39-.59.02-.77,0-1.84,0-3.06l-3.75-1.35c-.57.69-1.09,1.33-1.59,1.99-.77.98-.69,1.2.6,1.81l-.18.49-3.84-1.38.18-.49c1.18.25,1.47.23,2.63-1.12l6.95-7.91.6.04c.01,3.4-.02,7.18,0,10.65,0,1.71.19,1.96,1.3,2.47l-.18.49-4.31-1.55ZM120.89,15.81h-.04c-1.1,1.28-2.2,2.63-3.27,3.88l3.24,1.16.06-5.04Z"/>
    <path class="cls-2" d="M135.09,23.19c.25-.88.3-1.38.26-1.74-.07-.55-.27-.82-1.53-1.47l-1.16-.61-4.27,8.17c-.68,1.31-.64,1.54.87,2.46l-.24.46-4.74-2.48.24-.46c1.56.69,1.78.59,2.46-.72l4.27-8.17-1.03-.54c-1.37-.72-1.78-.74-2.19-.49-.35.18-.73.59-1.31,1.21l-.48-.25c.6-.95,1.25-1.98,1.76-2.88l.33.17c.03.5.23.65.69.89l6.54,3.42c.45.23.63.2,1.04.02l.35.18c-.38.77-.95,2.01-1.35,3.03l-.52-.21Z"/>
    <path class="cls-2" d="M140.57,34.71c-.45.44-1.77,1.65-2.25,2.03l-7.34-5.23.3-.43c1.46.88,1.67.85,2.56-.4l4.32-6.06c.97-1.35.89-1.5-.23-2.44l.3-.43,6.79,4.84c-.27.38-.93,1.47-1.44,2.28l-.48-.25c.32-.74.41-1.18.44-1.64.03-.49-.31-.89-1.41-1.67l-1.16-.82c-.47-.34-.53-.31-.85.13l-2.47,3.47,1.43,1.02c1.39.99,1.55.92,2.46.03l.44.31-2.07,2.91-.44-.31c.57-1.22.53-1.39-.79-2.33l-1.45-1.03-2.05,2.88c-.51.72-.66,1.12-.51,1.49.15.4.68.78,1.44,1.33,1.16.82,1.67,1.01,2.29.85.48-.12,1.14-.45,1.78-.89l.4.38Z"/>
  </g>
  <path class="cls-1" d="M40.97,33.7l-.48.4c.12-.18.28-.32.48-.4Z"/>
  <path class="cls-1" d="M41.03,33.68s-.05.02-.07.02l.06-.05v.02Z"/>
  <path class="cls-2" d="M83.35,50.36c-4.27.5-5.09,1.07-7.47,6.66-1.7,4.14-8.29,20.09-13.06,33.09h-1.95c-4.21-11.49-9.36-25.12-13-34.22-1.82-4.65-2.83-5.15-6.59-5.53v-1.76h15.38v1.76c-4.46.44-4.65.94-3.64,3.7,1.57,4.46,6.15,16.64,10.42,27.44h.13c3.14-7.91,7.91-20.16,9.92-26.43,1.19-3.64.82-4.08-4.27-4.71v-1.76h14.13v1.76Z"/>
  <path class="cls-2" d="M145.15,50c-4.33.57-4.9,1.07-6.78,6.28-1.38,4.02-5.21,15.89-10.36,33.47h-1.95c-3.45-10.11-7.79-22.23-10.99-31.33h-.13c-3.52,11.05-7.03,21.16-10.23,31.33h-1.95c-3.33-11.37-6.84-22.42-10.3-33.59-1.57-5.15-2.51-5.71-6.34-6.15v-1.76h15.26v1.76c-4.58.57-4.71,1.07-3.77,4.27,2.45,8.48,4.9,16.95,7.66,25.87h.13c3.39-10.67,6.97-21.1,10.17-31.33h1.82c3.52,10.36,7.16,20.53,10.99,31.4h.13c2.64-8.41,6.15-20.72,7.1-25.18.88-3.77.63-4.46-4.27-5.02v-1.76h13.81v1.76Z"/>
  <path class="cls-2" d="M80.59,125.74c-.88,2.89-2.45,7.53-3.58,9.67-1.76.38-7.03,1.63-11.55,1.63-15.63,0-22.48-10.8-22.48-20.78,0-13.25,10.17-21.91,24.17-21.91,5.09,0,9.36,1.38,11.11,1.7.5,3.52.88,6.09,1.26,9.42l-1.82.5c-1.7-6.66-5.46-9.36-12.24-9.36-10.49,0-16.07,8.85-16.07,18.4,0,11.74,6.91,19.78,16.45,19.78,6.4,0,9.8-3.45,12.93-9.67l1.82.63Z"/>
  <path class="cls-2" d="M138.25,116.42c0,13.56-9.48,21.85-20.97,21.85s-20.41-8.79-20.41-20.91c0-11.3,7.91-21.79,21.16-21.79,10.61,0,20.22,8.23,20.22,20.85ZM103.27,115.6c0,11.8,6.47,20.41,15.32,20.41,7.03,0,13.25-5.84,13.25-17.9,0-13.25-6.91-20.28-15.19-20.28-6.97,0-13.37,5.96-13.37,17.77Z"/>
  <path class="cls-2" d="M97.64,79.9c-2.39.27-2.83.89-3.96,2.56-.96,1.33-1.77,2.73-2.97,4.54,1.43,1.4,7.03,7.45,8.05,9.43l-1.32.09c-1.88-.17-1.98-.16-2.39-.6-.41-.48-5.02-5.26-6.15-6.42-2.46,3.28-4.71,4.5-7.17,4.5-4.3,0-6.72-3.21-6.72-6.18,0-3.17,2.22-4.54,5.12-6.62-1.54-1.43-2.46-2.9-2.46-4.74,0-3.07,2.59-5.39,5.6-5.39,2.76,0,5.05,1.98,5.05,4.71,0,1.4-.72,2.39-1.43,3-.65.55-1.43,1.19-2.76,2.08,1.13.96,3.55,3.04,5.73,5.29.82-1.26,1.4-2.42,2.05-3.92.68-1.6.34-2.01-2.08-2.32v-.96h7.81v.96ZM88.12,88.57c-1.81-2.01-3.99-4.09-7.1-6.62-2.25,1.6-3.11,3.21-3.11,4.88,0,3.28,2.49,4.84,4.74,4.84s4.33-1.54,5.46-3.1ZM80.13,75.64c0,1.77,1.06,2.97,3.1,4.54,1.6-1.19,2.52-2.52,2.52-4.37,0-1.94-1.16-3.58-2.87-3.58-1.57,0-2.76,1.36-2.76,3.41Z"/>
  <path class="cls-2" d="M35.04,147.76c.05-.05.11-.1.16-.15.23-.22.24-.59.03-.82-13.01-14.08-20.97-32.89-20.97-53.53,0-24.41,11.13-46.26,28.58-60.75.36-.3.24-.89-.21-1.01h0c-.19-.05-.39-.01-.54.11-17.71,14.71-29.01,36.89-29.01,61.66,0,21.16,7.93,40.1,21.38,54.43.12-.13.53.11.57.07Z"/>
  <path class="cls-2" d="M151.79,147.76c-.05-.05-.11-.1-.16-.15-.23-.22-.24-.59-.03-.82,13.01-14.08,20.97-32.89,20.97-53.53,0-24.41-11.13-46.26-28.58-60.75-.36-.3-.24-.89.21-1.01h0c.19-.05.39-.01.54.11,17.71,14.71,29.01,36.89,29.01,61.66,0,21.16-7.93,40.1-21.38,54.43-.12-.13-.53.11-.57.07Z"/>
  <circle class="cls-2" cx="34.85" cy="147.24" r=".58"/>
</svg>