<?xml version="1.0" encoding="UTF-8"?>
<svg id="Layer_1" data-name="Layer 1" xmlns="http://www.w3.org/2000/svg" viewBox="0 0 1100 270">
  <defs>
    <style>
      .cls-1 {
        fill: #1a1a1a;
      }
    </style>
  </defs>
  <path class="cls-1" d="M0,43.75c0-3.5,2.75-6.25,6.25-6.25s6.25,2.75,6.25,6.25-2.75,6.25-6.25,6.25-6.25-2.75-6.25-6.25ZM0,56.25c0-3.5,2.75-6.25,6.25-6.25s6.25,2.75,6.25,6.25-2.75,6.25-6.25,6.25-6.25-2.75-6.25-6.25ZM0,68.75c0-3.5,2.75-6.25,6.25-6.25s6.25,2.75,6.25,6.25-2.75,6.25-6.25,6.25-6.25-2.75-6.25-6.25ZM0,81.25c0-3.5,2.75-6.25,6.25-6.25s6.25,2.75,6.25,6.25-2.75,6.25-6.25,6.25-6.25-2.75-6.25-6.25ZM12.5,18.75c0-3.5,2.75-6.25,6.25-6.25s6.25,2.75,6.25,6.25-2.75,6.25-6.25,6.25-6.25-2.75-6.25-6.25ZM12.5,31.25c0-3.5,2.75-6.25,6.25-6.25s6.25,2.75,6.25,6.25-2.75,6.25-6.25,6.25-6.25-2.75-6.25-6.25ZM12.5,43.75c0-3.5,2.75-6.25,6.25-6.25s6.25,2.75,6.25,6.25-2.75,6.25-6.25,6.25-6.25-2.75-6.25-6.25ZM12.5,56.25c0-3.5,2.75-6.25,6.25-6.25s6.25,2.75,6.25,6.25-2.75,6.25-6.25,6.25-6.25-2.75-6.25-6.25ZM12.5,68.75c0-3.5,2.75-6.25,6.25-6.25s6.25,2.75,6.25,6.25-2.75,6.25-6.25,6.25-6.25-2.75-6.25-6.25ZM12.5,81.25c0-3.5,2.75-6.25,6.25-6.25s6.25,2.75,6.25,6.25-2.75,6.25-6.25,6.25-6.25-2.75-6.25-6.25ZM12.5,93.75c0-3.5,2.75-6.25,6.25-6.25s6.25,2.75,6.25,6.25-2.75,6.25-6.25,6.25-6.25-2.75-6.25-6.25ZM12.5,106.25c0-3.5,2.75-6.25,6.25-6.25s6.25,2.75,6.25,6.25-2.75,6.25-6.25,6.25-6.25-2.75-6.25-6.25ZM25,18.75c0-3.5,2.75-6.25,6.25-6.25s6.25,2.75,6.25,6.25-2.75,6.25-6.25,6.25-6.25-2.75-6.25-6.25ZM25,31.25c0-3.5,2.75-6.25,6.25-6.25s6.25,2.75,6.25,6.25-2.75,6.25-6.25,6.25-6.25-2.75-6.25-6.25ZM25,43.75c0-3.5,2.75-6.25,6.25-6.25s6.25,2.75,6.25,6.25-2.75,6.25-6.25,6.25-6.25-2.75-6.25-6.25ZM25,56.25c0-3.5,2.75-6.25,6.25-6.25s6.25,2.75,6.25,6.25-2.75,6.25-6.25,6.25-6.25-2.75-6.25-6.25ZM25,68.75c0-3.5,2.75-6.25,6.25-6.25s6.25,2.75,6.25,6.25-2.75,6.25-6.25,6.25-6.25-2.75-6.25-6.25ZM25,81.25c0-3.5,2.75-6.25,6.25-6.25s6.25,2.75,6.25,6.25-2.75,6.25-6.25,6.25-6.25-2.75-6.25-6.25ZM25,93.75c0-3.5,2.75-6.25,6.25-6.25s6.25,2.75,6.25,6.25-2.75,6.25-6.25,6.25-6.25-2.75-6.25-6.25ZM25,106.25c0-3.5,2.75-6.25,6.25-6.25s6.25,2.75,6.25,6.25-2.75,6.25-6.25,6.25-6.25-2.75-6.25-6.25ZM37.5,6.25c0-3.5,2.75-6.25,6.25-6.25s6.25,2.75,6.25,6.25-2.75,6.25-6.25,6.25-6.25-2.75-6.25-6.25ZM37.5,18.75c0-3.5,2.75-6.25,6.25-6.25s6.25,2.75,6.25,6.25-2.75,6.25-6.25,6.25-6.25-2.75-6.25-6.25ZM37.5,31.25c0-3.5,2.75-6.25,6.25-6.25s6.25,2.75,6.25,6.25-2.75,6.25-6.25,6.25-6.25-2.75-6.25-6.25ZM37.5,43.75c0-3.5,2.75-6.25,6.25-6.25s6.25,2.75,6.25,6.25-2.75,6.25-6.25,6.25-6.25-2.75-6.25-6.25ZM37.5,56.25c0-3.5,2.75-6.25,6.25-6.25s6.25,2.75,6.25,6.25-2.75,6.25-6.25,6.25-6.25-2.75-6.25-6.25ZM37.5,68.75c0-3.5,2.75-6.25,6.25-6.25s6.25,2.75,6.25,6.25-2.75,6.25-6.25,6.25-6.25-2.75-6.25-6.25ZM37.5,81.25c0-3.5,2.75-6.25,6.25-6.25s6.25,2.75,6.25,6.25-2.75,6.25-6.25,6.25-6.25-2.75-6.25-6.25ZM37.5,93.75c0-3.5,2.75-6.25,6.25-6.25s6.25,2.75,6.25,6.25-2.75,6.25-6.25,6.25-6.25-2.75-6.25-6.25ZM37.5,106.25c0-3.5,2.75-6.25,6.25-6.25s6.25,2.75,6.25,6.25-2.75,6.25-6.25,6.25-6.25-2.75-6.25-6.25ZM37.5,118.75c0-3.5,2.75-6.25,6.25-6.25s6.25,2.75,6.25,6.25-2.75,6.25-6.25,6.25-6.25-2.75-6.25-6.25ZM50,6.25c0-3.5,2.75-6.25,6.25-6.25s6.25,2.75,6.25,6.25-2.75,6.25-6.25,6.25-6.25-2.75-6.25-6.25ZM50,18.75c0-3.5,2.75-6.25,6.25-6.25s6.25,2.75,6.25,6.25-2.75,6.25-6.25,6.25-6.25-2.75-6.25-6.25ZM50,31.25c0-3.5,2.75-6.25,6.25-6.25s6.25,2.75,6.25,6.25-2.75,6.25-6.25,6.25-6.25-2.75-6.25-6.25ZM50,93.75c0-3.5,2.75-6.25,6.25-6.25s6.25,2.75,6.25,6.25-2.75,6.25-6.25,6.25-6.25-2.75-6.25-6.25ZM50,106.25c0-3.5,2.75-6.25,6.25-6.25s6.25,2.75,6.25,6.25-2.75,6.25-6.25,6.25-6.25-2.75-6.25-6.25ZM50,118.75c0-3.5,2.75-6.25,6.25-6.25s6.25,2.75,6.25,6.25-2.75,6.25-6.25,6.25-6.25-2.75-6.25-6.25ZM62.5,6.25c0-3.5,2.75-6.25,6.25-6.25s6.25,2.75,6.25,6.25-2.75,6.25-6.25,6.25-6.25-2.75-6.25-6.25ZM62.5,18.75c0-3.5,2.75-6.25,6.25-6.25s6.25,2.75,6.25,6.25-2.75,6.25-6.25,6.25-6.25-2.75-6.25-6.25ZM62.5,106.25c0-3.5,2.75-6.25,6.25-6.25s6.25,2.75,6.25,6.25-2.75,6.25-6.25,6.25-6.25-2.75-6.25-6.25ZM62.5,118.75c0-3.5,2.75-6.25,6.25-6.25s6.25,2.75,6.25,6.25-2.75,6.25-6.25,6.25-6.25-2.75-6.25-6.25ZM75,6.25c0-3.5,2.75-6.25,6.25-6.25s6.25,2.75,6.25,6.25-2.75,6.25-6.25,6.25-6.25-2.75-6.25-6.25ZM75,18.75c0-3.5,2.75-6.25,6.25-6.25s6.25,2.75,6.25,6.25-2.75,6.25-6.25,6.25-6.25-2.75-6.25-6.25ZM75,106.25c0-3.5,2.75-6.25,6.25-6.25s6.25,2.75,6.25,6.25-2.75,6.25-6.25,6.25-6.25-2.75-6.25-6.25ZM75,118.75c0-3.5,2.75-6.25,6.25-6.25s6.25,2.75,6.25,6.25-2.75,6.25-6.25,6.25-6.25-2.75-6.25-6.25ZM87.5,6.25c0-3.5,2.75-6.25,6.25-6.25s6.25,2.75,6.25,6.25-2.75,6.25-6.25,6.25-6.25-2.75-6.25-6.25ZM87.5,18.75c0-3.5,2.75-6.25,6.25-6.25s6.25,2.75,6.25,6.25-2.75,6.25-6.25,6.25-6.25-2.75-6.25-6.25ZM87.5,106.25c0-3.5,2.75-6.25,6.25-6.25s6.25,2.75,6.25,6.25-2.75,6.25-6.25,6.25-6.25-2.75-6.25-6.25ZM87.5,118.75c0-3.5,2.75-6.25,6.25-6.25s6.25,2.75,6.25,6.25-2.75,6.25-6.25,6.25-6.25-2.75-6.25-6.25ZM100,6.25c0-3.5,2.75-6.25,6.25-6.25s6.25,2.75,6.25,6.25-2.75,6.25-6.25,6.25-6.25-2.75-6.25-6.25ZM100,18.75c0-3.5,2.75-6.25,6.25-6.25s6.25,2.75,6.25,6.25-2.75,6.25-6.25,6.25-6.25-2.75-6.25-6.25ZM100,31.25c0-3.5,2.75-6.25,6.25-6.25s6.25,2.75,6.25,6.25-2.75,6.25-6.25,6.25-6.25-2.75-6.25-6.25ZM100,93.75c0-3.5,2.75-6.25,6.25-6.25s6.25,2.75,6.25,6.25-2.75,6.25-6.25,6.25-6.25-2.75-6.25-6.25ZM100,106.25c0-3.5,2.75-6.25,6.25-6.25s6.25,2.75,6.25,6.25-2.75,6.25-6.25,6.25-6.25-2.75-6.25-6.25ZM100,118.75c0-3.5,2.75-6.25,6.25-6.25s6.25,2.75,6.25,6.25-2.75,6.25-6.25,6.25-6.25-2.75-6.25-6.25ZM112.5,18.75c0-3.5,2.75-6.25,6.25-6.25s6.25,2.75,6.25,6.25-2.75,6.25-6.25,6.25-6.25-2.75-6.25-6.25ZM112.5,31.25c0-3.5,2.75-6.25,6.25-6.25s6.25,2.75,6.25,6.25-2.75,6.25-6.25,6.25-6.25-2.75-6.25-6.25ZM112.5,93.75c0-3.5,2.75-6.25,6.25-6.25s6.25,2.75,6.25,6.25-2.75,6.25-6.25,6.25-6.25-2.75-6.25-6.25ZM112.5,106.25c0-3.5,2.75-6.25,6.25-6.25s6.25,2.75,6.25,6.25-2.75,6.25-6.25,6.25-6.25-2.75-6.25-6.25ZM125,18.75c0-3.5,2.75-6.25,6.25-6.25s6.25,2.75,6.25,6.25-2.75,6.25-6.25,6.25-6.25-2.75-6.25-6.25ZM125,31.25c0-3.5,2.75-6.25,6.25-6.25s6.25,2.75,6.25,6.25-2.75,6.25-6.25,6.25-6.25-2.75-6.25-6.25ZM125,93.75c0-3.5,2.75-6.25,6.25-6.25s6.25,2.75,6.25,6.25-2.75,6.25-6.25,6.25-6.25-2.75-6.25-6.25ZM125,106.25c0-3.5,2.75-6.25,6.25-6.25s6.25,2.75,6.25,6.25-2.75,6.25-6.25,6.25-6.25-2.75-6.25-6.25Z"/>
  <path class="cls-1" d="M150,43.75c0-3.5,2.75-6.25,6.25-6.25s6.25,2.75,6.25,6.25-2.75,6.25-6.25,6.25-6.25-2.75-6.25-6.25ZM150,56.25c0-3.5,2.75-6.25,6.25-6.25s6.25,2.75,6.25,6.25-2.75,6.25-6.25,6.25-6.25-2.75-6.25-6.25ZM150,68.75c0-3.5,2.75-6.25,6.25-6.25s6.25,2.75,6.25,6.25-2.75,6.25-6.25,6.25-6.25-2.75-6.25-6.25ZM150,81.25c0-3.5,2.75-6.25,6.25-6.25s6.25,2.75,6.25,6.25-2.75,6.25-6.25,6.25-6.25-2.75-6.25-6.25ZM162.5,18.75c0-3.5,2.75-6.25,6.25-6.25s6.25,2.75,6.25,6.25-2.75,6.25-6.25,6.25-6.25-2.75-6.25-6.25ZM162.5,31.25c0-3.5,2.75-6.25,6.25-6.25s6.25,2.75,6.25,6.25-2.75,6.25-6.25,6.25-6.25-2.75-6.25-6.25ZM162.5,43.75c0-3.5,2.75-6.25,6.25-6.25s6.25,2.75,6.25,6.25-2.75,6.25-6.25,6.25-6.25-2.75-6.25-6.25ZM162.5,56.25c0-3.5,2.75-6.25,6.25-6.25s6.25,2.75,6.25,6.25-2.75,6.25-6.25,6.25-6.25-2.75-6.25-6.25ZM162.5,68.75c0-3.5,2.75-6.25,6.25-6.25s6.25,2.75,6.25,6.25-2.75,6.25-6.25,6.25-6.25-2.75-6.25-6.25ZM162.5,81.25c0-3.5,2.75-6.25,6.25-6.25s6.25,2.75,6.25,6.25-2.75,6.25-6.25,6.25-6.25-2.75-6.25-6.25ZM162.5,93.75c0-3.5,2.75-6.25,6.25-6.25s6.25,2.75,6.25,6.25-2.75,6.25-6.25,6.25-6.25-2.75-6.25-6.25ZM162.5,106.25c0-3.5,2.75-6.25,6.25-6.25s6.25,2.75,6.25,6.25-2.75,6.25-6.25,6.25-6.25-2.75-6.25-6.25ZM175,18.75c0-3.5,2.75-6.25,6.25-6.25s6.25,2.75,6.25,6.25-2.75,6.25-6.25,6.25-6.25-2.75-6.25-6.25ZM175,31.25c0-3.5,2.75-6.25,6.25-6.25s6.25,2.75,6.25,6.25-2.75,6.25-6.25,6.25-6.25-2.75-6.25-6.25ZM175,43.75c0-3.5,2.75-6.25,6.25-6.25s6.25,2.75,6.25,6.25-2.75,6.25-6.25,6.25-6.25-2.75-6.25-6.25ZM175,56.25c0-3.5,2.75-6.25,6.25-6.25s6.25,2.75,6.25,6.25-2.75,6.25-6.25,6.25-6.25-2.75-6.25-6.25ZM175,68.75c0-3.5,2.75-6.25,6.25-6.25s6.25,2.75,6.25,6.25-2.75,6.25-6.25,6.25-6.25-2.75-6.25-6.25ZM175,81.25c0-3.5,2.75-6.25,6.25-6.25s6.25,2.75,6.25,6.25-2.75,6.25-6.25,6.25-6.25-2.75-6.25-6.25ZM175,93.75c0-3.5,2.75-6.25,6.25-6.25s6.25,2.75,6.25,6.25-2.75,6.25-6.25,6.25-6.25-2.75-6.25-6.25ZM175,106.25c0-3.5,2.75-6.25,6.25-6.25s6.25,2.75,6.25,6.25-2.75,6.25-6.25,6.25-6.25-2.75-6.25-6.25ZM187.5,6.25c0-3.5,2.75-6.25,6.25-6.25s6.25,2.75,6.25,6.25-2.75,6.25-6.25,6.25-6.25-2.75-6.25-6.25ZM187.5,18.75c0-3.5,2.75-6.25,6.25-6.25s6.25,2.75,6.25,6.25-2.75,6.25-6.25,6.25-6.25-2.75-6.25-6.25ZM187.5,31.25c0-3.5,2.75-6.25,6.25-6.25s6.25,2.75,6.25,6.25-2.75,6.25-6.25,6.25-6.25-2.75-6.25-6.25ZM187.5,43.75c0-3.5,2.75-6.25,6.25-6.25s6.25,2.75,6.25,6.25-2.75,6.25-6.25,6.25-6.25-2.75-6.25-6.25ZM187.5,56.25c0-3.5,2.75-6.25,6.25-6.25s6.25,2.75,6.25,6.25-2.75,6.25-6.25,6.25-6.25-2.75-6.25-6.25ZM187.5,68.75c0-3.5,2.75-6.25,6.25-6.25s6.25,2.75,6.25,6.25-2.75,6.25-6.25,6.25-6.25-2.75-6.25-6.25ZM187.5,81.25c0-3.5,2.75-6.25,6.25-6.25s6.25,2.75,6.25,6.25-2.75,6.25-6.25,6.25-6.25-2.75-6.25-6.25ZM187.5,93.75c0-3.5,2.75-6.25,6.25-6.25s6.25,2.75,6.25,6.25-2.75,6.25-6.25,6.25-6.25-2.75-6.25-6.25ZM187.5,106.25c0-3.5,2.75-6.25,6.25-6.25s6.25,2.75,6.25,6.25-2.75,6.25-6.25,6.25-6.25-2.75-6.25-6.25ZM187.5,118.75c0-3.5,2.75-6.25,6.25-6.25s6.25,2.75,6.25,6.25-2.75,6.25-6.25,6.25-6.25-2.75-6.25-6.25ZM200,6.25c0-3.5,2.75-6.25,6.25-6.25s6.25,2.75,6.25,6.25-2.75,6.25-6.25,6.25-6.25-2.75-6.25-6.25ZM200,18.75c0-3.5,2.75-6.25,6.25-6.25s6.25,2.75,6.25,6.25-2.75,6.25-6.25,6.25-6.25-2.75-6.25-6.25ZM200,31.25c0-3.5,2.75-6.25,6.25-6.25s6.25,2.75,6.25,6.25-2.75,6.25-6.25,6.25-6.25-2.75-6.25-6.25ZM200,93.75c0-3.5,2.75-6.25,6.25-6.25s6.25,2.75,6.25,6.25-2.75,6.25-6.25,6.25-6.25-2.75-6.25-6.25ZM200,106.25c0-3.5,2.75-6.25,6.25-6.25s6.25,2.75,6.25,6.25-2.75,6.25-6.25,6.25-6.25-2.75-6.25-6.25ZM200,118.75c0-3.5,2.75-6.25,6.25-6.25s6.25,2.75,6.25,6.25-2.75,6.25-6.25,6.25-6.25-2.75-6.25-6.25ZM212.5,6.25c0-3.5,2.75-6.25,6.25-6.25s6.25,2.75,6.25,6.25-2.75,6.25-6.25,6.25-6.25-2.75-6.25-6.25ZM212.5,18.75c0-3.5,2.75-6.25,6.25-6.25s6.25,2.75,6.25,6.25-2.75,6.25-6.25,6.25-6.25-2.75-6.25-6.25ZM212.5,106.25c0-3.5,2.75-6.25,6.25-6.25s6.25,2.75,6.25,6.25-2.75,6.25-6.25,6.25-6.25-2.75-6.25-6.25ZM212.5,118.75c0-3.5,2.75-6.25,6.25-6.25s6.25,2.75,6.25,6.25-2.75,6.25-6.25,6.25-6.25-2.75-6.25-6.25ZM225,6.25c0-3.5,2.75-6.25,6.25-6.25s6.25,2.75,6.25,6.25-2.75,6.25-6.25,6.25-6.25-2.75-6.25-6.25ZM225,18.75c0-3.5,2.75-6.25,6.25-6.25s6.25,2.75,6.25,6.25-2.75,6.25-6.25,6.25-6.25-2.75-6.25-6.25ZM225,106.25c0-3.5,2.75-6.25,6.25-6.25s6.25,2.75,6.25,6.25-2.75,6.25-6.25,6.25-6.25-2.75-6.25-6.25ZM225,118.75c0-3.5,2.75-6.25,6.25-6.25s6.25,2.75,6.25,6.25-2.75,6.25-6.25,6.25-6.25-2.75-6.25-6.25ZM237.5,6.25c0-3.5,2.75-6.25,6.25-6.25s6.25,2.75,6.25,6.25-2.75,6.25-6.25,6.25-6.25-2.75-6.25-6.25ZM237.5,18.75c0-3.5,2.75-6.25,6.25-6.25s6.25,2.75,6.25,6.25-2.75,6.25-6.25,6.25-6.25-2.75-6.25-6.25ZM237.5,106.25c0-3.5,2.75-6.25,6.25-6.25s6.25,2.75,6.25,6.25-2.75,6.25-6.25,6.25-6.25-2.75-6.25-6.25ZM237.5,118.75c0-3.5,2.75-6.25,6.25-6.25s6.25,2.75,6.25,6.25-2.75,6.25-6.25,6.25-6.25-2.75-6.25-6.25ZM250,6.25c0-3.5,2.75-6.25,6.25-6.25s6.25,2.75,6.25,6.25-2.75,6.25-6.25,6.25-6.25-2.75-6.25-6.25ZM250,18.75c0-3.5,2.75-6.25,6.25-6.25s6.25,2.75,6.25,6.25-2.75,6.25-6.25,6.25-6.25-2.75-6.25-6.25ZM250,31.25c0-3.5,2.75-6.25,6.25-6.25s6.25,2.75,6.25,6.25-2.75,6.25-6.25,6.25-6.25-2.75-6.25-6.25ZM250,93.75c0-3.5,2.75-6.25,6.25-6.25s6.25,2.75,6.25,6.25-2.75,6.25-6.25,6.25-6.25-2.75-6.25-6.25ZM250,106.25c0-3.5,2.75-6.25,6.25-6.25s6.25,2.75,6.25,6.25-2.75,6.25-6.25,6.25-6.25-2.75-6.25-6.25ZM250,118.75c0-3.5,2.75-6.25,6.25-6.25s6.25,2.75,6.25,6.25-2.75,6.25-6.25,6.25-6.25-2.75-6.25-6.25ZM262.5,6.25c0-3.5,2.75-6.25,6.25-6.25s6.25,2.75,6.25,6.25-2.75,6.25-6.25,6.25-6.25-2.75-6.25-6.25ZM262.5,18.75c0-3.5,2.75-6.25,6.25-6.25s6.25,2.75,6.25,6.25-2.75,6.25-6.25,6.25-6.25-2.75-6.25-6.25ZM262.5,31.25c0-3.5,2.75-6.25,6.25-6.25s6.25,2.75,6.25,6.25-2.75,6.25-6.25,6.25-6.25-2.75-6.25-6.25ZM262.5,43.75c0-3.5,2.75-6.25,6.25-6.25s6.25,2.75,6.25,6.25-2.75,6.25-6.25,6.25-6.25-2.75-6.25-6.25ZM262.5,56.25c0-3.5,2.75-6.25,6.25-6.25s6.25,2.75,6.25,6.25-2.75,6.25-6.25,6.25-6.25-2.75-6.25-6.25ZM262.5,68.75c0-3.5,2.75-6.25,6.25-6.25s6.25,2.75,6.25,6.25-2.75,6.25-6.25,6.25-6.25-2.75-6.25-6.25ZM262.5,81.25c0-3.5,2.75-6.25,6.25-6.25s6.25,2.75,6.25,6.25-2.75,6.25-6.25,6.25-6.25-2.75-6.25-6.25ZM262.5,93.75c0-3.5,2.75-6.25,6.25-6.25s6.25,2.75,6.25,6.25-2.75,6.25-6.25,6.25-6.25-2.75-6.25-6.25ZM262.5,106.25c0-3.5,2.75-6.25,6.25-6.25s6.25,2.75,6.25,6.25-2.75,6.25-6.25,6.25-6.25-2.75-6.25-6.25ZM262.5,118.75c0-3.5,2.75-6.25,6.25-6.25s6.25,2.75,6.25,6.25-2.75,6.25-6.25,6.25-6.25-2.75-6.25-6.25ZM275,18.75c0-3.5,2.75-6.25,6.25-6.25s6.25,2.75,6.25,6.25-2.75,6.25-6.25,6.25-6.25-2.75-6.25-6.25ZM275,31.25c0-3.5,2.75-6.25,6.25-6.25s6.25,2.75,6.25,6.25-2.75,6.25-6.25,6.25-6.25-2.75-6.25-6.25ZM275,43.75c0-3.5,2.75-6.25,6.25-6.25s6.25,2.75,6.25,6.25-2.75,6.25-6.25,6.25-6.25-2.75-6.25-6.25ZM275,56.25c0-3.5,2.75-6.25,6.25-6.25s6.25,2.75,6.25,6.25-2.75,6.25-6.25,6.25-6.25-2.75-6.25-6.25ZM275,68.75c0-3.5,2.75-6.25,6.25-6.25s6.25,2.75,6.25,6.25-2.75,6.25-6.25,6.25-6.25-2.75-6.25-6.25ZM275,81.25c0-3.5,2.75-6.25,6.25-6.25s6.25,2.75,6.25,6.25-2.75,6.25-6.25,6.25-6.25-2.75-6.25-6.25ZM275,93.75c0-3.5,2.75-6.25,6.25-6.25s6.25,2.75,6.25,6.25-2.75,6.25-6.25,6.25-6.25-2.75-6.25-6.25ZM275,106.25c0-3.5,2.75-6.25,6.25-6.25s6.25,2.75,6.25,6.25-2.75,6.25-6.25,6.25-6.25-2.75-6.25-6.25ZM287.5,18.75c0-3.5,2.75-6.25,6.25-6.25s6.25,2.75,6.25,6.25-2.75,6.25-6.25,6.25-6.25-2.75-6.25-6.25ZM287.5,31.25c0-3.5,2.75-6.25,6.25-6.25s6.25,2.75,6.25,6.25-2.75,6.25-6.25,6.25-6.25-2.75-6.25-6.25ZM287.5,43.75c0-3.5,2.75-6.25,6.25-6.25s6.25,2.75,6.25,6.25-2.75,6.25-6.25,6.25-6.25-2.75-6.25-6.25ZM287.5,56.25c0-3.5,2.75-6.25,6.25-6.25s6.25,2.75,6.25,6.25-2.75,6.25-6.25,6.25-6.25-2.75-6.25-6.25ZM287.5,68.75c0-3.5,2.75-6.25,6.25-6.25s6.25,2.75,6.25,6.25-2.75,6.25-6.25,6.25-6.25-2.75-6.25-6.25ZM287.5,81.25c0-3.5,2.75-6.25,6.25-6.25s6.25,2.75,6.25,6.25-2.75,6.25-6.25,6.25-6.25-2.75-6.25-6.25ZM287.5,93.75c0-3.5,2.75-6.25,6.25-6.25s6.25,2.75,6.25,6.25-2.75,6.25-6.25,6.25-6.25-2.75-6.25-6.25ZM287.5,106.25c0-3.5,2.75-6.25,6.25-6.25s6.25,2.75,6.25,6.25-2.75,6.25-6.25,6.25-6.25-2.75-6.25-6.25ZM300,43.75c0-3.5,2.75-6.25,6.25-6.25s6.25,2.75,6.25,6.25-2.75,6.25-6.25,6.25-6.25-2.75-6.25-6.25ZM300,56.25c0-3.5,2.75-6.25,6.25-6.25s6.25,2.75,6.25,6.25-2.75,6.25-6.25,6.25-6.25-2.75-6.25-6.25ZM300,68.75c0-3.5,2.75-6.25,6.25-6.25s6.25,2.75,6.25,6.25-2.75,6.25-6.25,6.25-6.25-2.75-6.25-6.25ZM300,81.25c0-3.5,2.75-6.25,6.25-6.25s6.25,2.75,6.25,6.25-2.75,6.25-6.25,6.25-6.25-2.75-6.25-6.25Z"/>
  <path class="cls-1" d="M325,6.25c0-3.5,2.75-6.25,6.25-6.25s6.25,2.75,6.25,6.25-2.75,6.25-6.25,6.25-6.25-2.75-6.25-6.25ZM325,18.75c0-3.5,2.75-6.25,6.25-6.25s6.25,2.75,6.25,6.25-2.75,6.25-6.25,6.25-6.25-2.75-6.25-6.25ZM325,31.25c0-3.5,2.75-6.25,6.25-6.25s6.25,2.75,6.25,6.25-2.75,6.25-6.25,6.25-6.25-2.75-6.25-6.25ZM325,43.75c0-3.5,2.75-6.25,6.25-6.25s6.25,2.75,6.25,6.25-2.75,6.25-6.25,6.25-6.25-2.75-6.25-6.25ZM325,56.25c0-3.5,2.75-6.25,6.25-6.25s6.25,2.75,6.25,6.25-2.75,6.25-6.25,6.25-6.25-2.75-6.25-6.25ZM325,68.75c0-3.5,2.75-6.25,6.25-6.25s6.25,2.75,6.25,6.25-2.75,6.25-6.25,6.25-6.25-2.75-6.25-6.25ZM325,81.25c0-3.5,2.75-6.25,6.25-6.25s6.25,2.75,6.25,6.25-2.75,6.25-6.25,6.25-6.25-2.75-6.25-6.25ZM325,93.75c0-3.5,2.75-6.25,6.25-6.25s6.25,2.75,6.25,6.25-2.75,6.25-6.25,6.25-6.25-2.75-6.25-6.25ZM325,106.25c0-3.5,2.75-6.25,6.25-6.25s6.25,2.75,6.25,6.25-2.75,6.25-6.25,6.25-6.25-2.75-6.25-6.25ZM325,118.75c0-3.5,2.75-6.25,6.25-6.25s6.25,2.75,6.25,6.25-2.75,6.25-6.25,6.25-6.25-2.75-6.25-6.25ZM337.5,6.25c0-3.5,2.75-6.25,6.25-6.25s6.25,2.75,6.25,6.25-2.75,6.25-6.25,6.25-6.25-2.75-6.25-6.25ZM337.5,18.75c0-3.5,2.75-6.25,6.25-6.25s6.25,2.75,6.25,6.25-2.75,6.25-6.25,6.25-6.25-2.75-6.25-6.25ZM337.5,31.25c0-3.5,2.75-6.25,6.25-6.25s6.25,2.75,6.25,6.25-2.75,6.25-6.25,6.25-6.25-2.75-6.25-6.25ZM337.5,43.75c0-3.5,2.75-6.25,6.25-6.25s6.25,2.75,6.25,6.25-2.75,6.25-6.25,6.25-6.25-2.75-6.25-6.25ZM337.5,56.25c0-3.5,2.75-6.25,6.25-6.25s6.25,2.75,6.25,6.25-2.75,6.25-6.25,6.25-6.25-2.75-6.25-6.25ZM337.5,68.75c0-3.5,2.75-6.25,6.25-6.25s6.25,2.75,6.25,6.25-2.75,6.25-6.25,6.25-6.25-2.75-6.25-6.25ZM337.5,81.25c0-3.5,2.75-6.25,6.25-6.25s6.25,2.75,6.25,6.25-2.75,6.25-6.25,6.25-6.25-2.75-6.25-6.25ZM337.5,93.75c0-3.5,2.75-6.25,6.25-6.25s6.25,2.75,6.25,6.25-2.75,6.25-6.25,6.25-6.25-2.75-6.25-6.25ZM337.5,106.25c0-3.5,2.75-6.25,6.25-6.25s6.25,2.75,6.25,6.25-2.75,6.25-6.25,6.25-6.25-2.75-6.25-6.25ZM337.5,118.75c0-3.5,2.75-6.25,6.25-6.25s6.25,2.75,6.25,6.25-2.75,6.25-6.25,6.25-6.25-2.75-6.25-6.25ZM350,6.25c0-3.5,2.75-6.25,6.25-6.25s6.25,2.75,6.25,6.25-2.75,6.25-6.25,6.25-6.25-2.75-6.25-6.25ZM350,18.75c0-3.5,2.75-6.25,6.25-6.25s6.25,2.75,6.25,6.25-2.75,6.25-6.25,6.25-6.25-2.75-6.25-6.25ZM350,31.25c0-3.5,2.75-6.25,6.25-6.25s6.25,2.75,6.25,6.25-2.75,6.25-6.25,6.25-6.25-2.75-6.25-6.25ZM350,43.75c0-3.5,2.75-6.25,6.25-6.25s6.25,2.75,6.25,6.25-2.75,6.25-6.25,6.25-6.25-2.75-6.25-6.25ZM350,56.25c0-3.5,2.75-6.25,6.25-6.25s6.25,2.75,6.25,6.25-2.75,6.25-6.25,6.25-6.25-2.75-6.25-6.25ZM350,68.75c0-3.5,2.75-6.25,6.25-6.25s6.25,2.75,6.25,6.25-2.75,6.25-6.25,6.25-6.25-2.75-6.25-6.25ZM350,81.25c0-3.5,2.75-6.25,6.25-6.25s6.25,2.75,6.25,6.25-2.75,6.25-6.25,6.25-6.25-2.75-6.25-6.25ZM350,93.75c0-3.5,2.75-6.25,6.25-6.25s6.25,2.75,6.25,6.25-2.75,6.25-6.25,6.25-6.25-2.75-6.25-6.25ZM350,106.25c0-3.5,2.75-6.25,6.25-6.25s6.25,2.75,6.25,6.25-2.75,6.25-6.25,6.25-6.25-2.75-6.25-6.25ZM350,118.75c0-3.5,2.75-6.25,6.25-6.25s6.25,2.75,6.25,6.25-2.75,6.25-6.25,6.25-6.25-2.75-6.25-6.25ZM362.5,6.25c0-3.5,2.75-6.25,6.25-6.25s6.25,2.75,6.25,6.25-2.75,6.25-6.25,6.25-6.25-2.75-6.25-6.25ZM362.5,18.75c0-3.5,2.75-6.25,6.25-6.25s6.25,2.75,6.25,6.25-2.75,6.25-6.25,6.25-6.25-2.75-6.25-6.25ZM362.5,31.25c0-3.5,2.75-6.25,6.25-6.25s6.25,2.75,6.25,6.25-2.75,6.25-6.25,6.25-6.25-2.75-6.25-6.25ZM362.5,43.75c0-3.5,2.75-6.25,6.25-6.25s6.25,2.75,6.25,6.25-2.75,6.25-6.25,6.25-6.25-2.75-6.25-6.25ZM362.5,56.25c0-3.5,2.75-6.25,6.25-6.25s6.25,2.75,6.25,6.25-2.75,6.25-6.25,6.25-6.25-2.75-6.25-6.25ZM362.5,68.75c0-3.5,2.75-6.25,6.25-6.25s6.25,2.75,6.25,6.25-2.75,6.25-6.25,6.25-6.25-2.75-6.25-6.25ZM362.5,81.25c0-3.5,2.75-6.25,6.25-6.25s6.25,2.75,6.25,6.25-2.75,6.25-6.25,6.25-6.25-2.75-6.25-6.25ZM362.5,93.75c0-3.5,2.75-6.25,6.25-6.25s6.25,2.75,6.25,6.25-2.75,6.25-6.25,6.25-6.25-2.75-6.25-6.25ZM362.5,106.25c0-3.5,2.75-6.25,6.25-6.25s6.25,2.75,6.25,6.25-2.75,6.25-6.25,6.25-6.25-2.75-6.25-6.25ZM362.5,118.75c0-3.5,2.75-6.25,6.25-6.25s6.25,2.75,6.25,6.25-2.75,6.25-6.25,6.25-6.25-2.75-6.25-6.25ZM375,6.25c0-3.5,2.75-6.25,6.25-6.25s6.25,2.75,6.25,6.25-2.75,6.25-6.25,6.25-6.25-2.75-6.25-6.25ZM375,18.75c0-3.5,2.75-6.25,6.25-6.25s6.25,2.75,6.25,6.25-2.75,6.25-6.25,6.25-6.25-2.75-6.25-6.25ZM375,68.75c0-3.5,2.75-6.25,6.25-6.25s6.25,2.75,6.25,6.25-2.75,6.25-6.25,6.25-6.25-2.75-6.25-6.25ZM375,81.25c0-3.5,2.75-6.25,6.25-6.25s6.25,2.75,6.25,6.25-2.75,6.25-6.25,6.25-6.25-2.75-6.25-6.25ZM387.5,6.25c0-3.5,2.75-6.25,6.25-6.25s6.25,2.75,6.25,6.25-2.75,6.25-6.25,6.25-6.25-2.75-6.25-6.25ZM387.5,18.75c0-3.5,2.75-6.25,6.25-6.25s6.25,2.75,6.25,6.25-2.75,6.25-6.25,6.25-6.25-2.75-6.25-6.25ZM387.5,68.75c0-3.5,2.75-6.25,6.25-6.25s6.25,2.75,6.25,6.25-2.75,6.25-6.25,6.25-6.25-2.75-6.25-6.25ZM387.5,81.25c0-3.5,2.75-6.25,6.25-6.25s6.25,2.75,6.25,6.25-2.75,6.25-6.25,6.25-6.25-2.75-6.25-6.25ZM387.5,93.75c0-3.5,2.75-6.25,6.25-6.25s6.25,2.75,6.25,6.25-2.75,6.25-6.25,6.25-6.25-2.75-6.25-6.25ZM400,6.25c0-3.5,2.75-6.25,6.25-6.25s6.25,2.75,6.25,6.25-2.75,6.25-6.25,6.25-6.25-2.75-6.25-6.25ZM400,18.75c0-3.5,2.75-6.25,6.25-6.25s6.25,2.75,6.25,6.25-2.75,6.25-6.25,6.25-6.25-2.75-6.25-6.25ZM400,68.75c0-3.5,2.75-6.25,6.25-6.25s6.25,2.75,6.25,6.25-2.75,6.25-6.25,6.25-6.25-2.75-6.25-6.25ZM400,81.25c0-3.5,2.75-6.25,6.25-6.25s6.25,2.75,6.25,6.25-2.75,6.25-6.25,6.25-6.25-2.75-6.25-6.25ZM400,93.75c0-3.5,2.75-6.25,6.25-6.25s6.25,2.75,6.25,6.25-2.75,6.25-6.25,6.25-6.25-2.75-6.25-6.25ZM400,106.25c0-3.5,2.75-6.25,6.25-6.25s6.25,2.75,6.25,6.25-2.75,6.25-6.25,6.25-6.25-2.75-6.25-6.25ZM412.5,6.25c0-3.5,2.75-6.25,6.25-6.25s6.25,2.75,6.25,6.25-2.75,6.25-6.25,6.25-6.25-2.75-6.25-6.25ZM412.5,18.75c0-3.5,2.75-6.25,6.25-6.25s6.25,2.75,6.25,6.25-2.75,6.25-6.25,6.25-6.25-2.75-6.25-6.25ZM412.5,31.25c0-3.5,2.75-6.25,6.25-6.25s6.25,2.75,6.25,6.25-2.75,6.25-6.25,6.25-6.25-2.75-6.25-6.25ZM412.5,43.75c0-3.5,2.75-6.25,6.25-6.25s6.25,2.75,6.25,6.25-2.75,6.25-6.25,6.25-6.25-2.75-6.25-6.25ZM412.5,56.25c0-3.5,2.75-6.25,6.25-6.25s6.25,2.75,6.25,6.25-2.75,6.25-6.25,6.25-6.25-2.75-6.25-6.25ZM412.5,68.75c0-3.5,2.75-6.25,6.25-6.25s6.25,2.75,6.25,6.25-2.75,6.25-6.25,6.25-6.25-2.75-6.25-6.25ZM412.5,81.25c0-3.5,2.75-6.25,6.25-6.25s6.25,2.75,6.25,6.25-2.75,6.25-6.25,6.25-6.25-2.75-6.25-6.25ZM412.5,93.75c0-3.5,2.75-6.25,6.25-6.25s6.25,2.75,6.25,6.25-2.75,6.25-6.25,6.25-6.25-2.75-6.25-6.25ZM412.5,106.25c0-3.5,2.75-6.25,6.25-6.25s6.25,2.75,6.25,6.25-2.75,6.25-6.25,6.25-6.25-2.75-6.25-6.25ZM412.5,118.75c0-3.5,2.75-6.25,6.25-6.25s6.25,2.75,6.25,6.25-2.75,6.25-6.25,6.25-6.25-2.75-6.25-6.25ZM425,6.25c0-3.5,2.75-6.25,6.25-6.25s6.25,2.75,6.25,6.25-2.75,6.25-6.25,6.25-6.25-2.75-6.25-6.25ZM425,18.75c0-3.5,2.75-6.25,6.25-6.25s6.25,2.75,6.25,6.25-2.75,6.25-6.25,6.25-6.25-2.75-6.25-6.25ZM425,31.25c0-3.5,2.75-6.25,6.25-6.25s6.25,2.75,6.25,6.25-2.75,6.25-6.25,6.25-6.25-2.75-6.25-6.25ZM425,43.75c0-3.5,2.75-6.25,6.25-6.25s6.25,2.75,6.25,6.25-2.75,6.25-6.25,6.25-6.25-2.75-6.25-6.25ZM425,56.25c0-3.5,2.75-6.25,6.25-6.25s6.25,2.75,6.25,6.25-2.75,6.25-6.25,6.25-6.25-2.75-6.25-6.25ZM425,68.75c0-3.5,2.75-6.25,6.25-6.25s6.25,2.75,6.25,6.25-2.75,6.25-6.25,6.25-6.25-2.75-6.25-6.25ZM425,81.25c0-3.5,2.75-6.25,6.25-6.25s6.25,2.75,6.25,6.25-2.75,6.25-6.25,6.25-6.25-2.75-6.25-6.25ZM425,93.75c0-3.5,2.75-6.25,6.25-6.25s6.25,2.75,6.25,6.25-2.75,6.25-6.25,6.25-6.25-2.75-6.25-6.25ZM425,106.25c0-3.5,2.75-6.25,6.25-6.25s6.25,2.75,6.25,6.25-2.75,6.25-6.25,6.25-6.25-2.75-6.25-6.25ZM425,118.75c0-3.5,2.75-6.25,6.25-6.25s6.25,2.75,6.25,6.25-2.75,6.25-6.25,6.25-6.25-2.75-6.25-6.25ZM437.5,18.75c0-3.5,2.75-6.25,6.25-6.25s6.25,2.75,6.25,6.25-2.75,6.25-6.25,6.25-6.25-2.75-6.25-6.25ZM437.5,31.25c0-3.5,2.75-6.25,6.25-6.25s6.25,2.75,6.25,6.25-2.75,6.25-6.25,6.25-6.25-2.75-6.25-6.25ZM437.5,43.75c0-3.5,2.75-6.25,6.25-6.25s6.25,2.75,6.25,6.25-2.75,6.25-6.25,6.25-6.25-2.75-6.25-6.25ZM437.5,56.25c0-3.5,2.75-6.25,6.25-6.25s6.25,2.75,6.25,6.25-2.75,6.25-6.25,6.25-6.25-2.75-6.25-6.25ZM437.5,68.75c0-3.5,2.75-6.25,6.25-6.25s6.25,2.75,6.25,6.25-2.75,6.25-6.25,6.25-6.25-2.75-6.25-6.25ZM437.5,93.75c0-3.5,2.75-6.25,6.25-6.25s6.25,2.75,6.25,6.25-2.75,6.25-6.25,6.25-6.25-2.75-6.25-6.25ZM437.5,106.25c0-3.5,2.75-6.25,6.25-6.25s6.25,2.75,6.25,6.25-2.75,6.25-6.25,6.25-6.25-2.75-6.25-6.25ZM437.5,118.75c0-3.5,2.75-6.25,6.25-6.25s6.25,2.75,6.25,6.25-2.75,6.25-6.25,6.25-6.25-2.75-6.25-6.25ZM450,18.75c0-3.5,2.75-6.25,6.25-6.25s6.25,2.75,6.25,6.25-2.75,6.25-6.25,6.25-6.25-2.75-6.25-6.25ZM450,31.25c0-3.5,2.75-6.25,6.25-6.25s6.25,2.75,6.25,6.25-2.75,6.25-6.25,6.25-6.25-2.75-6.25-6.25ZM450,43.75c0-3.5,2.75-6.25,6.25-6.25s6.25,2.75,6.25,6.25-2.75,6.25-6.25,6.25-6.25-2.75-6.25-6.25ZM450,56.25c0-3.5,2.75-6.25,6.25-6.25s6.25,2.75,6.25,6.25-2.75,6.25-6.25,6.25-6.25-2.75-6.25-6.25ZM450,106.25c0-3.5,2.75-6.25,6.25-6.25s6.25,2.75,6.25,6.25-2.75,6.25-6.25,6.25-6.25-2.75-6.25-6.25ZM450,118.75c0-3.5,2.75-6.25,6.25-6.25s6.25,2.75,6.25,6.25-2.75,6.25-6.25,6.25-6.25-2.75-6.25-6.25ZM462.5,118.75c0-3.5,2.75-6.25,6.25-6.25s6.25,2.75,6.25,6.25-2.75,6.25-6.25,6.25-6.25-2.75-6.25-6.25Z"/>
  <path class="cls-1" d="M475,6.25c0-3.5,2.75-6.25,6.25-6.25s6.25,2.75,6.25,6.25-2.75,6.25-6.25,6.25-6.25-2.75-6.25-6.25ZM475,18.75c0-3.5,2.75-6.25,6.25-6.25s6.25,2.75,6.25,6.25-2.75,6.25-6.25,6.25-6.25-2.75-6.25-6.25ZM475,31.25c0-3.5,2.75-6.25,6.25-6.25s6.25,2.75,6.25,6.25-2.75,6.25-6.25,6.25-6.25-2.75-6.25-6.25ZM475,43.75c0-3.5,2.75-6.25,6.25-6.25s6.25,2.75,6.25,6.25-2.75,6.25-6.25,6.25-6.25-2.75-6.25-6.25ZM475,56.25c0-3.5,2.75-6.25,6.25-6.25s6.25,2.75,6.25,6.25-2.75,6.25-6.25,6.25-6.25-2.75-6.25-6.25ZM475,68.75c0-3.5,2.75-6.25,6.25-6.25s6.25,2.75,6.25,6.25-2.75,6.25-6.25,6.25-6.25-2.75-6.25-6.25ZM475,81.25c0-3.5,2.75-6.25,6.25-6.25s6.25,2.75,6.25,6.25-2.75,6.25-6.25,6.25-6.25-2.75-6.25-6.25ZM475,93.75c0-3.5,2.75-6.25,6.25-6.25s6.25,2.75,6.25,6.25-2.75,6.25-6.25,6.25-6.25-2.75-6.25-6.25ZM475,106.25c0-3.5,2.75-6.25,6.25-6.25s6.25,2.75,6.25,6.25-2.75,6.25-6.25,6.25-6.25-2.75-6.25-6.25ZM475,118.75c0-3.5,2.75-6.25,6.25-6.25s6.25,2.75,6.25,6.25-2.75,6.25-6.25,6.25-6.25-2.75-6.25-6.25ZM487.5,6.25c0-3.5,2.75-6.25,6.25-6.25s6.25,2.75,6.25,6.25-2.75,6.25-6.25,6.25-6.25-2.75-6.25-6.25ZM487.5,18.75c0-3.5,2.75-6.25,6.25-6.25s6.25,2.75,6.25,6.25-2.75,6.25-6.25,6.25-6.25-2.75-6.25-6.25ZM487.5,31.25c0-3.5,2.75-6.25,6.25-6.25s6.25,2.75,6.25,6.25-2.75,6.25-6.25,6.25-6.25-2.75-6.25-6.25ZM487.5,43.75c0-3.5,2.75-6.25,6.25-6.25s6.25,2.75,6.25,6.25-2.75,6.25-6.25,6.25-6.25-2.75-6.25-6.25ZM487.5,56.25c0-3.5,2.75-6.25,6.25-6.25s6.25,2.75,6.25,6.25-2.75,6.25-6.25,6.25-6.25-2.75-6.25-6.25ZM487.5,68.75c0-3.5,2.75-6.25,6.25-6.25s6.25,2.75,6.25,6.25-2.75,6.25-6.25,6.25-6.25-2.75-6.25-6.25ZM487.5,81.25c0-3.5,2.75-6.25,6.25-6.25s6.25,2.75,6.25,6.25-2.75,6.25-6.25,6.25-6.25-2.75-6.25-6.25ZM487.5,93.75c0-3.5,2.75-6.25,6.25-6.25s6.25,2.75,6.25,6.25-2.75,6.25-6.25,6.25-6.25-2.75-6.25-6.25ZM487.5,106.25c0-3.5,2.75-6.25,6.25-6.25s6.25,2.75,6.25,6.25-2.75,6.25-6.25,6.25-6.25-2.75-6.25-6.25ZM487.5,118.75c0-3.5,2.75-6.25,6.25-6.25s6.25,2.75,6.25,6.25-2.75,6.25-6.25,6.25-6.25-2.75-6.25-6.25ZM500,6.25c0-3.5,2.75-6.25,6.25-6.25s6.25,2.75,6.25,6.25-2.75,6.25-6.25,6.25-6.25-2.75-6.25-6.25ZM500,18.75c0-3.5,2.75-6.25,6.25-6.25s6.25,2.75,6.25,6.25-2.75,6.25-6.25,6.25-6.25-2.75-6.25-6.25ZM500,31.25c0-3.5,2.75-6.25,6.25-6.25s6.25,2.75,6.25,6.25-2.75,6.25-6.25,6.25-6.25-2.75-6.25-6.25ZM500,43.75c0-3.5,2.75-6.25,6.25-6.25s6.25,2.75,6.25,6.25-2.75,6.25-6.25,6.25-6.25-2.75-6.25-6.25ZM500,56.25c0-3.5,2.75-6.25,6.25-6.25s6.25,2.75,6.25,6.25-2.75,6.25-6.25,6.25-6.25-2.75-6.25-6.25ZM500,68.75c0-3.5,2.75-6.25,6.25-6.25s6.25,2.75,6.25,6.25-2.75,6.25-6.25,6.25-6.25-2.75-6.25-6.25ZM500,81.25c0-3.5,2.75-6.25,6.25-6.25s6.25,2.75,6.25,6.25-2.75,6.25-6.25,6.25-6.25-2.75-6.25-6.25ZM500,93.75c0-3.5,2.75-6.25,6.25-6.25s6.25,2.75,6.25,6.25-2.75,6.25-6.25,6.25-6.25-2.75-6.25-6.25ZM500,106.25c0-3.5,2.75-6.25,6.25-6.25s6.25,2.75,6.25,6.25-2.75,6.25-6.25,6.25-6.25-2.75-6.25-6.25ZM500,118.75c0-3.5,2.75-6.25,6.25-6.25s6.25,2.75,6.25,6.25-2.75,6.25-6.25,6.25-6.25-2.75-6.25-6.25ZM512.5,6.25c0-3.5,2.75-6.25,6.25-6.25s6.25,2.75,6.25,6.25-2.75,6.25-6.25,6.25-6.25-2.75-6.25-6.25ZM512.5,18.75c0-3.5,2.75-6.25,6.25-6.25s6.25,2.75,6.25,6.25-2.75,6.25-6.25,6.25-6.25-2.75-6.25-6.25ZM512.5,31.25c0-3.5,2.75-6.25,6.25-6.25s6.25,2.75,6.25,6.25-2.75,6.25-6.25,6.25-6.25-2.75-6.25-6.25ZM512.5,43.75c0-3.5,2.75-6.25,6.25-6.25s6.25,2.75,6.25,6.25-2.75,6.25-6.25,6.25-6.25-2.75-6.25-6.25ZM512.5,56.25c0-3.5,2.75-6.25,6.25-6.25s6.25,2.75,6.25,6.25-2.75,6.25-6.25,6.25-6.25-2.75-6.25-6.25ZM512.5,68.75c0-3.5,2.75-6.25,6.25-6.25s6.25,2.75,6.25,6.25-2.75,6.25-6.25,6.25-6.25-2.75-6.25-6.25ZM512.5,81.25c0-3.5,2.75-6.25,6.25-6.25s6.25,2.75,6.25,6.25-2.75,6.25-6.25,6.25-6.25-2.75-6.25-6.25ZM512.5,93.75c0-3.5,2.75-6.25,6.25-6.25s6.25,2.75,6.25,6.25-2.75,6.25-6.25,6.25-6.25-2.75-6.25-6.25ZM512.5,106.25c0-3.5,2.75-6.25,6.25-6.25s6.25,2.75,6.25,6.25-2.75,6.25-6.25,6.25-6.25-2.75-6.25-6.25ZM512.5,118.75c0-3.5,2.75-6.25,6.25-6.25s6.25,2.75,6.25,6.25-2.75,6.25-6.25,6.25-6.25-2.75-6.25-6.25ZM525,6.25c0-3.5,2.75-6.25,6.25-6.25s6.25,2.75,6.25,6.25-2.75,6.25-6.25,6.25-6.25-2.75-6.25-6.25ZM525,18.75c0-3.5,2.75-6.25,6.25-6.25s6.25,2.75,6.25,6.25-2.75,6.25-6.25,6.25-6.25-2.75-6.25-6.25ZM525,68.75c0-3.5,2.75-6.25,6.25-6.25s6.25,2.75,6.25,6.25-2.75,6.25-6.25,6.25-6.25-2.75-6.25-6.25ZM525,81.25c0-3.5,2.75-6.25,6.25-6.25s6.25,2.75,6.25,6.25-2.75,6.25-6.25,6.25-6.25-2.75-6.25-6.25ZM537.5,6.25c0-3.5,2.75-6.25,6.25-6.25s6.25,2.75,6.25,6.25-2.75,6.25-6.25,6.25-6.25-2.75-6.25-6.25ZM537.5,18.75c0-3.5,2.75-6.25,6.25-6.25s6.25,2.75,6.25,6.25-2.75,6.25-6.25,6.25-6.25-2.75-6.25-6.25ZM537.5,68.75c0-3.5,2.75-6.25,6.25-6.25s6.25,2.75,6.25,6.25-2.75,6.25-6.25,6.25-6.25-2.75-6.25-6.25ZM537.5,81.25c0-3.5,2.75-6.25,6.25-6.25s6.25,2.75,6.25,6.25-2.75,6.25-6.25,6.25-6.25-2.75-6.25-6.25ZM537.5,93.75c0-3.5,2.75-6.25,6.25-6.25s6.25,2.75,6.25,6.25-2.75,6.25-6.25,6.25-6.25-2.75-6.25-6.25ZM550,6.25c0-3.5,2.75-6.25,6.25-6.25s6.25,2.75,6.25,6.25-2.75,6.25-6.25,6.25-6.25-2.75-6.25-6.25ZM550,18.75c0-3.5,2.75-6.25,6.25-6.25s6.25,2.75,6.25,6.25-2.75,6.25-6.25,6.25-6.25-2.75-6.25-6.25ZM550,68.75c0-3.5,2.75-6.25,6.25-6.25s6.25,2.75,6.25,6.25-2.75,6.25-6.25,6.25-6.25-2.75-6.25-6.25ZM550,81.25c0-3.5,2.75-6.25,6.25-6.25s6.25,2.75,6.25,6.25-2.75,6.25-6.25,6.25-6.25-2.75-6.25-6.25ZM550,93.75c0-3.5,2.75-6.25,6.25-6.25s6.25,2.75,6.25,6.25-2.75,6.25-6.25,6.25-6.25-2.75-6.25-6.25ZM550,106.25c0-3.5,2.75-6.25,6.25-6.25s6.25,2.75,6.25,6.25-2.75,6.25-6.25,6.25-6.25-2.75-6.25-6.25ZM562.5,6.25c0-3.5,2.75-6.25,6.25-6.25s6.25,2.75,6.25,6.25-2.75,6.25-6.25,6.25-6.25-2.75-6.25-6.25ZM562.5,18.75c0-3.5,2.75-6.25,6.25-6.25s6.25,2.75,6.25,6.25-2.75,6.25-6.25,6.25-6.25-2.75-6.25-6.25ZM562.5,31.25c0-3.5,2.75-6.25,6.25-6.25s6.25,2.75,6.25,6.25-2.75,6.25-6.25,6.25-6.25-2.75-6.25-6.25ZM562.5,43.75c0-3.5,2.75-6.25,6.25-6.25s6.25,2.75,6.25,6.25-2.75,6.25-6.25,6.25-6.25-2.75-6.25-6.25ZM562.5,56.25c0-3.5,2.75-6.25,6.25-6.25s6.25,2.75,6.25,6.25-2.75,6.25-6.25,6.25-6.25-2.75-6.25-6.25ZM562.5,68.75c0-3.5,2.75-6.25,6.25-6.25s6.25,2.75,6.25,6.25-2.75,6.25-6.25,6.25-6.25-2.75-6.25-6.25ZM562.5,81.25c0-3.5,2.75-6.25,6.25-6.25s6.25,2.75,6.25,6.25-2.75,6.25-6.25,6.25-6.25-2.75-6.25-6.25ZM562.5,93.75c0-3.5,2.75-6.25,6.25-6.25s6.25,2.75,6.25,6.25-2.75,6.25-6.25,6.25-6.25-2.75-6.25-6.25ZM562.5,106.25c0-3.5,2.75-6.25,6.25-6.25s6.25,2.75,6.25,6.25-2.75,6.25-6.25,6.25-6.25-2.75-6.25-6.25ZM562.5,118.75c0-3.5,2.75-6.25,6.25-6.25s6.25,2.75,6.25,6.25-2.75,6.25-6.25,6.25-6.25-2.75-6.25-6.25ZM575,6.25c0-3.5,2.75-6.25,6.25-6.25s6.25,2.75,6.25,6.25-2.75,6.25-6.25,6.25-6.25-2.75-6.25-6.25ZM575,18.75c0-3.5,2.75-6.25,6.25-6.25s6.25,2.75,6.25,6.25-2.75,6.25-6.25,6.25-6.25-2.75-6.25-6.25ZM575,31.25c0-3.5,2.75-6.25,6.25-6.25s6.25,2.75,6.25,6.25-2.75,6.25-6.25,6.25-6.25-2.75-6.25-6.25ZM575,43.75c0-3.5,2.75-6.25,6.25-6.25s6.25,2.75,6.25,6.25-2.75,6.25-6.25,6.25-6.25-2.75-6.25-6.25ZM575,56.25c0-3.5,2.75-6.25,6.25-6.25s6.25,2.75,6.25,6.25-2.75,6.25-6.25,6.25-6.25-2.75-6.25-6.25ZM575,68.75c0-3.5,2.75-6.25,6.25-6.25s6.25,2.75,6.25,6.25-2.75,6.25-6.25,6.25-6.25-2.75-6.25-6.25ZM575,81.25c0-3.5,2.75-6.25,6.25-6.25s6.25,2.75,6.25,6.25-2.75,6.25-6.25,6.25-6.25-2.75-6.25-6.25ZM575,93.75c0-3.5,2.75-6.25,6.25-6.25s6.25,2.75,6.25,6.25-2.75,6.25-6.25,6.25-6.25-2.75-6.25-6.25ZM575,106.25c0-3.5,2.75-6.25,6.25-6.25s6.25,2.75,6.25,6.25-2.75,6.25-6.25,6.25-6.25-2.75-6.25-6.25ZM575,118.75c0-3.5,2.75-6.25,6.25-6.25s6.25,2.75,6.25,6.25-2.75,6.25-6.25,6.25-6.25-2.75-6.25-6.25ZM587.5,18.75c0-3.5,2.75-6.25,6.25-6.25s6.25,2.75,6.25,6.25-2.75,6.25-6.25,6.25-6.25-2.75-6.25-6.25ZM587.5,31.25c0-3.5,2.75-6.25,6.25-6.25s6.25,2.75,6.25,6.25-2.75,6.25-6.25,6.25-6.25-2.75-6.25-6.25ZM587.5,43.75c0-3.5,2.75-6.25,6.25-6.25s6.25,2.75,6.25,6.25-2.75,6.25-6.25,6.25-6.25-2.75-6.25-6.25ZM587.5,56.25c0-3.5,2.75-6.25,6.25-6.25s6.25,2.75,6.25,6.25-2.75,6.25-6.25,6.25-6.25-2.75-6.25-6.25ZM587.5,68.75c0-3.5,2.75-6.25,6.25-6.25s6.25,2.75,6.25,6.25-2.75,6.25-6.25,6.25-6.25-2.75-6.25-6.25ZM587.5,93.75c0-3.5,2.75-6.25,6.25-6.25s6.25,2.75,6.25,6.25-2.75,6.25-6.25,6.25-6.25-2.75-6.25-6.25ZM587.5,106.25c0-3.5,2.75-6.25,6.25-6.25s6.25,2.75,6.25,6.25-2.75,6.25-6.25,6.25-6.25-2.75-6.25-6.25ZM587.5,118.75c0-3.5,2.75-6.25,6.25-6.25s6.25,2.75,6.25,6.25-2.75,6.25-6.25,6.25-6.25-2.75-6.25-6.25ZM600,18.75c0-3.5,2.75-6.25,6.25-6.25s6.25,2.75,6.25,6.25-2.75,6.25-6.25,6.25-6.25-2.75-6.25-6.25ZM600,31.25c0-3.5,2.75-6.25,6.25-6.25s6.25,2.75,6.25,6.25-2.75,6.25-6.25,6.25-6.25-2.75-6.25-6.25ZM600,43.75c0-3.5,2.75-6.25,6.25-6.25s6.25,2.75,6.25,6.25-2.75,6.25-6.25,6.25-6.25-2.75-6.25-6.25ZM600,56.25c0-3.5,2.75-6.25,6.25-6.25s6.25,2.75,6.25,6.25-2.75,6.25-6.25,6.25-6.25-2.75-6.25-6.25ZM600,106.25c0-3.5,2.75-6.25,6.25-6.25s6.25,2.75,6.25,6.25-2.75,6.25-6.25,6.25-6.25-2.75-6.25-6.25ZM600,118.75c0-3.5,2.75-6.25,6.25-6.25s6.25,2.75,6.25,6.25-2.75,6.25-6.25,6.25-6.25-2.75-6.25-6.25ZM612.5,118.75c0-3.5,2.75-6.25,6.25-6.25s6.25,2.75,6.25,6.25-2.75,6.25-6.25,6.25-6.25-2.75-6.25-6.25Z"/>
  <path class="cls-1" d="M625,93.75c0-3.5,2.75-6.25,6.25-6.25s6.25,2.75,6.25,6.25-2.75,6.25-6.25,6.25-6.25-2.75-6.25-6.25ZM625,106.25c0-3.5,2.75-6.25,6.25-6.25s6.25,2.75,6.25,6.25-2.75,6.25-6.25,6.25-6.25-2.75-6.25-6.25ZM625,118.75c0-3.5,2.75-6.25,6.25-6.25s6.25,2.75,6.25,6.25-2.75,6.25-6.25,6.25-6.25-2.75-6.25-6.25ZM637.5,56.25c0-3.5,2.75-6.25,6.25-6.25s6.25,2.75,6.25,6.25-2.75,6.25-6.25,6.25-6.25-2.75-6.25-6.25ZM637.5,68.75c0-3.5,2.75-6.25,6.25-6.25s6.25,2.75,6.25,6.25-2.75,6.25-6.25,6.25-6.25-2.75-6.25-6.25ZM637.5,81.25c0-3.5,2.75-6.25,6.25-6.25s6.25,2.75,6.25,6.25-2.75,6.25-6.25,6.25-6.25-2.75-6.25-6.25ZM637.5,93.75c0-3.5,2.75-6.25,6.25-6.25s6.25,2.75,6.25,6.25-2.75,6.25-6.25,6.25-6.25-2.75-6.25-6.25ZM637.5,106.25c0-3.5,2.75-6.25,6.25-6.25s6.25,2.75,6.25,6.25-2.75,6.25-6.25,6.25-6.25-2.75-6.25-6.25ZM637.5,118.75c0-3.5,2.75-6.25,6.25-6.25s6.25,2.75,6.25,6.25-2.75,6.25-6.25,6.25-6.25-2.75-6.25-6.25ZM650,31.25c0-3.5,2.75-6.25,6.25-6.25s6.25,2.75,6.25,6.25-2.75,6.25-6.25,6.25-6.25-2.75-6.25-6.25ZM650,43.75c0-3.5,2.75-6.25,6.25-6.25s6.25,2.75,6.25,6.25-2.75,6.25-6.25,6.25-6.25-2.75-6.25-6.25ZM650,56.25c0-3.5,2.75-6.25,6.25-6.25s6.25,2.75,6.25,6.25-2.75,6.25-6.25,6.25-6.25-2.75-6.25-6.25ZM650,68.75c0-3.5,2.75-6.25,6.25-6.25s6.25,2.75,6.25,6.25-2.75,6.25-6.25,6.25-6.25-2.75-6.25-6.25ZM650,81.25c0-3.5,2.75-6.25,6.25-6.25s6.25,2.75,6.25,6.25-2.75,6.25-6.25,6.25-6.25-2.75-6.25-6.25ZM650,93.75c0-3.5,2.75-6.25,6.25-6.25s6.25,2.75,6.25,6.25-2.75,6.25-6.25,6.25-6.25-2.75-6.25-6.25ZM650,106.25c0-3.5,2.75-6.25,6.25-6.25s6.25,2.75,6.25,6.25-2.75,6.25-6.25,6.25-6.25-2.75-6.25-6.25ZM650,118.75c0-3.5,2.75-6.25,6.25-6.25s6.25,2.75,6.25,6.25-2.75,6.25-6.25,6.25-6.25-2.75-6.25-6.25ZM662.5,6.25c0-3.5,2.75-6.25,6.25-6.25s6.25,2.75,6.25,6.25-2.75,6.25-6.25,6.25-6.25-2.75-6.25-6.25ZM662.5,18.75c0-3.5,2.75-6.25,6.25-6.25s6.25,2.75,6.25,6.25-2.75,6.25-6.25,6.25-6.25-2.75-6.25-6.25ZM662.5,31.25c0-3.5,2.75-6.25,6.25-6.25s6.25,2.75,6.25,6.25-2.75,6.25-6.25,6.25-6.25-2.75-6.25-6.25ZM662.5,43.75c0-3.5,2.75-6.25,6.25-6.25s6.25,2.75,6.25,6.25-2.75,6.25-6.25,6.25-6.25-2.75-6.25-6.25ZM662.5,56.25c0-3.5,2.75-6.25,6.25-6.25s6.25,2.75,6.25,6.25-2.75,6.25-6.25,6.25-6.25-2.75-6.25-6.25ZM662.5,68.75c0-3.5,2.75-6.25,6.25-6.25s6.25,2.75,6.25,6.25-2.75,6.25-6.25,6.25-6.25-2.75-6.25-6.25ZM662.5,81.25c0-3.5,2.75-6.25,6.25-6.25s6.25,2.75,6.25,6.25-2.75,6.25-6.25,6.25-6.25-2.75-6.25-6.25ZM662.5,93.75c0-3.5,2.75-6.25,6.25-6.25s6.25,2.75,6.25,6.25-2.75,6.25-6.25,6.25-6.25-2.75-6.25-6.25ZM675,6.25c0-3.5,2.75-6.25,6.25-6.25s6.25,2.75,6.25,6.25-2.75,6.25-6.25,6.25-6.25-2.75-6.25-6.25ZM675,18.75c0-3.5,2.75-6.25,6.25-6.25s6.25,2.75,6.25,6.25-2.75,6.25-6.25,6.25-6.25-2.75-6.25-6.25ZM675,31.25c0-3.5,2.75-6.25,6.25-6.25s6.25,2.75,6.25,6.25-2.75,6.25-6.25,6.25-6.25-2.75-6.25-6.25ZM675,43.75c0-3.5,2.75-6.25,6.25-6.25s6.25,2.75,6.25,6.25-2.75,6.25-6.25,6.25-6.25-2.75-6.25-6.25ZM675,81.25c0-3.5,2.75-6.25,6.25-6.25s6.25,2.75,6.25,6.25-2.75,6.25-6.25,6.25-6.25-2.75-6.25-6.25ZM675,93.75c0-3.5,2.75-6.25,6.25-6.25s6.25,2.75,6.25,6.25-2.75,6.25-6.25,6.25-6.25-2.75-6.25-6.25ZM687.5,6.25c0-3.5,2.75-6.25,6.25-6.25s6.25,2.75,6.25,6.25-2.75,6.25-6.25,6.25-6.25-2.75-6.25-6.25ZM687.5,18.75c0-3.5,2.75-6.25,6.25-6.25s6.25,2.75,6.25,6.25-2.75,6.25-6.25,6.25-6.25-2.75-6.25-6.25ZM687.5,31.25c0-3.5,2.75-6.25,6.25-6.25s6.25,2.75,6.25,6.25-2.75,6.25-6.25,6.25-6.25-2.75-6.25-6.25ZM687.5,43.75c0-3.5,2.75-6.25,6.25-6.25s6.25,2.75,6.25,6.25-2.75,6.25-6.25,6.25-6.25-2.75-6.25-6.25ZM687.5,81.25c0-3.5,2.75-6.25,6.25-6.25s6.25,2.75,6.25,6.25-2.75,6.25-6.25,6.25-6.25-2.75-6.25-6.25ZM687.5,93.75c0-3.5,2.75-6.25,6.25-6.25s6.25,2.75,6.25,6.25-2.75,6.25-6.25,6.25-6.25-2.75-6.25-6.25ZM700,6.25c0-3.5,2.75-6.25,6.25-6.25s6.25,2.75,6.25,6.25-2.75,6.25-6.25,6.25-6.25-2.75-6.25-6.25ZM700,18.75c0-3.5,2.75-6.25,6.25-6.25s6.25,2.75,6.25,6.25-2.75,6.25-6.25,6.25-6.25-2.75-6.25-6.25ZM700,31.25c0-3.5,2.75-6.25,6.25-6.25s6.25,2.75,6.25,6.25-2.75,6.25-6.25,6.25-6.25-2.75-6.25-6.25ZM700,43.75c0-3.5,2.75-6.25,6.25-6.25s6.25,2.75,6.25,6.25-2.75,6.25-6.25,6.25-6.25-2.75-6.25-6.25ZM700,56.25c0-3.5,2.75-6.25,6.25-6.25s6.25,2.75,6.25,6.25-2.75,6.25-6.25,6.25-6.25-2.75-6.25-6.25ZM700,68.75c0-3.5,2.75-6.25,6.25-6.25s6.25,2.75,6.25,6.25-2.75,6.25-6.25,6.25-6.25-2.75-6.25-6.25ZM700,81.25c0-3.5,2.75-6.25,6.25-6.25s6.25,2.75,6.25,6.25-2.75,6.25-6.25,6.25-6.25-2.75-6.25-6.25ZM700,93.75c0-3.5,2.75-6.25,6.25-6.25s6.25,2.75,6.25,6.25-2.75,6.25-6.25,6.25-6.25-2.75-6.25-6.25ZM712.5,6.25c0-3.5,2.75-6.25,6.25-6.25s6.25,2.75,6.25,6.25-2.75,6.25-6.25,6.25-6.25-2.75-6.25-6.25ZM712.5,18.75c0-3.5,2.75-6.25,6.25-6.25s6.25,2.75,6.25,6.25-2.75,6.25-6.25,6.25-6.25-2.75-6.25-6.25ZM712.5,31.25c0-3.5,2.75-6.25,6.25-6.25s6.25,2.75,6.25,6.25-2.75,6.25-6.25,6.25-6.25-2.75-6.25-6.25ZM712.5,43.75c0-3.5,2.75-6.25,6.25-6.25s6.25,2.75,6.25,6.25-2.75,6.25-6.25,6.25-6.25-2.75-6.25-6.25ZM712.5,56.25c0-3.5,2.75-6.25,6.25-6.25s6.25,2.75,6.25,6.25-2.75,6.25-6.25,6.25-6.25-2.75-6.25-6.25ZM712.5,68.75c0-3.5,2.75-6.25,6.25-6.25s6.25,2.75,6.25,6.25-2.75,6.25-6.25,6.25-6.25-2.75-6.25-6.25ZM712.5,81.25c0-3.5,2.75-6.25,6.25-6.25s6.25,2.75,6.25,6.25-2.75,6.25-6.25,6.25-6.25-2.75-6.25-6.25ZM712.5,93.75c0-3.5,2.75-6.25,6.25-6.25s6.25,2.75,6.25,6.25-2.75,6.25-6.25,6.25-6.25-2.75-6.25-6.25ZM712.5,106.25c0-3.5,2.75-6.25,6.25-6.25s6.25,2.75,6.25,6.25-2.75,6.25-6.25,6.25-6.25-2.75-6.25-6.25ZM712.5,118.75c0-3.5,2.75-6.25,6.25-6.25s6.25,2.75,6.25,6.25-2.75,6.25-6.25,6.25-6.25-2.75-6.25-6.25ZM725,31.25c0-3.5,2.75-6.25,6.25-6.25s6.25,2.75,6.25,6.25-2.75,6.25-6.25,6.25-6.25-2.75-6.25-6.25ZM725,43.75c0-3.5,2.75-6.25,6.25-6.25s6.25,2.75,6.25,6.25-2.75,6.25-6.25,6.25-6.25-2.75-6.25-6.25ZM725,56.25c0-3.5,2.75-6.25,6.25-6.25s6.25,2.75,6.25,6.25-2.75,6.25-6.25,6.25-6.25-2.75-6.25-6.25ZM725,68.75c0-3.5,2.75-6.25,6.25-6.25s6.25,2.75,6.25,6.25-2.75,6.25-6.25,6.25-6.25-2.75-6.25-6.25ZM725,81.25c0-3.5,2.75-6.25,6.25-6.25s6.25,2.75,6.25,6.25-2.75,6.25-6.25,6.25-6.25-2.75-6.25-6.25ZM725,93.75c0-3.5,2.75-6.25,6.25-6.25s6.25,2.75,6.25,6.25-2.75,6.25-6.25,6.25-6.25-2.75-6.25-6.25ZM725,106.25c0-3.5,2.75-6.25,6.25-6.25s6.25,2.75,6.25,6.25-2.75,6.25-6.25,6.25-6.25-2.75-6.25-6.25ZM725,118.75c0-3.5,2.75-6.25,6.25-6.25s6.25,2.75,6.25,6.25-2.75,6.25-6.25,6.25-6.25-2.75-6.25-6.25ZM737.5,56.25c0-3.5,2.75-6.25,6.25-6.25s6.25,2.75,6.25,6.25-2.75,6.25-6.25,6.25-6.25-2.75-6.25-6.25ZM737.5,68.75c0-3.5,2.75-6.25,6.25-6.25s6.25,2.75,6.25,6.25-2.75,6.25-6.25,6.25-6.25-2.75-6.25-6.25ZM737.5,81.25c0-3.5,2.75-6.25,6.25-6.25s6.25,2.75,6.25,6.25-2.75,6.25-6.25,6.25-6.25-2.75-6.25-6.25ZM737.5,93.75c0-3.5,2.75-6.25,6.25-6.25s6.25,2.75,6.25,6.25-2.75,6.25-6.25,6.25-6.25-2.75-6.25-6.25ZM737.5,106.25c0-3.5,2.75-6.25,6.25-6.25s6.25,2.75,6.25,6.25-2.75,6.25-6.25,6.25-6.25-2.75-6.25-6.25ZM737.5,118.75c0-3.5,2.75-6.25,6.25-6.25s6.25,2.75,6.25,6.25-2.75,6.25-6.25,6.25-6.25-2.75-6.25-6.25ZM750,93.75c0-3.5,2.75-6.25,6.25-6.25s6.25,2.75,6.25,6.25-2.75,6.25-6.25,6.25-6.25-2.75-6.25-6.25ZM750,106.25c0-3.5,2.75-6.25,6.25-6.25s6.25,2.75,6.25,6.25-2.75,6.25-6.25,6.25-6.25-2.75-6.25-6.25ZM750,118.75c0-3.5,2.75-6.25,6.25-6.25s6.25,2.75,6.25,6.25-2.75,6.25-6.25,6.25-6.25-2.75-6.25-6.25Z"/>
  <path class="cls-1" d="M775,6.25c0-3.5,2.75-6.25,6.25-6.25s6.25,2.75,6.25,6.25-2.75,6.25-6.25,6.25-6.25-2.75-6.25-6.25ZM775,18.75c0-3.5,2.75-6.25,6.25-6.25s6.25,2.75,6.25,6.25-2.75,6.25-6.25,6.25-6.25-2.75-6.25-6.25ZM775,31.25c0-3.5,2.75-6.25,6.25-6.25s6.25,2.75,6.25,6.25-2.75,6.25-6.25,6.25-6.25-2.75-6.25-6.25ZM775,43.75c0-3.5,2.75-6.25,6.25-6.25s6.25,2.75,6.25,6.25-2.75,6.25-6.25,6.25-6.25-2.75-6.25-6.25ZM775,56.25c0-3.5,2.75-6.25,6.25-6.25s6.25,2.75,6.25,6.25-2.75,6.25-6.25,6.25-6.25-2.75-6.25-6.25ZM775,68.75c0-3.5,2.75-6.25,6.25-6.25s6.25,2.75,6.25,6.25-2.75,6.25-6.25,6.25-6.25-2.75-6.25-6.25ZM775,81.25c0-3.5,2.75-6.25,6.25-6.25s6.25,2.75,6.25,6.25-2.75,6.25-6.25,6.25-6.25-2.75-6.25-6.25ZM775,93.75c0-3.5,2.75-6.25,6.25-6.25s6.25,2.75,6.25,6.25-2.75,6.25-6.25,6.25-6.25-2.75-6.25-6.25ZM775,106.25c0-3.5,2.75-6.25,6.25-6.25s6.25,2.75,6.25,6.25-2.75,6.25-6.25,6.25-6.25-2.75-6.25-6.25ZM775,118.75c0-3.5,2.75-6.25,6.25-6.25s6.25,2.75,6.25,6.25-2.75,6.25-6.25,6.25-6.25-2.75-6.25-6.25ZM787.5,6.25c0-3.5,2.75-6.25,6.25-6.25s6.25,2.75,6.25,6.25-2.75,6.25-6.25,6.25-6.25-2.75-6.25-6.25ZM787.5,18.75c0-3.5,2.75-6.25,6.25-6.25s6.25,2.75,6.25,6.25-2.75,6.25-6.25,6.25-6.25-2.75-6.25-6.25ZM787.5,31.25c0-3.5,2.75-6.25,6.25-6.25s6.25,2.75,6.25,6.25-2.75,6.25-6.25,6.25-6.25-2.75-6.25-6.25ZM787.5,43.75c0-3.5,2.75-6.25,6.25-6.25s6.25,2.75,6.25,6.25-2.75,6.25-6.25,6.25-6.25-2.75-6.25-6.25ZM787.5,56.25c0-3.5,2.75-6.25,6.25-6.25s6.25,2.75,6.25,6.25-2.75,6.25-6.25,6.25-6.25-2.75-6.25-6.25ZM787.5,68.75c0-3.5,2.75-6.25,6.25-6.25s6.25,2.75,6.25,6.25-2.75,6.25-6.25,6.25-6.25-2.75-6.25-6.25ZM787.5,81.25c0-3.5,2.75-6.25,6.25-6.25s6.25,2.75,6.25,6.25-2.75,6.25-6.25,6.25-6.25-2.75-6.25-6.25ZM787.5,93.75c0-3.5,2.75-6.25,6.25-6.25s6.25,2.75,6.25,6.25-2.75,6.25-6.25,6.25-6.25-2.75-6.25-6.25ZM787.5,106.25c0-3.5,2.75-6.25,6.25-6.25s6.25,2.75,6.25,6.25-2.75,6.25-6.25,6.25-6.25-2.75-6.25-6.25ZM787.5,118.75c0-3.5,2.75-6.25,6.25-6.25s6.25,2.75,6.25,6.25-2.75,6.25-6.25,6.25-6.25-2.75-6.25-6.25ZM800,6.25c0-3.5,2.75-6.25,6.25-6.25s6.25,2.75,6.25,6.25-2.75,6.25-6.25,6.25-6.25-2.75-6.25-6.25ZM800,18.75c0-3.5,2.75-6.25,6.25-6.25s6.25,2.75,6.25,6.25-2.75,6.25-6.25,6.25-6.25-2.75-6.25-6.25ZM800,31.25c0-3.5,2.75-6.25,6.25-6.25s6.25,2.75,6.25,6.25-2.75,6.25-6.25,6.25-6.25-2.75-6.25-6.25ZM800,43.75c0-3.5,2.75-6.25,6.25-6.25s6.25,2.75,6.25,6.25-2.75,6.25-6.25,6.25-6.25-2.75-6.25-6.25ZM800,56.25c0-3.5,2.75-6.25,6.25-6.25s6.25,2.75,6.25,6.25-2.75,6.25-6.25,6.25-6.25-2.75-6.25-6.25ZM800,68.75c0-3.5,2.75-6.25,6.25-6.25s6.25,2.75,6.25,6.25-2.75,6.25-6.25,6.25-6.25-2.75-6.25-6.25ZM800,81.25c0-3.5,2.75-6.25,6.25-6.25s6.25,2.75,6.25,6.25-2.75,6.25-6.25,6.25-6.25-2.75-6.25-6.25ZM800,93.75c0-3.5,2.75-6.25,6.25-6.25s6.25,2.75,6.25,6.25-2.75,6.25-6.25,6.25-6.25-2.75-6.25-6.25ZM800,106.25c0-3.5,2.75-6.25,6.25-6.25s6.25,2.75,6.25,6.25-2.75,6.25-6.25,6.25-6.25-2.75-6.25-6.25ZM800,118.75c0-3.5,2.75-6.25,6.25-6.25s6.25,2.75,6.25,6.25-2.75,6.25-6.25,6.25-6.25-2.75-6.25-6.25ZM812.5,6.25c0-3.5,2.75-6.25,6.25-6.25s6.25,2.75,6.25,6.25-2.75,6.25-6.25,6.25-6.25-2.75-6.25-6.25ZM812.5,18.75c0-3.5,2.75-6.25,6.25-6.25s6.25,2.75,6.25,6.25-2.75,6.25-6.25,6.25-6.25-2.75-6.25-6.25ZM812.5,31.25c0-3.5,2.75-6.25,6.25-6.25s6.25,2.75,6.25,6.25-2.75,6.25-6.25,6.25-6.25-2.75-6.25-6.25ZM812.5,43.75c0-3.5,2.75-6.25,6.25-6.25s6.25,2.75,6.25,6.25-2.75,6.25-6.25,6.25-6.25-2.75-6.25-6.25ZM812.5,56.25c0-3.5,2.75-6.25,6.25-6.25s6.25,2.75,6.25,6.25-2.75,6.25-6.25,6.25-6.25-2.75-6.25-6.25ZM812.5,68.75c0-3.5,2.75-6.25,6.25-6.25s6.25,2.75,6.25,6.25-2.75,6.25-6.25,6.25-6.25-2.75-6.25-6.25ZM812.5,81.25c0-3.5,2.75-6.25,6.25-6.25s6.25,2.75,6.25,6.25-2.75,6.25-6.25,6.25-6.25-2.75-6.25-6.25ZM812.5,93.75c0-3.5,2.75-6.25,6.25-6.25s6.25,2.75,6.25,6.25-2.75,6.25-6.25,6.25-6.25-2.75-6.25-6.25ZM812.5,106.25c0-3.5,2.75-6.25,6.25-6.25s6.25,2.75,6.25,6.25-2.75,6.25-6.25,6.25-6.25-2.75-6.25-6.25ZM812.5,118.75c0-3.5,2.75-6.25,6.25-6.25s6.25,2.75,6.25,6.25-2.75,6.25-6.25,6.25-6.25-2.75-6.25-6.25ZM825,6.25c0-3.5,2.75-6.25,6.25-6.25s6.25,2.75,6.25,6.25-2.75,6.25-6.25,6.25-6.25-2.75-6.25-6.25ZM825,18.75c0-3.5,2.75-6.25,6.25-6.25s6.25,2.75,6.25,6.25-2.75,6.25-6.25,6.25-6.25-2.75-6.25-6.25ZM825,106.25c0-3.5,2.75-6.25,6.25-6.25s6.25,2.75,6.25,6.25-2.75,6.25-6.25,6.25-6.25-2.75-6.25-6.25ZM825,118.75c0-3.5,2.75-6.25,6.25-6.25s6.25,2.75,6.25,6.25-2.75,6.25-6.25,6.25-6.25-2.75-6.25-6.25ZM837.5,6.25c0-3.5,2.75-6.25,6.25-6.25s6.25,2.75,6.25,6.25-2.75,6.25-6.25,6.25-6.25-2.75-6.25-6.25ZM837.5,18.75c0-3.5,2.75-6.25,6.25-6.25s6.25,2.75,6.25,6.25-2.75,6.25-6.25,6.25-6.25-2.75-6.25-6.25ZM837.5,106.25c0-3.5,2.75-6.25,6.25-6.25s6.25,2.75,6.25,6.25-2.75,6.25-6.25,6.25-6.25-2.75-6.25-6.25ZM837.5,118.75c0-3.5,2.75-6.25,6.25-6.25s6.25,2.75,6.25,6.25-2.75,6.25-6.25,6.25-6.25-2.75-6.25-6.25ZM850,6.25c0-3.5,2.75-6.25,6.25-6.25s6.25,2.75,6.25,6.25-2.75,6.25-6.25,6.25-6.25-2.75-6.25-6.25ZM850,18.75c0-3.5,2.75-6.25,6.25-6.25s6.25,2.75,6.25,6.25-2.75,6.25-6.25,6.25-6.25-2.75-6.25-6.25ZM850,106.25c0-3.5,2.75-6.25,6.25-6.25s6.25,2.75,6.25,6.25-2.75,6.25-6.25,6.25-6.25-2.75-6.25-6.25ZM850,118.75c0-3.5,2.75-6.25,6.25-6.25s6.25,2.75,6.25,6.25-2.75,6.25-6.25,6.25-6.25-2.75-6.25-6.25ZM862.5,6.25c0-3.5,2.75-6.25,6.25-6.25s6.25,2.75,6.25,6.25-2.75,6.25-6.25,6.25-6.25-2.75-6.25-6.25ZM862.5,18.75c0-3.5,2.75-6.25,6.25-6.25s6.25,2.75,6.25,6.25-2.75,6.25-6.25,6.25-6.25-2.75-6.25-6.25ZM862.5,31.25c0-3.5,2.75-6.25,6.25-6.25s6.25,2.75,6.25,6.25-2.75,6.25-6.25,6.25-6.25-2.75-6.25-6.25ZM862.5,93.75c0-3.5,2.75-6.25,6.25-6.25s6.25,2.75,6.25,6.25-2.75,6.25-6.25,6.25-6.25-2.75-6.25-6.25ZM862.5,106.25c0-3.5,2.75-6.25,6.25-6.25s6.25,2.75,6.25,6.25-2.75,6.25-6.25,6.25-6.25-2.75-6.25-6.25ZM862.5,118.75c0-3.5,2.75-6.25,6.25-6.25s6.25,2.75,6.25,6.25-2.75,6.25-6.25,6.25-6.25-2.75-6.25-6.25ZM875,6.25c0-3.5,2.75-6.25,6.25-6.25s6.25,2.75,6.25,6.25-2.75,6.25-6.25,6.25-6.25-2.75-6.25-6.25ZM875,18.75c0-3.5,2.75-6.25,6.25-6.25s6.25,2.75,6.25,6.25-2.75,6.25-6.25,6.25-6.25-2.75-6.25-6.25ZM875,31.25c0-3.5,2.75-6.25,6.25-6.25s6.25,2.75,6.25,6.25-2.75,6.25-6.25,6.25-6.25-2.75-6.25-6.25ZM875,43.75c0-3.5,2.75-6.25,6.25-6.25s6.25,2.75,6.25,6.25-2.75,6.25-6.25,6.25-6.25-2.75-6.25-6.25ZM875,56.25c0-3.5,2.75-6.25,6.25-6.25s6.25,2.75,6.25,6.25-2.75,6.25-6.25,6.25-6.25-2.75-6.25-6.25ZM875,68.75c0-3.5,2.75-6.25,6.25-6.25s6.25,2.75,6.25,6.25-2.75,6.25-6.25,6.25-6.25-2.75-6.25-6.25ZM875,81.25c0-3.5,2.75-6.25,6.25-6.25s6.25,2.75,6.25,6.25-2.75,6.25-6.25,6.25-6.25-2.75-6.25-6.25ZM875,93.75c0-3.5,2.75-6.25,6.25-6.25s6.25,2.75,6.25,6.25-2.75,6.25-6.25,6.25-6.25-2.75-6.25-6.25ZM875,106.25c0-3.5,2.75-6.25,6.25-6.25s6.25,2.75,6.25,6.25-2.75,6.25-6.25,6.25-6.25-2.75-6.25-6.25ZM875,118.75c0-3.5,2.75-6.25,6.25-6.25s6.25,2.75,6.25,6.25-2.75,6.25-6.25,6.25-6.25-2.75-6.25-6.25ZM887.5,18.75c0-3.5,2.75-6.25,6.25-6.25s6.25,2.75,6.25,6.25-2.75,6.25-6.25,6.25-6.25-2.75-6.25-6.25ZM887.5,31.25c0-3.5,2.75-6.25,6.25-6.25s6.25,2.75,6.25,6.25-2.75,6.25-6.25,6.25-6.25-2.75-6.25-6.25ZM887.5,43.75c0-3.5,2.75-6.25,6.25-6.25s6.25,2.75,6.25,6.25-2.75,6.25-6.25,6.25-6.25-2.75-6.25-6.25ZM887.5,56.25c0-3.5,2.75-6.25,6.25-6.25s6.25,2.75,6.25,6.25-2.75,6.25-6.25,6.25-6.25-2.75-6.25-6.25ZM887.5,68.75c0-3.5,2.75-6.25,6.25-6.25s6.25,2.75,6.25,6.25-2.75,6.25-6.25,6.25-6.25-2.75-6.25-6.25ZM887.5,81.25c0-3.5,2.75-6.25,6.25-6.25s6.25,2.75,6.25,6.25-2.75,6.25-6.25,6.25-6.25-2.75-6.25-6.25ZM887.5,93.75c0-3.5,2.75-6.25,6.25-6.25s6.25,2.75,6.25,6.25-2.75,6.25-6.25,6.25-6.25-2.75-6.25-6.25ZM887.5,106.25c0-3.5,2.75-6.25,6.25-6.25s6.25,2.75,6.25,6.25-2.75,6.25-6.25,6.25-6.25-2.75-6.25-6.25ZM900,18.75c0-3.5,2.75-6.25,6.25-6.25s6.25,2.75,6.25,6.25-2.75,6.25-6.25,6.25-6.25-2.75-6.25-6.25ZM900,31.25c0-3.5,2.75-6.25,6.25-6.25s6.25,2.75,6.25,6.25-2.75,6.25-6.25,6.25-6.25-2.75-6.25-6.25ZM900,43.75c0-3.5,2.75-6.25,6.25-6.25s6.25,2.75,6.25,6.25-2.75,6.25-6.25,6.25-6.25-2.75-6.25-6.25ZM900,56.25c0-3.5,2.75-6.25,6.25-6.25s6.25,2.75,6.25,6.25-2.75,6.25-6.25,6.25-6.25-2.75-6.25-6.25ZM900,68.75c0-3.5,2.75-6.25,6.25-6.25s6.25,2.75,6.25,6.25-2.75,6.25-6.25,6.25-6.25-2.75-6.25-6.25ZM900,81.25c0-3.5,2.75-6.25,6.25-6.25s6.25,2.75,6.25,6.25-2.75,6.25-6.25,6.25-6.25-2.75-6.25-6.25ZM900,93.75c0-3.5,2.75-6.25,6.25-6.25s6.25,2.75,6.25,6.25-2.75,6.25-6.25,6.25-6.25-2.75-6.25-6.25ZM900,106.25c0-3.5,2.75-6.25,6.25-6.25s6.25,2.75,6.25,6.25-2.75,6.25-6.25,6.25-6.25-2.75-6.25-6.25ZM912.5,43.75c0-3.5,2.75-6.25,6.25-6.25s6.25,2.75,6.25,6.25-2.75,6.25-6.25,6.25-6.25-2.75-6.25-6.25ZM912.5,56.25c0-3.5,2.75-6.25,6.25-6.25s6.25,2.75,6.25,6.25-2.75,6.25-6.25,6.25-6.25-2.75-6.25-6.25ZM912.5,68.75c0-3.5,2.75-6.25,6.25-6.25s6.25,2.75,6.25,6.25-2.75,6.25-6.25,6.25-6.25-2.75-6.25-6.25ZM912.5,81.25c0-3.5,2.75-6.25,6.25-6.25s6.25,2.75,6.25,6.25-2.75,6.25-6.25,6.25-6.25-2.75-6.25-6.25Z"/>
  <path class="cls-1" d="M937.5,43.75c0-3.5,2.75-6.25,6.25-6.25s6.25,2.75,6.25,6.25-2.75,6.25-6.25,6.25-6.25-2.75-6.25-6.25ZM937.5,56.25c0-3.5,2.75-6.25,6.25-6.25s6.25,2.75,6.25,6.25-2.75,6.25-6.25,6.25-6.25-2.75-6.25-6.25ZM937.5,68.75c0-3.5,2.75-6.25,6.25-6.25s6.25,2.75,6.25,6.25-2.75,6.25-6.25,6.25-6.25-2.75-6.25-6.25ZM937.5,81.25c0-3.5,2.75-6.25,6.25-6.25s6.25,2.75,6.25,6.25-2.75,6.25-6.25,6.25-6.25-2.75-6.25-6.25ZM950,18.75c0-3.5,2.75-6.25,6.25-6.25s6.25,2.75,6.25,6.25-2.75,6.25-6.25,6.25-6.25-2.75-6.25-6.25ZM950,31.25c0-3.5,2.75-6.25,6.25-6.25s6.25,2.75,6.25,6.25-2.75,6.25-6.25,6.25-6.25-2.75-6.25-6.25ZM950,43.75c0-3.5,2.75-6.25,6.25-6.25s6.25,2.75,6.25,6.25-2.75,6.25-6.25,6.25-6.25-2.75-6.25-6.25ZM950,56.25c0-3.5,2.75-6.25,6.25-6.25s6.25,2.75,6.25,6.25-2.75,6.25-6.25,6.25-6.25-2.75-6.25-6.25ZM950,68.75c0-3.5,2.75-6.25,6.25-6.25s6.25,2.75,6.25,6.25-2.75,6.25-6.25,6.25-6.25-2.75-6.25-6.25ZM950,81.25c0-3.5,2.75-6.25,6.25-6.25s6.25,2.75,6.25,6.25-2.75,6.25-6.25,6.25-6.25-2.75-6.25-6.25ZM950,93.75c0-3.5,2.75-6.25,6.25-6.25s6.25,2.75,6.25,6.25-2.75,6.25-6.25,6.25-6.25-2.75-6.25-6.25ZM950,106.25c0-3.5,2.75-6.25,6.25-6.25s6.25,2.75,6.25,6.25-2.75,6.25-6.25,6.25-6.25-2.75-6.25-6.25ZM962.5,18.75c0-3.5,2.75-6.25,6.25-6.25s6.25,2.75,6.25,6.25-2.75,6.25-6.25,6.25-6.25-2.75-6.25-6.25ZM962.5,31.25c0-3.5,2.75-6.25,6.25-6.25s6.25,2.75,6.25,6.25-2.75,6.25-6.25,6.25-6.25-2.75-6.25-6.25ZM962.5,43.75c0-3.5,2.75-6.25,6.25-6.25s6.25,2.75,6.25,6.25-2.75,6.25-6.25,6.25-6.25-2.75-6.25-6.25ZM962.5,56.25c0-3.5,2.75-6.25,6.25-6.25s6.25,2.75,6.25,6.25-2.75,6.25-6.25,6.25-6.25-2.75-6.25-6.25ZM962.5,68.75c0-3.5,2.75-6.25,6.25-6.25s6.25,2.75,6.25,6.25-2.75,6.25-6.25,6.25-6.25-2.75-6.25-6.25ZM962.5,81.25c0-3.5,2.75-6.25,6.25-6.25s6.25,2.75,6.25,6.25-2.75,6.25-6.25,6.25-6.25-2.75-6.25-6.25ZM962.5,93.75c0-3.5,2.75-6.25,6.25-6.25s6.25,2.75,6.25,6.25-2.75,6.25-6.25,6.25-6.25-2.75-6.25-6.25ZM962.5,106.25c0-3.5,2.75-6.25,6.25-6.25s6.25,2.75,6.25,6.25-2.75,6.25-6.25,6.25-6.25-2.75-6.25-6.25ZM975,6.25c0-3.5,2.75-6.25,6.25-6.25s6.25,2.75,6.25,6.25-2.75,6.25-6.25,6.25-6.25-2.75-6.25-6.25ZM975,18.75c0-3.5,2.75-6.25,6.25-6.25s6.25,2.75,6.25,6.25-2.75,6.25-6.25,6.25-6.25-2.75-6.25-6.25ZM975,31.25c0-3.5,2.75-6.25,6.25-6.25s6.25,2.75,6.25,6.25-2.75,6.25-6.25,6.25-6.25-2.75-6.25-6.25ZM975,43.75c0-3.5,2.75-6.25,6.25-6.25s6.25,2.75,6.25,6.25-2.75,6.25-6.25,6.25-6.25-2.75-6.25-6.25ZM975,56.25c0-3.5,2.75-6.25,6.25-6.25s6.25,2.75,6.25,6.25-2.75,6.25-6.25,6.25-6.25-2.75-6.25-6.25ZM975,68.75c0-3.5,2.75-6.25,6.25-6.25s6.25,2.75,6.25,6.25-2.75,6.25-6.25,6.25-6.25-2.75-6.25-6.25ZM975,81.25c0-3.5,2.75-6.25,6.25-6.25s6.25,2.75,6.25,6.25-2.75,6.25-6.25,6.25-6.25-2.75-6.25-6.25ZM975,93.75c0-3.5,2.75-6.25,6.25-6.25s6.25,2.75,6.25,6.25-2.75,6.25-6.25,6.25-6.25-2.75-6.25-6.25ZM975,106.25c0-3.5,2.75-6.25,6.25-6.25s6.25,2.75,6.25,6.25-2.75,6.25-6.25,6.25-6.25-2.75-6.25-6.25ZM975,118.75c0-3.5,2.75-6.25,6.25-6.25s6.25,2.75,6.25,6.25-2.75,6.25-6.25,6.25-6.25-2.75-6.25-6.25ZM987.5,6.25c0-3.5,2.75-6.25,6.25-6.25s6.25,2.75,6.25,6.25-2.75,6.25-6.25,6.25-6.25-2.75-6.25-6.25ZM987.5,18.75c0-3.5,2.75-6.25,6.25-6.25s6.25,2.75,6.25,6.25-2.75,6.25-6.25,6.25-6.25-2.75-6.25-6.25ZM987.5,31.25c0-3.5,2.75-6.25,6.25-6.25s6.25,2.75,6.25,6.25-2.75,6.25-6.25,6.25-6.25-2.75-6.25-6.25ZM987.5,93.75c0-3.5,2.75-6.25,6.25-6.25s6.25,2.75,6.25,6.25-2.75,6.25-6.25,6.25-6.25-2.75-6.25-6.25ZM987.5,106.25c0-3.5,2.75-6.25,6.25-6.25s6.25,2.75,6.25,6.25-2.75,6.25-6.25,6.25-6.25-2.75-6.25-6.25ZM987.5,118.75c0-3.5,2.75-6.25,6.25-6.25s6.25,2.75,6.25,6.25-2.75,6.25-6.25,6.25-6.25-2.75-6.25-6.25ZM1000,6.25c0-3.5,2.75-6.25,6.25-6.25s6.25,2.75,6.25,6.25-2.75,6.25-6.25,6.25-6.25-2.75-6.25-6.25ZM1000,18.75c0-3.5,2.75-6.25,6.25-6.25s6.25,2.75,6.25,6.25-2.75,6.25-6.25,6.25-6.25-2.75-6.25-6.25ZM1000,106.25c0-3.5,2.75-6.25,6.25-6.25s6.25,2.75,6.25,6.25-2.75,6.25-6.25,6.25-6.25-2.75-6.25-6.25ZM1000,118.75c0-3.5,2.75-6.25,6.25-6.25s6.25,2.75,6.25,6.25-2.75,6.25-6.25,6.25-6.25-2.75-6.25-6.25ZM1012.5,6.25c0-3.5,2.75-6.25,6.25-6.25s6.25,2.75,6.25,6.25-2.75,6.25-6.25,6.25-6.25-2.75-6.25-6.25ZM1012.5,18.75c0-3.5,2.75-6.25,6.25-6.25s6.25,2.75,6.25,6.25-2.75,6.25-6.25,6.25-6.25-2.75-6.25-6.25ZM1012.5,106.25c0-3.5,2.75-6.25,6.25-6.25s6.25,2.75,6.25,6.25-2.75,6.25-6.25,6.25-6.25-2.75-6.25-6.25ZM1012.5,118.75c0-3.5,2.75-6.25,6.25-6.25s6.25,2.75,6.25,6.25-2.75,6.25-6.25,6.25-6.25-2.75-6.25-6.25ZM1025,6.25c0-3.5,2.75-6.25,6.25-6.25s6.25,2.75,6.25,6.25-2.75,6.25-6.25,6.25-6.25-2.75-6.25-6.25ZM1025,18.75c0-3.5,2.75-6.25,6.25-6.25s6.25,2.75,6.25,6.25-2.75,6.25-6.25,6.25-6.25-2.75-6.25-6.25ZM1025,106.25c0-3.5,2.75-6.25,6.25-6.25s6.25,2.75,6.25,6.25-2.75,6.25-6.25,6.25-6.25-2.75-6.25-6.25ZM1025,118.75c0-3.5,2.75-6.25,6.25-6.25s6.25,2.75,6.25,6.25-2.75,6.25-6.25,6.25-6.25-2.75-6.25-6.25ZM1037.5,6.25c0-3.5,2.75-6.25,6.25-6.25s6.25,2.75,6.25,6.25-2.75,6.25-6.25,6.25-6.25-2.75-6.25-6.25ZM1037.5,18.75c0-3.5,2.75-6.25,6.25-6.25s6.25,2.75,6.25,6.25-2.75,6.25-6.25,6.25-6.25-2.75-6.25-6.25ZM1037.5,31.25c0-3.5,2.75-6.25,6.25-6.25s6.25,2.75,6.25,6.25-2.75,6.25-6.25,6.25-6.25-2.75-6.25-6.25ZM1037.5,93.75c0-3.5,2.75-6.25,6.25-6.25s6.25,2.75,6.25,6.25-2.75,6.25-6.25,6.25-6.25-2.75-6.25-6.25ZM1037.5,106.25c0-3.5,2.75-6.25,6.25-6.25s6.25,2.75,6.25,6.25-2.75,6.25-6.25,6.25-6.25-2.75-6.25-6.25ZM1037.5,118.75c0-3.5,2.75-6.25,6.25-6.25s6.25,2.75,6.25,6.25-2.75,6.25-6.25,6.25-6.25-2.75-6.25-6.25ZM1050,6.25c0-3.5,2.75-6.25,6.25-6.25s6.25,2.75,6.25,6.25-2.75,6.25-6.25,6.25-6.25-2.75-6.25-6.25ZM1050,18.75c0-3.5,2.75-6.25,6.25-6.25s6.25,2.75,6.25,6.25-2.75,6.25-6.25,6.25-6.25-2.75-6.25-6.25ZM1050,31.25c0-3.5,2.75-6.25,6.25-6.25s6.25,2.75,6.25,6.25-2.75,6.25-6.25,6.25-6.25-2.75-6.25-6.25ZM1050,43.75c0-3.5,2.75-6.25,6.25-6.25s6.25,2.75,6.25,6.25-2.75,6.25-6.25,6.25-6.25-2.75-6.25-6.25ZM1050,56.25c0-3.5,2.75-6.25,6.25-6.25s6.25,2.75,6.25,6.25-2.75,6.25-6.25,6.25-6.25-2.75-6.25-6.25ZM1050,68.75c0-3.5,2.75-6.25,6.25-6.25s6.25,2.75,6.25,6.25-2.75,6.25-6.25,6.25-6.25-2.75-6.25-6.25ZM1050,81.25c0-3.5,2.75-6.25,6.25-6.25s6.25,2.75,6.25,6.25-2.75,6.25-6.25,6.25-6.25-2.75-6.25-6.25ZM1050,93.75c0-3.5,2.75-6.25,6.25-6.25s6.25,2.75,6.25,6.25-2.75,6.25-6.25,6.25-6.25-2.75-6.25-6.25ZM1050,106.25c0-3.5,2.75-6.25,6.25-6.25s6.25,2.75,6.25,6.25-2.75,6.25-6.25,6.25-6.25-2.75-6.25-6.25ZM1050,118.75c0-3.5,2.75-6.25,6.25-6.25s6.25,2.75,6.25,6.25-2.75,6.25-6.25,6.25-6.25-2.75-6.25-6.25ZM1062.5,18.75c0-3.5,2.75-6.25,6.25-6.25s6.25,2.75,6.25,6.25-2.75,6.25-6.25,6.25-6.25-2.75-6.25-6.25ZM1062.5,31.25c0-3.5,2.75-6.25,6.25-6.25s6.25,2.75,6.25,6.25-2.75,6.25-6.25,6.25-6.25-2.75-6.25-6.25ZM1062.5,43.75c0-3.5,2.75-6.25,6.25-6.25s6.25,2.75,6.25,6.25-2.75,6.25-6.25,6.25-6.25-2.75-6.25-6.25ZM1062.5,56.25c0-3.5,2.75-6.25,6.25-6.25s6.25,2.75,6.25,6.25-2.75,6.25-6.25,6.25-6.25-2.75-6.25-6.25ZM1062.5,68.75c0-3.5,2.75-6.25,6.25-6.25s6.25,2.75,6.25,6.25-2.75,6.25-6.25,6.25-6.25-2.75-6.25-6.25ZM1062.5,81.25c0-3.5,2.75-6.25,6.25-6.25s6.25,2.75,6.25,6.25-2.75,6.25-6.25,6.25-6.25-2.75-6.25-6.25ZM1062.5,93.75c0-3.5,2.75-6.25,6.25-6.25s6.25,2.75,6.25,6.25-2.75,6.25-6.25,6.25-6.25-2.75-6.25-6.25ZM1062.5,106.25c0-3.5,2.75-6.25,6.25-6.25s6.25,2.75,6.25,6.25-2.75,6.25-6.25,6.25-6.25-2.75-6.25-6.25ZM1075,18.75c0-3.5,2.75-6.25,6.25-6.25s6.25,2.75,6.25,6.25-2.75,6.25-6.25,6.25-6.25-2.75-6.25-6.25ZM1075,31.25c0-3.5,2.75-6.25,6.25-6.25s6.25,2.75,6.25,6.25-2.75,6.25-6.25,6.25-6.25-2.75-6.25-6.25ZM1075,43.75c0-3.5,2.75-6.25,6.25-6.25s6.25,2.75,6.25,6.25-2.75,6.25-6.25,6.25-6.25-2.75-6.25-6.25ZM1075,56.25c0-3.5,2.75-6.25,6.25-6.25s6.25,2.75,6.25,6.25-2.75,6.25-6.25,6.25-6.25-2.75-6.25-6.25ZM1075,68.75c0-3.5,2.75-6.25,6.25-6.25s6.25,2.75,6.25,6.25-2.75,6.25-6.25,6.25-6.25-2.75-6.25-6.25ZM1075,81.25c0-3.5,2.75-6.25,6.25-6.25s6.25,2.75,6.25,6.25-2.75,6.25-6.25,6.25-6.25-2.75-6.25-6.25ZM1075,93.75c0-3.5,2.75-6.25,6.25-6.25s6.25,2.75,6.25,6.25-2.75,6.25-6.25,6.25-6.25-2.75-6.25-6.25ZM1075,106.25c0-3.5,2.75-6.25,6.25-6.25s6.25,2.75,6.25,6.25-2.75,6.25-6.25,6.25-6.25-2.75-6.25-6.25ZM1087.5,43.75c0-3.5,2.75-6.25,6.25-6.25s6.25,2.75,6.25,6.25-2.75,6.25-6.25,6.25-6.25-2.75-6.25-6.25ZM1087.5,56.25c0-3.5,2.75-6.25,6.25-6.25s6.25,2.75,6.25,6.25-2.75,6.25-6.25,6.25-6.25-2.75-6.25-6.25ZM1087.5,68.75c0-3.5,2.75-6.25,6.25-6.25s6.25,2.75,6.25,6.25-2.75,6.25-6.25,6.25-6.25-2.75-6.25-6.25ZM1087.5,81.25c0-3.5,2.75-6.25,6.25-6.25s6.25,2.75,6.25,6.25-2.75,6.25-6.25,6.25-6.25-2.75-6.25-6.25Z"/>
  <path class="cls-1" d="M0,188.75c0-3.5,2.75-6.25,6.25-6.25s6.25,2.75,6.25,6.25-2.75,6.25-6.25,6.25-6.25-2.75-6.25-6.25ZM0,201.25c0-3.5,2.75-6.25,6.25-6.25s6.25,2.75,6.25,6.25-2.75,6.25-6.25,6.25-6.25-2.75-6.25-6.25ZM0,213.75c0-3.5,2.75-6.25,6.25-6.25s6.25,2.75,6.25,6.25-2.75,6.25-6.25,6.25-6.25-2.75-6.25-6.25ZM0,226.25c0-3.5,2.75-6.25,6.25-6.25s6.25,2.75,6.25,6.25-2.75,6.25-6.25,6.25-6.25-2.75-6.25-6.25ZM12.5,163.75c0-3.5,2.75-6.25,6.25-6.25s6.25,2.75,6.25,6.25-2.75,6.25-6.25,6.25-6.25-2.75-6.25-6.25ZM12.5,176.25c0-3.5,2.75-6.25,6.25-6.25s6.25,2.75,6.25,6.25-2.75,6.25-6.25,6.25-6.25-2.75-6.25-6.25ZM12.5,188.75c0-3.5,2.75-6.25,6.25-6.25s6.25,2.75,6.25,6.25-2.75,6.25-6.25,6.25-6.25-2.75-6.25-6.25ZM12.5,201.25c0-3.5,2.75-6.25,6.25-6.25s6.25,2.75,6.25,6.25-2.75,6.25-6.25,6.25-6.25-2.75-6.25-6.25ZM12.5,213.75c0-3.5,2.75-6.25,6.25-6.25s6.25,2.75,6.25,6.25-2.75,6.25-6.25,6.25-6.25-2.75-6.25-6.25ZM12.5,226.25c0-3.5,2.75-6.25,6.25-6.25s6.25,2.75,6.25,6.25-2.75,6.25-6.25,6.25-6.25-2.75-6.25-6.25ZM12.5,238.75c0-3.5,2.75-6.25,6.25-6.25s6.25,2.75,6.25,6.25-2.75,6.25-6.25,6.25-6.25-2.75-6.25-6.25ZM12.5,251.25c0-3.5,2.75-6.25,6.25-6.25s6.25,2.75,6.25,6.25-2.75,6.25-6.25,6.25-6.25-2.75-6.25-6.25ZM25,163.75c0-3.5,2.75-6.25,6.25-6.25s6.25,2.75,6.25,6.25-2.75,6.25-6.25,6.25-6.25-2.75-6.25-6.25ZM25,176.25c0-3.5,2.75-6.25,6.25-6.25s6.25,2.75,6.25,6.25-2.75,6.25-6.25,6.25-6.25-2.75-6.25-6.25ZM25,188.75c0-3.5,2.75-6.25,6.25-6.25s6.25,2.75,6.25,6.25-2.75,6.25-6.25,6.25-6.25-2.75-6.25-6.25ZM25,201.25c0-3.5,2.75-6.25,6.25-6.25s6.25,2.75,6.25,6.25-2.75,6.25-6.25,6.25-6.25-2.75-6.25-6.25ZM25,213.75c0-3.5,2.75-6.25,6.25-6.25s6.25,2.75,6.25,6.25-2.75,6.25-6.25,6.25-6.25-2.75-6.25-6.25ZM25,226.25c0-3.5,2.75-6.25,6.25-6.25s6.25,2.75,6.25,6.25-2.75,6.25-6.25,6.25-6.25-2.75-6.25-6.25ZM25,238.75c0-3.5,2.75-6.25,6.25-6.25s6.25,2.75,6.25,6.25-2.75,6.25-6.25,6.25-6.25-2.75-6.25-6.25ZM25,251.25c0-3.5,2.75-6.25,6.25-6.25s6.25,2.75,6.25,6.25-2.75,6.25-6.25,6.25-6.25-2.75-6.25-6.25ZM37.5,151.25c0-3.5,2.75-6.25,6.25-6.25s6.25,2.75,6.25,6.25-2.75,6.25-6.25,6.25-6.25-2.75-6.25-6.25ZM37.5,163.75c0-3.5,2.75-6.25,6.25-6.25s6.25,2.75,6.25,6.25-2.75,6.25-6.25,6.25-6.25-2.75-6.25-6.25ZM37.5,176.25c0-3.5,2.75-6.25,6.25-6.25s6.25,2.75,6.25,6.25-2.75,6.25-6.25,6.25-6.25-2.75-6.25-6.25ZM37.5,188.75c0-3.5,2.75-6.25,6.25-6.25s6.25,2.75,6.25,6.25-2.75,6.25-6.25,6.25-6.25-2.75-6.25-6.25ZM37.5,201.25c0-3.5,2.75-6.25,6.25-6.25s6.25,2.75,6.25,6.25-2.75,6.25-6.25,6.25-6.25-2.75-6.25-6.25ZM37.5,213.75c0-3.5,2.75-6.25,6.25-6.25s6.25,2.75,6.25,6.25-2.75,6.25-6.25,6.25-6.25-2.75-6.25-6.25ZM37.5,226.25c0-3.5,2.75-6.25,6.25-6.25s6.25,2.75,6.25,6.25-2.75,6.25-6.25,6.25-6.25-2.75-6.25-6.25ZM37.5,238.75c0-3.5,2.75-6.25,6.25-6.25s6.25,2.75,6.25,6.25-2.75,6.25-6.25,6.25-6.25-2.75-6.25-6.25ZM37.5,251.25c0-3.5,2.75-6.25,6.25-6.25s6.25,2.75,6.25,6.25-2.75,6.25-6.25,6.25-6.25-2.75-6.25-6.25ZM37.5,263.75c0-3.5,2.75-6.25,6.25-6.25s6.25,2.75,6.25,6.25-2.75,6.25-6.25,6.25-6.25-2.75-6.25-6.25ZM50,151.25c0-3.5,2.75-6.25,6.25-6.25s6.25,2.75,6.25,6.25-2.75,6.25-6.25,6.25-6.25-2.75-6.25-6.25ZM50,163.75c0-3.5,2.75-6.25,6.25-6.25s6.25,2.75,6.25,6.25-2.75,6.25-6.25,6.25-6.25-2.75-6.25-6.25ZM50,176.25c0-3.5,2.75-6.25,6.25-6.25s6.25,2.75,6.25,6.25-2.75,6.25-6.25,6.25-6.25-2.75-6.25-6.25ZM50,238.75c0-3.5,2.75-6.25,6.25-6.25s6.25,2.75,6.25,6.25-2.75,6.25-6.25,6.25-6.25-2.75-6.25-6.25ZM50,251.25c0-3.5,2.75-6.25,6.25-6.25s6.25,2.75,6.25,6.25-2.75,6.25-6.25,6.25-6.25-2.75-6.25-6.25ZM50,263.75c0-3.5,2.75-6.25,6.25-6.25s6.25,2.75,6.25,6.25-2.75,6.25-6.25,6.25-6.25-2.75-6.25-6.25ZM62.5,151.25c0-3.5,2.75-6.25,6.25-6.25s6.25,2.75,6.25,6.25-2.75,6.25-6.25,6.25-6.25-2.75-6.25-6.25ZM62.5,163.75c0-3.5,2.75-6.25,6.25-6.25s6.25,2.75,6.25,6.25-2.75,6.25-6.25,6.25-6.25-2.75-6.25-6.25ZM62.5,251.25c0-3.5,2.75-6.25,6.25-6.25s6.25,2.75,6.25,6.25-2.75,6.25-6.25,6.25-6.25-2.75-6.25-6.25ZM62.5,263.75c0-3.5,2.75-6.25,6.25-6.25s6.25,2.75,6.25,6.25-2.75,6.25-6.25,6.25-6.25-2.75-6.25-6.25ZM75,151.25c0-3.5,2.75-6.25,6.25-6.25s6.25,2.75,6.25,6.25-2.75,6.25-6.25,6.25-6.25-2.75-6.25-6.25ZM75,163.75c0-3.5,2.75-6.25,6.25-6.25s6.25,2.75,6.25,6.25-2.75,6.25-6.25,6.25-6.25-2.75-6.25-6.25ZM75,251.25c0-3.5,2.75-6.25,6.25-6.25s6.25,2.75,6.25,6.25-2.75,6.25-6.25,6.25-6.25-2.75-6.25-6.25ZM75,263.75c0-3.5,2.75-6.25,6.25-6.25s6.25,2.75,6.25,6.25-2.75,6.25-6.25,6.25-6.25-2.75-6.25-6.25ZM87.5,151.25c0-3.5,2.75-6.25,6.25-6.25s6.25,2.75,6.25,6.25-2.75,6.25-6.25,6.25-6.25-2.75-6.25-6.25ZM87.5,163.75c0-3.5,2.75-6.25,6.25-6.25s6.25,2.75,6.25,6.25-2.75,6.25-6.25,6.25-6.25-2.75-6.25-6.25ZM87.5,251.25c0-3.5,2.75-6.25,6.25-6.25s6.25,2.75,6.25,6.25-2.75,6.25-6.25,6.25-6.25-2.75-6.25-6.25ZM87.5,263.75c0-3.5,2.75-6.25,6.25-6.25s6.25,2.75,6.25,6.25-2.75,6.25-6.25,6.25-6.25-2.75-6.25-6.25ZM100,151.25c0-3.5,2.75-6.25,6.25-6.25s6.25,2.75,6.25,6.25-2.75,6.25-6.25,6.25-6.25-2.75-6.25-6.25ZM100,163.75c0-3.5,2.75-6.25,6.25-6.25s6.25,2.75,6.25,6.25-2.75,6.25-6.25,6.25-6.25-2.75-6.25-6.25ZM100,176.25c0-3.5,2.75-6.25,6.25-6.25s6.25,2.75,6.25,6.25-2.75,6.25-6.25,6.25-6.25-2.75-6.25-6.25ZM100,238.75c0-3.5,2.75-6.25,6.25-6.25s6.25,2.75,6.25,6.25-2.75,6.25-6.25,6.25-6.25-2.75-6.25-6.25ZM100,251.25c0-3.5,2.75-6.25,6.25-6.25s6.25,2.75,6.25,6.25-2.75,6.25-6.25,6.25-6.25-2.75-6.25-6.25ZM100,263.75c0-3.5,2.75-6.25,6.25-6.25s6.25,2.75,6.25,6.25-2.75,6.25-6.25,6.25-6.25-2.75-6.25-6.25ZM112.5,163.75c0-3.5,2.75-6.25,6.25-6.25s6.25,2.75,6.25,6.25-2.75,6.25-6.25,6.25-6.25-2.75-6.25-6.25ZM112.5,176.25c0-3.5,2.75-6.25,6.25-6.25s6.25,2.75,6.25,6.25-2.75,6.25-6.25,6.25-6.25-2.75-6.25-6.25ZM112.5,238.75c0-3.5,2.75-6.25,6.25-6.25s6.25,2.75,6.25,6.25-2.75,6.25-6.25,6.25-6.25-2.75-6.25-6.25ZM112.5,251.25c0-3.5,2.75-6.25,6.25-6.25s6.25,2.75,6.25,6.25-2.75,6.25-6.25,6.25-6.25-2.75-6.25-6.25ZM125,163.75c0-3.5,2.75-6.25,6.25-6.25s6.25,2.75,6.25,6.25-2.75,6.25-6.25,6.25-6.25-2.75-6.25-6.25ZM125,176.25c0-3.5,2.75-6.25,6.25-6.25s6.25,2.75,6.25,6.25-2.75,6.25-6.25,6.25-6.25-2.75-6.25-6.25ZM125,238.75c0-3.5,2.75-6.25,6.25-6.25s6.25,2.75,6.25,6.25-2.75,6.25-6.25,6.25-6.25-2.75-6.25-6.25ZM125,251.25c0-3.5,2.75-6.25,6.25-6.25s6.25,2.75,6.25,6.25-2.75,6.25-6.25,6.25-6.25-2.75-6.25-6.25Z"/>
  <path class="cls-1" d="M150,188.75c0-3.5,2.75-6.25,6.25-6.25s6.25,2.75,6.25,6.25-2.75,6.25-6.25,6.25-6.25-2.75-6.25-6.25ZM150,201.25c0-3.5,2.75-6.25,6.25-6.25s6.25,2.75,6.25,6.25-2.75,6.25-6.25,6.25-6.25-2.75-6.25-6.25ZM150,213.75c0-3.5,2.75-6.25,6.25-6.25s6.25,2.75,6.25,6.25-2.75,6.25-6.25,6.25-6.25-2.75-6.25-6.25ZM150,226.25c0-3.5,2.75-6.25,6.25-6.25s6.25,2.75,6.25,6.25-2.75,6.25-6.25,6.25-6.25-2.75-6.25-6.25ZM162.5,163.75c0-3.5,2.75-6.25,6.25-6.25s6.25,2.75,6.25,6.25-2.75,6.25-6.25,6.25-6.25-2.75-6.25-6.25ZM162.5,176.25c0-3.5,2.75-6.25,6.25-6.25s6.25,2.75,6.25,6.25-2.75,6.25-6.25,6.25-6.25-2.75-6.25-6.25ZM162.5,188.75c0-3.5,2.75-6.25,6.25-6.25s6.25,2.75,6.25,6.25-2.75,6.25-6.25,6.25-6.25-2.75-6.25-6.25ZM162.5,201.25c0-3.5,2.75-6.25,6.25-6.25s6.25,2.75,6.25,6.25-2.75,6.25-6.25,6.25-6.25-2.75-6.25-6.25ZM162.5,213.75c0-3.5,2.75-6.25,6.25-6.25s6.25,2.75,6.25,6.25-2.75,6.25-6.25,6.25-6.25-2.75-6.25-6.25ZM162.5,226.25c0-3.5,2.75-6.25,6.25-6.25s6.25,2.75,6.25,6.25-2.75,6.25-6.25,6.25-6.25-2.75-6.25-6.25ZM162.5,238.75c0-3.5,2.75-6.25,6.25-6.25s6.25,2.75,6.25,6.25-2.75,6.25-6.25,6.25-6.25-2.75-6.25-6.25ZM162.5,251.25c0-3.5,2.75-6.25,6.25-6.25s6.25,2.75,6.25,6.25-2.75,6.25-6.25,6.25-6.25-2.75-6.25-6.25ZM175,163.75c0-3.5,2.75-6.25,6.25-6.25s6.25,2.75,6.25,6.25-2.75,6.25-6.25,6.25-6.25-2.75-6.25-6.25ZM175,176.25c0-3.5,2.75-6.25,6.25-6.25s6.25,2.75,6.25,6.25-2.75,6.25-6.25,6.25-6.25-2.75-6.25-6.25ZM175,188.75c0-3.5,2.75-6.25,6.25-6.25s6.25,2.75,6.25,6.25-2.75,6.25-6.25,6.25-6.25-2.75-6.25-6.25ZM175,201.25c0-3.5,2.75-6.25,6.25-6.25s6.25,2.75,6.25,6.25-2.75,6.25-6.25,6.25-6.25-2.75-6.25-6.25ZM175,213.75c0-3.5,2.75-6.25,6.25-6.25s6.25,2.75,6.25,6.25-2.75,6.25-6.25,6.25-6.25-2.75-6.25-6.25ZM175,226.25c0-3.5,2.75-6.25,6.25-6.25s6.25,2.75,6.25,6.25-2.75,6.25-6.25,6.25-6.25-2.75-6.25-6.25ZM175,238.75c0-3.5,2.75-6.25,6.25-6.25s6.25,2.75,6.25,6.25-2.75,6.25-6.25,6.25-6.25-2.75-6.25-6.25ZM175,251.25c0-3.5,2.75-6.25,6.25-6.25s6.25,2.75,6.25,6.25-2.75,6.25-6.25,6.25-6.25-2.75-6.25-6.25ZM187.5,151.25c0-3.5,2.75-6.25,6.25-6.25s6.25,2.75,6.25,6.25-2.75,6.25-6.25,6.25-6.25-2.75-6.25-6.25ZM187.5,163.75c0-3.5,2.75-6.25,6.25-6.25s6.25,2.75,6.25,6.25-2.75,6.25-6.25,6.25-6.25-2.75-6.25-6.25ZM187.5,176.25c0-3.5,2.75-6.25,6.25-6.25s6.25,2.75,6.25,6.25-2.75,6.25-6.25,6.25-6.25-2.75-6.25-6.25ZM187.5,188.75c0-3.5,2.75-6.25,6.25-6.25s6.25,2.75,6.25,6.25-2.75,6.25-6.25,6.25-6.25-2.75-6.25-6.25ZM187.5,201.25c0-3.5,2.75-6.25,6.25-6.25s6.25,2.75,6.25,6.25-2.75,6.25-6.25,6.25-6.25-2.75-6.25-6.25ZM187.5,213.75c0-3.5,2.75-6.25,6.25-6.25s6.25,2.75,6.25,6.25-2.75,6.25-6.25,6.25-6.25-2.75-6.25-6.25ZM187.5,226.25c0-3.5,2.75-6.25,6.25-6.25s6.25,2.75,6.25,6.25-2.75,6.25-6.25,6.25-6.25-2.75-6.25-6.25ZM187.5,238.75c0-3.5,2.75-6.25,6.25-6.25s6.25,2.75,6.25,6.25-2.75,6.25-6.25,6.25-6.25-2.75-6.25-6.25ZM187.5,251.25c0-3.5,2.75-6.25,6.25-6.25s6.25,2.75,6.25,6.25-2.75,6.25-6.25,6.25-6.25-2.75-6.25-6.25ZM187.5,263.75c0-3.5,2.75-6.25,6.25-6.25s6.25,2.75,6.25,6.25-2.75,6.25-6.25,6.25-6.25-2.75-6.25-6.25ZM200,151.25c0-3.5,2.75-6.25,6.25-6.25s6.25,2.75,6.25,6.25-2.75,6.25-6.25,6.25-6.25-2.75-6.25-6.25ZM200,163.75c0-3.5,2.75-6.25,6.25-6.25s6.25,2.75,6.25,6.25-2.75,6.25-6.25,6.25-6.25-2.75-6.25-6.25ZM200,176.25c0-3.5,2.75-6.25,6.25-6.25s6.25,2.75,6.25,6.25-2.75,6.25-6.25,6.25-6.25-2.75-6.25-6.25ZM200,238.75c0-3.5,2.75-6.25,6.25-6.25s6.25,2.75,6.25,6.25-2.75,6.25-6.25,6.25-6.25-2.75-6.25-6.25ZM200,251.25c0-3.5,2.75-6.25,6.25-6.25s6.25,2.75,6.25,6.25-2.75,6.25-6.25,6.25-6.25-2.75-6.25-6.25ZM200,263.75c0-3.5,2.75-6.25,6.25-6.25s6.25,2.75,6.25,6.25-2.75,6.25-6.25,6.25-6.25-2.75-6.25-6.25ZM212.5,151.25c0-3.5,2.75-6.25,6.25-6.25s6.25,2.75,6.25,6.25-2.75,6.25-6.25,6.25-6.25-2.75-6.25-6.25ZM212.5,163.75c0-3.5,2.75-6.25,6.25-6.25s6.25,2.75,6.25,6.25-2.75,6.25-6.25,6.25-6.25-2.75-6.25-6.25ZM212.5,251.25c0-3.5,2.75-6.25,6.25-6.25s6.25,2.75,6.25,6.25-2.75,6.25-6.25,6.25-6.25-2.75-6.25-6.25ZM212.5,263.75c0-3.5,2.75-6.25,6.25-6.25s6.25,2.75,6.25,6.25-2.75,6.25-6.25,6.25-6.25-2.75-6.25-6.25ZM225,151.25c0-3.5,2.75-6.25,6.25-6.25s6.25,2.75,6.25,6.25-2.75,6.25-6.25,6.25-6.25-2.75-6.25-6.25ZM225,163.75c0-3.5,2.75-6.25,6.25-6.25s6.25,2.75,6.25,6.25-2.75,6.25-6.25,6.25-6.25-2.75-6.25-6.25ZM225,251.25c0-3.5,2.75-6.25,6.25-6.25s6.25,2.75,6.25,6.25-2.75,6.25-6.25,6.25-6.25-2.75-6.25-6.25ZM225,263.75c0-3.5,2.75-6.25,6.25-6.25s6.25,2.75,6.25,6.25-2.75,6.25-6.25,6.25-6.25-2.75-6.25-6.25ZM237.5,151.25c0-3.5,2.75-6.25,6.25-6.25s6.25,2.75,6.25,6.25-2.75,6.25-6.25,6.25-6.25-2.75-6.25-6.25ZM237.5,163.75c0-3.5,2.75-6.25,6.25-6.25s6.25,2.75,6.25,6.25-2.75,6.25-6.25,6.25-6.25-2.75-6.25-6.25ZM237.5,251.25c0-3.5,2.75-6.25,6.25-6.25s6.25,2.75,6.25,6.25-2.75,6.25-6.25,6.25-6.25-2.75-6.25-6.25ZM237.5,263.75c0-3.5,2.75-6.25,6.25-6.25s6.25,2.75,6.25,6.25-2.75,6.25-6.25,6.25-6.25-2.75-6.25-6.25ZM250,151.25c0-3.5,2.75-6.25,6.25-6.25s6.25,2.75,6.25,6.25-2.75,6.25-6.25,6.25-6.25-2.75-6.25-6.25ZM250,163.75c0-3.5,2.75-6.25,6.25-6.25s6.25,2.75,6.25,6.25-2.75,6.25-6.25,6.25-6.25-2.75-6.25-6.25ZM250,176.25c0-3.5,2.75-6.25,6.25-6.25s6.25,2.75,6.25,6.25-2.75,6.25-6.25,6.25-6.25-2.75-6.25-6.25ZM250,238.75c0-3.5,2.75-6.25,6.25-6.25s6.25,2.75,6.25,6.25-2.75,6.25-6.25,6.25-6.25-2.75-6.25-6.25ZM250,251.25c0-3.5,2.75-6.25,6.25-6.25s6.25,2.75,6.25,6.25-2.75,6.25-6.25,6.25-6.25-2.75-6.25-6.25ZM250,263.75c0-3.5,2.75-6.25,6.25-6.25s6.25,2.75,6.25,6.25-2.75,6.25-6.25,6.25-6.25-2.75-6.25-6.25ZM262.5,151.25c0-3.5,2.75-6.25,6.25-6.25s6.25,2.75,6.25,6.25-2.75,6.25-6.25,6.25-6.25-2.75-6.25-6.25ZM262.5,163.75c0-3.5,2.75-6.25,6.25-6.25s6.25,2.75,6.25,6.25-2.75,6.25-6.25,6.25-6.25-2.75-6.25-6.25ZM262.5,176.25c0-3.5,2.75-6.25,6.25-6.25s6.25,2.75,6.25,6.25-2.75,6.25-6.25,6.25-6.25-2.75-6.25-6.25ZM262.5,188.75c0-3.5,2.75-6.25,6.25-6.25s6.25,2.75,6.25,6.25-2.75,6.25-6.25,6.25-6.25-2.75-6.25-6.25ZM262.5,201.25c0-3.5,2.75-6.25,6.25-6.25s6.25,2.75,6.25,6.25-2.75,6.25-6.25,6.25-6.25-2.75-6.25-6.25ZM262.5,213.75c0-3.5,2.75-6.25,6.25-6.25s6.25,2.75,6.25,6.25-2.75,6.25-6.25,6.25-6.25-2.75-6.25-6.25ZM262.5,226.25c0-3.5,2.75-6.25,6.25-6.25s6.25,2.75,6.25,6.25-2.75,6.25-6.25,6.25-6.25-2.75-6.25-6.25ZM262.5,238.75c0-3.5,2.75-6.25,6.25-6.25s6.25,2.75,6.25,6.25-2.75,6.25-6.25,6.25-6.25-2.75-6.25-6.25ZM262.5,251.25c0-3.5,2.75-6.25,6.25-6.25s6.25,2.75,6.25,6.25-2.75,6.25-6.25,6.25-6.25-2.75-6.25-6.25ZM262.5,263.75c0-3.5,2.75-6.25,6.25-6.25s6.25,2.75,6.25,6.25-2.75,6.25-6.25,6.25-6.25-2.75-6.25-6.25ZM275,163.75c0-3.5,2.75-6.25,6.25-6.25s6.25,2.75,6.25,6.25-2.75,6.25-6.25,6.25-6.25-2.75-6.25-6.25ZM275,176.25c0-3.5,2.75-6.25,6.25-6.25s6.25,2.75,6.25,6.25-2.75,6.25-6.25,6.25-6.25-2.75-6.25-6.25ZM275,188.75c0-3.5,2.75-6.25,6.25-6.25s6.25,2.75,6.25,6.25-2.75,6.25-6.25,6.25-6.25-2.75-6.25-6.25ZM275,201.25c0-3.5,2.75-6.25,6.25-6.25s6.25,2.75,6.25,6.25-2.75,6.25-6.25,6.25-6.25-2.75-6.25-6.25ZM275,213.75c0-3.5,2.75-6.25,6.25-6.25s6.25,2.75,6.25,6.25-2.75,6.25-6.25,6.25-6.25-2.75-6.25-6.25ZM275,226.25c0-3.5,2.75-6.25,6.25-6.25s6.25,2.75,6.25,6.25-2.75,6.25-6.25,6.25-6.25-2.75-6.25-6.25ZM275,238.75c0-3.5,2.75-6.25,6.25-6.25s6.25,2.75,6.25,6.25-2.75,6.25-6.25,6.25-6.25-2.75-6.25-6.25ZM275,251.25c0-3.5,2.75-6.25,6.25-6.25s6.25,2.75,6.25,6.25-2.75,6.25-6.25,6.25-6.25-2.75-6.25-6.25ZM287.5,163.75c0-3.5,2.75-6.25,6.25-6.25s6.25,2.75,6.25,6.25-2.75,6.25-6.25,6.25-6.25-2.75-6.25-6.25ZM287.5,176.25c0-3.5,2.75-6.25,6.25-6.25s6.25,2.75,6.25,6.25-2.75,6.25-6.25,6.25-6.25-2.75-6.25-6.25ZM287.5,188.75c0-3.5,2.75-6.25,6.25-6.25s6.25,2.75,6.25,6.25-2.75,6.25-6.25,6.25-6.25-2.75-6.25-6.25ZM287.5,201.25c0-3.5,2.75-6.25,6.25-6.25s6.25,2.75,6.25,6.25-2.75,6.25-6.25,6.25-6.25-2.75-6.25-6.25ZM287.5,213.75c0-3.5,2.75-6.25,6.25-6.25s6.25,2.75,6.25,6.25-2.75,6.25-6.25,6.25-6.25-2.75-6.25-6.25ZM287.5,226.25c0-3.5,2.75-6.25,6.25-6.25s6.25,2.75,6.25,6.25-2.75,6.25-6.25,6.25-6.25-2.75-6.25-6.25ZM287.5,238.75c0-3.5,2.75-6.25,6.25-6.25s6.25,2.75,6.25,6.25-2.75,6.25-6.25,6.25-6.25-2.75-6.25-6.25ZM287.5,251.25c0-3.5,2.75-6.25,6.25-6.25s6.25,2.75,6.25,6.25-2.75,6.25-6.25,6.25-6.25-2.75-6.25-6.25ZM300,188.75c0-3.5,2.75-6.25,6.25-6.25s6.25,2.75,6.25,6.25-2.75,6.25-6.25,6.25-6.25-2.75-6.25-6.25ZM300,201.25c0-3.5,2.75-6.25,6.25-6.25s6.25,2.75,6.25,6.25-2.75,6.25-6.25,6.25-6.25-2.75-6.25-6.25ZM300,213.75c0-3.5,2.75-6.25,6.25-6.25s6.25,2.75,6.25,6.25-2.75,6.25-6.25,6.25-6.25-2.75-6.25-6.25ZM300,226.25c0-3.5,2.75-6.25,6.25-6.25s6.25,2.75,6.25,6.25-2.75,6.25-6.25,6.25-6.25-2.75-6.25-6.25Z"/>
  <path class="cls-1" d="M325,226.25c0-3.5,2.75-6.25,6.25-6.25s6.25,2.75,6.25,6.25-2.75,6.25-6.25,6.25-6.25-2.75-6.25-6.25ZM325,238.75c0-3.5,2.75-6.25,6.25-6.25s6.25,2.75,6.25,6.25-2.75,6.25-6.25,6.25-6.25-2.75-6.25-6.25ZM325,251.25c0-3.5,2.75-6.25,6.25-6.25s6.25,2.75,6.25,6.25-2.75,6.25-6.25,6.25-6.25-2.75-6.25-6.25ZM325,263.75c0-3.5,2.75-6.25,6.25-6.25s6.25,2.75,6.25,6.25-2.75,6.25-6.25,6.25-6.25-2.75-6.25-6.25ZM337.5,226.25c0-3.5,2.75-6.25,6.25-6.25s6.25,2.75,6.25,6.25-2.75,6.25-6.25,6.25-6.25-2.75-6.25-6.25ZM337.5,238.75c0-3.5,2.75-6.25,6.25-6.25s6.25,2.75,6.25,6.25-2.75,6.25-6.25,6.25-6.25-2.75-6.25-6.25ZM337.5,251.25c0-3.5,2.75-6.25,6.25-6.25s6.25,2.75,6.25,6.25-2.75,6.25-6.25,6.25-6.25-2.75-6.25-6.25ZM337.5,263.75c0-3.5,2.75-6.25,6.25-6.25s6.25,2.75,6.25,6.25-2.75,6.25-6.25,6.25-6.25-2.75-6.25-6.25ZM350,226.25c0-3.5,2.75-6.25,6.25-6.25s6.25,2.75,6.25,6.25-2.75,6.25-6.25,6.25-6.25-2.75-6.25-6.25ZM350,238.75c0-3.5,2.75-6.25,6.25-6.25s6.25,2.75,6.25,6.25-2.75,6.25-6.25,6.25-6.25-2.75-6.25-6.25ZM350,251.25c0-3.5,2.75-6.25,6.25-6.25s6.25,2.75,6.25,6.25-2.75,6.25-6.25,6.25-6.25-2.75-6.25-6.25ZM350,263.75c0-3.5,2.75-6.25,6.25-6.25s6.25,2.75,6.25,6.25-2.75,6.25-6.25,6.25-6.25-2.75-6.25-6.25ZM362.5,226.25c0-3.5,2.75-6.25,6.25-6.25s6.25,2.75,6.25,6.25-2.75,6.25-6.25,6.25-6.25-2.75-6.25-6.25ZM362.5,238.75c0-3.5,2.75-6.25,6.25-6.25s6.25,2.75,6.25,6.25-2.75,6.25-6.25,6.25-6.25-2.75-6.25-6.25ZM362.5,251.25c0-3.5,2.75-6.25,6.25-6.25s6.25,2.75,6.25,6.25-2.75,6.25-6.25,6.25-6.25-2.75-6.25-6.25ZM362.5,263.75c0-3.5,2.75-6.25,6.25-6.25s6.25,2.75,6.25,6.25-2.75,6.25-6.25,6.25-6.25-2.75-6.25-6.25Z"/>
  <path class="cls-1" d="M393.3,226.25c0-3.5,2.75-6.25,6.25-6.25s6.25,2.75,6.25,6.25-2.75,6.25-6.25,6.25-6.25-2.75-6.25-6.25ZM393.3,238.75c0-3.5,2.75-6.25,6.25-6.25s6.25,2.75,6.25,6.25-2.75,6.25-6.25,6.25-6.25-2.75-6.25-6.25ZM393.3,251.25c0-3.5,2.75-6.25,6.25-6.25s6.25,2.75,6.25,6.25-2.75,6.25-6.25,6.25-6.25-2.75-6.25-6.25ZM393.3,263.75c0-3.5,2.75-6.25,6.25-6.25s6.25,2.75,6.25,6.25-2.75,6.25-6.25,6.25-6.25-2.75-6.25-6.25ZM405.8,226.25c0-3.5,2.75-6.25,6.25-6.25s6.25,2.75,6.25,6.25-2.75,6.25-6.25,6.25-6.25-2.75-6.25-6.25ZM405.8,238.75c0-3.5,2.75-6.25,6.25-6.25s6.25,2.75,6.25,6.25-2.75,6.25-6.25,6.25-6.25-2.75-6.25-6.25ZM405.8,251.25c0-3.5,2.75-6.25,6.25-6.25s6.25,2.75,6.25,6.25-2.75,6.25-6.25,6.25-6.25-2.75-6.25-6.25ZM405.8,263.75c0-3.5,2.75-6.25,6.25-6.25s6.25,2.75,6.25,6.25-2.75,6.25-6.25,6.25-6.25-2.75-6.25-6.25ZM418.3,226.25c0-3.5,2.75-6.25,6.25-6.25s6.25,2.75,6.25,6.25-2.75,6.25-6.25,6.25-6.25-2.75-6.25-6.25ZM418.3,238.75c0-3.5,2.75-6.25,6.25-6.25s6.25,2.75,6.25,6.25-2.75,6.25-6.25,6.25-6.25-2.75-6.25-6.25ZM418.3,251.25c0-3.5,2.75-6.25,6.25-6.25s6.25,2.75,6.25,6.25-2.75,6.25-6.25,6.25-6.25-2.75-6.25-6.25ZM418.3,263.75c0-3.5,2.75-6.25,6.25-6.25s6.25,2.75,6.25,6.25-2.75,6.25-6.25,6.25-6.25-2.75-6.25-6.25ZM430.8,226.25c0-3.5,2.75-6.25,6.25-6.25s6.25,2.75,6.25,6.25-2.75,6.25-6.25,6.25-6.25-2.75-6.25-6.25ZM430.8,238.75c0-3.5,2.75-6.25,6.25-6.25s6.25,2.75,6.25,6.25-2.75,6.25-6.25,6.25-6.25-2.75-6.25-6.25ZM430.8,251.25c0-3.5,2.75-6.25,6.25-6.25s6.25,2.75,6.25,6.25-2.75,6.25-6.25,6.25-6.25-2.75-6.25-6.25ZM430.8,263.75c0-3.5,2.75-6.25,6.25-6.25s6.25,2.75,6.25,6.25-2.75,6.25-6.25,6.25-6.25-2.75-6.25-6.25Z"/>
  <path class="cls-1" d="M443.8,226.25c0-3.5,2.75-6.25,6.25-6.25s6.25,2.75,6.25,6.25-2.75,6.25-6.25,6.25-6.25-2.75-6.25-6.25ZM443.8,238.75c0-3.5,2.75-6.25,6.25-6.25s6.25,2.75,6.25,6.25-2.75,6.25-6.25,6.25-6.25-2.75-6.25-6.25ZM443.8,251.25c0-3.5,2.75-6.25,6.25-6.25s6.25,2.75,6.25,6.25-2.75,6.25-6.25,6.25-6.25-2.75-6.25-6.25ZM443.8,263.75c0-3.5,2.75-6.25,6.25-6.25s6.25,2.75,6.25,6.25-2.75,6.25-6.25,6.25-6.25-2.75-6.25-6.25ZM456.3,226.25c0-3.5,2.75-6.25,6.25-6.25s6.25,2.75,6.25,6.25-2.75,6.25-6.25,6.25-6.25-2.75-6.25-6.25ZM456.3,238.75c0-3.5,2.75-6.25,6.25-6.25s6.25,2.75,6.25,6.25-2.75,6.25-6.25,6.25-6.25-2.75-6.25-6.25ZM456.3,251.25c0-3.5,2.75-6.25,6.25-6.25s6.25,2.75,6.25,6.25-2.75,6.25-6.25,6.25-6.25-2.75-6.25-6.25ZM456.3,263.75c0-3.5,2.75-6.25,6.25-6.25s6.25,2.75,6.25,6.25-2.75,6.25-6.25,6.25-6.25-2.75-6.25-6.25ZM468.8,226.25c0-3.5,2.75-6.25,6.25-6.25s6.25,2.75,6.25,6.25-2.75,6.25-6.25,6.25-6.25-2.75-6.25-6.25ZM468.8,238.75c0-3.5,2.75-6.25,6.25-6.25s6.25,2.75,6.25,6.25-2.75,6.25-6.25,6.25-6.25-2.75-6.25-6.25ZM468.8,251.25c0-3.5,2.75-6.25,6.25-6.25s6.25,2.75,6.25,6.25-2.75,6.25-6.25,6.25-6.25-2.75-6.25-6.25ZM468.8,263.75c0-3.5,2.75-6.25,6.25-6.25s6.25,2.75,6.25,6.25-2.75,6.25-6.25,6.25-6.25-2.75-6.25-6.25ZM481.3,226.25c0-3.5,2.75-6.25,6.25-6.25s6.25,2.75,6.25,6.25-2.75,6.25-6.25,6.25-6.25-2.75-6.25-6.25ZM481.3,238.75c0-3.5,2.75-6.25,6.25-6.25s6.25,2.75,6.25,6.25-2.75,6.25-6.25,6.25-6.25-2.75-6.25-6.25ZM481.3,251.25c0-3.5,2.75-6.25,6.25-6.25s6.25,2.75,6.25,6.25-2.75,6.25-6.25,6.25-6.25-2.75-6.25-6.25ZM481.3,263.75c0-3.5,2.75-6.25,6.25-6.25s6.25,2.75,6.25,6.25-2.75,6.25-6.25,6.25-6.25-2.75-6.25-6.25Z"/>
  <path class="cls-1" d="M494.3,226.25c0-3.5,2.75-6.25,6.25-6.25s6.25,2.75,6.25,6.25-2.75,6.25-6.25,6.25-6.25-2.75-6.25-6.25ZM494.3,238.75c0-3.5,2.75-6.25,6.25-6.25s6.25,2.75,6.25,6.25-2.75,6.25-6.25,6.25-6.25-2.75-6.25-6.25ZM494.3,251.25c0-3.5,2.75-6.25,6.25-6.25s6.25,2.75,6.25,6.25-2.75,6.25-6.25,6.25-6.25-2.75-6.25-6.25ZM494.3,263.75c0-3.5,2.75-6.25,6.25-6.25s6.25,2.75,6.25,6.25-2.75,6.25-6.25,6.25-6.25-2.75-6.25-6.25ZM506.8,226.25c0-3.5,2.75-6.25,6.25-6.25s6.25,2.75,6.25,6.25-2.75,6.25-6.25,6.25-6.25-2.75-6.25-6.25ZM506.8,238.75c0-3.5,2.75-6.25,6.25-6.25s6.25,2.75,6.25,6.25-2.75,6.25-6.25,6.25-6.25-2.75-6.25-6.25ZM506.8,251.25c0-3.5,2.75-6.25,6.25-6.25s6.25,2.75,6.25,6.25-2.75,6.25-6.25,6.25-6.25-2.75-6.25-6.25ZM506.8,263.75c0-3.5,2.75-6.25,6.25-6.25s6.25,2.75,6.25,6.25-2.75,6.25-6.25,6.25-6.25-2.75-6.25-6.25ZM519.3,226.25c0-3.5,2.75-6.25,6.25-6.25s6.25,2.75,6.25,6.25-2.75,6.25-6.25,6.25-6.25-2.75-6.25-6.25ZM519.3,238.75c0-3.5,2.75-6.25,6.25-6.25s6.25,2.75,6.25,6.25-2.75,6.25-6.25,6.25-6.25-2.75-6.25-6.25ZM519.3,251.25c0-3.5,2.75-6.25,6.25-6.25s6.25,2.75,6.25,6.25-2.75,6.25-6.25,6.25-6.25-2.75-6.25-6.25ZM519.3,263.75c0-3.5,2.75-6.25,6.25-6.25s6.25,2.75,6.25,6.25-2.75,6.25-6.25,6.25-6.25-2.75-6.25-6.25ZM531.8,226.25c0-3.5,2.75-6.25,6.25-6.25s6.25,2.75,6.25,6.25-2.75,6.25-6.25,6.25-6.25-2.75-6.25-6.25ZM531.8,238.75c0-3.5,2.75-6.25,6.25-6.25s6.25,2.75,6.25,6.25-2.75,6.25-6.25,6.25-6.25-2.75-6.25-6.25ZM531.8,251.25c0-3.5,2.75-6.25,6.25-6.25s6.25,2.75,6.25,6.25-2.75,6.25-6.25,6.25-6.25-2.75-6.25-6.25ZM531.8,263.75c0-3.5,2.75-6.25,6.25-6.25s6.25,2.75,6.25,6.25-2.75,6.25-6.25,6.25-6.25-2.75-6.25-6.25Z"/>
  <path class="cls-1" d="M544.8,226.25c0-3.5,2.75-6.25,6.25-6.25s6.25,2.75,6.25,6.25-2.75,6.25-6.25,6.25-6.25-2.75-6.25-6.25ZM544.8,238.75c0-3.5,2.75-6.25,6.25-6.25s6.25,2.75,6.25,6.25-2.75,6.25-6.25,6.25-6.25-2.75-6.25-6.25ZM544.8,251.25c0-3.5,2.75-6.25,6.25-6.25s6.25,2.75,6.25,6.25-2.75,6.25-6.25,6.25-6.25-2.75-6.25-6.25ZM544.8,263.75c0-3.5,2.75-6.25,6.25-6.25s6.25,2.75,6.25,6.25-2.75,6.25-6.25,6.25-6.25-2.75-6.25-6.25ZM557.3,226.25c0-3.5,2.75-6.25,6.25-6.25s6.25,2.75,6.25,6.25-2.75,6.25-6.25,6.25-6.25-2.75-6.25-6.25ZM557.3,238.75c0-3.5,2.75-6.25,6.25-6.25s6.25,2.75,6.25,6.25-2.75,6.25-6.25,6.25-6.25-2.75-6.25-6.25ZM557.3,251.25c0-3.5,2.75-6.25,6.25-6.25s6.25,2.75,6.25,6.25-2.75,6.25-6.25,6.25-6.25-2.75-6.25-6.25ZM557.3,263.75c0-3.5,2.75-6.25,6.25-6.25s6.25,2.75,6.25,6.25-2.75,6.25-6.25,6.25-6.25-2.75-6.25-6.25ZM569.8,226.25c0-3.5,2.75-6.25,6.25-6.25s6.25,2.75,6.25,6.25-2.75,6.25-6.25,6.25-6.25-2.75-6.25-6.25ZM569.8,238.75c0-3.5,2.75-6.25,6.25-6.25s6.25,2.75,6.25,6.25-2.75,6.25-6.25,6.25-6.25-2.75-6.25-6.25ZM569.8,251.25c0-3.5,2.75-6.25,6.25-6.25s6.25,2.75,6.25,6.25-2.75,6.25-6.25,6.25-6.25-2.75-6.25-6.25ZM569.8,263.75c0-3.5,2.75-6.25,6.25-6.25s6.25,2.75,6.25,6.25-2.75,6.25-6.25,6.25-6.25-2.75-6.25-6.25ZM582.3,226.25c0-3.5,2.75-6.25,6.25-6.25s6.25,2.75,6.25,6.25-2.75,6.25-6.25,6.25-6.25-2.75-6.25-6.25ZM582.3,238.75c0-3.5,2.75-6.25,6.25-6.25s6.25,2.75,6.25,6.25-2.75,6.25-6.25,6.25-6.25-2.75-6.25-6.25ZM582.3,251.25c0-3.5,2.75-6.25,6.25-6.25s6.25,2.75,6.25,6.25-2.75,6.25-6.25,6.25-6.25-2.75-6.25-6.25ZM582.3,263.75c0-3.5,2.75-6.25,6.25-6.25s6.25,2.75,6.25,6.25-2.75,6.25-6.25,6.25-6.25-2.75-6.25-6.25Z"/>
  <path class="cls-1" d="M595.3,226.25c0-3.5,2.75-6.25,6.25-6.25s6.25,2.75,6.25,6.25-2.75,6.25-6.25,6.25-6.25-2.75-6.25-6.25ZM595.3,238.75c0-3.5,2.75-6.25,6.25-6.25s6.25,2.75,6.25,6.25-2.75,6.25-6.25,6.25-6.25-2.75-6.25-6.25ZM595.3,251.25c0-3.5,2.75-6.25,6.25-6.25s6.25,2.75,6.25,6.25-2.75,6.25-6.25,6.25-6.25-2.75-6.25-6.25ZM595.3,263.75c0-3.5,2.75-6.25,6.25-6.25s6.25,2.75,6.25,6.25-2.75,6.25-6.25,6.25-6.25-2.75-6.25-6.25ZM607.8,226.25c0-3.5,2.75-6.25,6.25-6.25s6.25,2.75,6.25,6.25-2.75,6.25-6.25,6.25-6.25-2.75-6.25-6.25ZM607.8,238.75c0-3.5,2.75-6.25,6.25-6.25s6.25,2.75,6.25,6.25-2.75,6.25-6.25,6.25-6.25-2.75-6.25-6.25ZM607.8,251.25c0-3.5,2.75-6.25,6.25-6.25s6.25,2.75,6.25,6.25-2.75,6.25-6.25,6.25-6.25-2.75-6.25-6.25ZM607.8,263.75c0-3.5,2.75-6.25,6.25-6.25s6.25,2.75,6.25,6.25-2.75,6.25-6.25,6.25-6.25-2.75-6.25-6.25ZM620.3,226.25c0-3.5,2.75-6.25,6.25-6.25s6.25,2.75,6.25,6.25-2.75,6.25-6.25,6.25-6.25-2.75-6.25-6.25ZM620.3,238.75c0-3.5,2.75-6.25,6.25-6.25s6.25,2.75,6.25,6.25-2.75,6.25-6.25,6.25-6.25-2.75-6.25-6.25ZM620.3,251.25c0-3.5,2.75-6.25,6.25-6.25s6.25,2.75,6.25,6.25-2.75,6.25-6.25,6.25-6.25-2.75-6.25-6.25ZM620.3,263.75c0-3.5,2.75-6.25,6.25-6.25s6.25,2.75,6.25,6.25-2.75,6.25-6.25,6.25-6.25-2.75-6.25-6.25ZM632.8,226.25c0-3.5,2.75-6.25,6.25-6.25s6.25,2.75,6.25,6.25-2.75,6.25-6.25,6.25-6.25-2.75-6.25-6.25ZM632.8,238.75c0-3.5,2.75-6.25,6.25-6.25s6.25,2.75,6.25,6.25-2.75,6.25-6.25,6.25-6.25-2.75-6.25-6.25ZM632.8,251.25c0-3.5,2.75-6.25,6.25-6.25s6.25,2.75,6.25,6.25-2.75,6.25-6.25,6.25-6.25-2.75-6.25-6.25ZM632.8,263.75c0-3.5,2.75-6.25,6.25-6.25s6.25,2.75,6.25,6.25-2.75,6.25-6.25,6.25-6.25-2.75-6.25-6.25Z"/>
  <path class="cls-1" d="M645.8,226.25c0-3.5,2.75-6.25,6.25-6.25s6.25,2.75,6.25,6.25-2.75,6.25-6.25,6.25-6.25-2.75-6.25-6.25ZM645.8,238.75c0-3.5,2.75-6.25,6.25-6.25s6.25,2.75,6.25,6.25-2.75,6.25-6.25,6.25-6.25-2.75-6.25-6.25ZM645.8,251.25c0-3.5,2.75-6.25,6.25-6.25s6.25,2.75,6.25,6.25-2.75,6.25-6.25,6.25-6.25-2.75-6.25-6.25ZM645.8,263.75c0-3.5,2.75-6.25,6.25-6.25s6.25,2.75,6.25,6.25-2.75,6.25-6.25,6.25-6.25-2.75-6.25-6.25ZM658.3,226.25c0-3.5,2.75-6.25,6.25-6.25s6.25,2.75,6.25,6.25-2.75,6.25-6.25,6.25-6.25-2.75-6.25-6.25ZM658.3,238.75c0-3.5,2.75-6.25,6.25-6.25s6.25,2.75,6.25,6.25-2.75,6.25-6.25,6.25-6.25-2.75-6.25-6.25ZM658.3,251.25c0-3.5,2.75-6.25,6.25-6.25s6.25,2.75,6.25,6.25-2.75,6.25-6.25,6.25-6.25-2.75-6.25-6.25ZM658.3,263.75c0-3.5,2.75-6.25,6.25-6.25s6.25,2.75,6.25,6.25-2.75,6.25-6.25,6.25-6.25-2.75-6.25-6.25ZM670.8,226.25c0-3.5,2.75-6.25,6.25-6.25s6.25,2.75,6.25,6.25-2.75,6.25-6.25,6.25-6.25-2.75-6.25-6.25ZM670.8,238.75c0-3.5,2.75-6.25,6.25-6.25s6.25,2.75,6.25,6.25-2.75,6.25-6.25,6.25-6.25-2.75-6.25-6.25ZM670.8,251.25c0-3.5,2.75-6.25,6.25-6.25s6.25,2.75,6.25,6.25-2.75,6.25-6.25,6.25-6.25-2.75-6.25-6.25ZM670.8,263.75c0-3.5,2.75-6.25,6.25-6.25s6.25,2.75,6.25,6.25-2.75,6.25-6.25,6.25-6.25-2.75-6.25-6.25ZM683.3,226.25c0-3.5,2.75-6.25,6.25-6.25s6.25,2.75,6.25,6.25-2.75,6.25-6.25,6.25-6.25-2.75-6.25-6.25ZM683.3,238.75c0-3.5,2.75-6.25,6.25-6.25s6.25,2.75,6.25,6.25-2.75,6.25-6.25,6.25-6.25-2.75-6.25-6.25ZM683.3,251.25c0-3.5,2.75-6.25,6.25-6.25s6.25,2.75,6.25,6.25-2.75,6.25-6.25,6.25-6.25-2.75-6.25-6.25ZM683.3,263.75c0-3.5,2.75-6.25,6.25-6.25s6.25,2.75,6.25,6.25-2.75,6.25-6.25,6.25-6.25-2.75-6.25-6.25Z"/>
  <path class="cls-1" d="M696.3,226.25c0-3.5,2.75-6.25,6.25-6.25s6.25,2.75,6.25,6.25-2.75,6.25-6.25,6.25-6.25-2.75-6.25-6.25ZM696.3,238.75c0-3.5,2.75-6.25,6.25-6.25s6.25,2.75,6.25,6.25-2.75,6.25-6.25,6.25-6.25-2.75-6.25-6.25ZM696.3,251.25c0-3.5,2.75-6.25,6.25-6.25s6.25,2.75,6.25,6.25-2.75,6.25-6.25,6.25-6.25-2.75-6.25-6.25ZM696.3,263.75c0-3.5,2.75-6.25,6.25-6.25s6.25,2.75,6.25,6.25-2.75,6.25-6.25,6.25-6.25-2.75-6.25-6.25ZM708.8,226.25c0-3.5,2.75-6.25,6.25-6.25s6.25,2.75,6.25,6.25-2.75,6.25-6.25,6.25-6.25-2.75-6.25-6.25ZM708.8,238.75c0-3.5,2.75-6.25,6.25-6.25s6.25,2.75,6.25,6.25-2.75,6.25-6.25,6.25-6.25-2.75-6.25-6.25ZM708.8,251.25c0-3.5,2.75-6.25,6.25-6.25s6.25,2.75,6.25,6.25-2.75,6.25-6.25,6.25-6.25-2.75-6.25-6.25ZM708.8,263.75c0-3.5,2.75-6.25,6.25-6.25s6.25,2.75,6.25,6.25-2.75,6.25-6.25,6.25-6.25-2.75-6.25-6.25ZM721.3,226.25c0-3.5,2.75-6.25,6.25-6.25s6.25,2.75,6.25,6.25-2.75,6.25-6.25,6.25-6.25-2.75-6.25-6.25ZM721.3,238.75c0-3.5,2.75-6.25,6.25-6.25s6.25,2.75,6.25,6.25-2.75,6.25-6.25,6.25-6.25-2.75-6.25-6.25ZM721.3,251.25c0-3.5,2.75-6.25,6.25-6.25s6.25,2.75,6.25,6.25-2.75,6.25-6.25,6.25-6.25-2.75-6.25-6.25ZM721.3,263.75c0-3.5,2.75-6.25,6.25-6.25s6.25,2.75,6.25,6.25-2.75,6.25-6.25,6.25-6.25-2.75-6.25-6.25ZM733.8,226.25c0-3.5,2.75-6.25,6.25-6.25s6.25,2.75,6.25,6.25-2.75,6.25-6.25,6.25-6.25-2.75-6.25-6.25ZM733.8,238.75c0-3.5,2.75-6.25,6.25-6.25s6.25,2.75,6.25,6.25-2.75,6.25-6.25,6.25-6.25-2.75-6.25-6.25ZM733.8,251.25c0-3.5,2.75-6.25,6.25-6.25s6.25,2.75,6.25,6.25-2.75,6.25-6.25,6.25-6.25-2.75-6.25-6.25ZM733.8,263.75c0-3.5,2.75-6.25,6.25-6.25s6.25,2.75,6.25,6.25-2.75,6.25-6.25,6.25-6.25-2.75-6.25-6.25Z"/>
  <path class="cls-1" d="M746.8,226.25c0-3.5,2.75-6.25,6.25-6.25s6.25,2.75,6.25,6.25-2.75,6.25-6.25,6.25-6.25-2.75-6.25-6.25ZM746.8,238.75c0-3.5,2.75-6.25,6.25-6.25s6.25,2.75,6.25,6.25-2.75,6.25-6.25,6.25-6.25-2.75-6.25-6.25ZM746.8,251.25c0-3.5,2.75-6.25,6.25-6.25s6.25,2.75,6.25,6.25-2.75,6.25-6.25,6.25-6.25-2.75-6.25-6.25ZM746.8,263.75c0-3.5,2.75-6.25,6.25-6.25s6.25,2.75,6.25,6.25-2.75,6.25-6.25,6.25-6.25-2.75-6.25-6.25ZM759.3,226.25c0-3.5,2.75-6.25,6.25-6.25s6.25,2.75,6.25,6.25-2.75,6.25-6.25,6.25-6.25-2.75-6.25-6.25ZM759.3,238.75c0-3.5,2.75-6.25,6.25-6.25s6.25,2.75,6.25,6.25-2.75,6.25-6.25,6.25-6.25-2.75-6.25-6.25ZM759.3,251.25c0-3.5,2.75-6.25,6.25-6.25s6.25,2.75,6.25,6.25-2.75,6.25-6.25,6.25-6.25-2.75-6.25-6.25ZM759.3,263.75c0-3.5,2.75-6.25,6.25-6.25s6.25,2.75,6.25,6.25-2.75,6.25-6.25,6.25-6.25-2.75-6.25-6.25ZM771.8,226.25c0-3.5,2.75-6.25,6.25-6.25s6.25,2.75,6.25,6.25-2.75,6.25-6.25,6.25-6.25-2.75-6.25-6.25ZM771.8,238.75c0-3.5,2.75-6.25,6.25-6.25s6.25,2.75,6.25,6.25-2.75,6.25-6.25,6.25-6.25-2.75-6.25-6.25ZM771.8,251.25c0-3.5,2.75-6.25,6.25-6.25s6.25,2.75,6.25,6.25-2.75,6.25-6.25,6.25-6.25-2.75-6.25-6.25ZM771.8,263.75c0-3.5,2.75-6.25,6.25-6.25s6.25,2.75,6.25,6.25-2.75,6.25-6.25,6.25-6.25-2.75-6.25-6.25ZM784.3,226.25c0-3.5,2.75-6.25,6.25-6.25s6.25,2.75,6.25,6.25-2.75,6.25-6.25,6.25-6.25-2.75-6.25-6.25ZM784.3,238.75c0-3.5,2.75-6.25,6.25-6.25s6.25,2.75,6.25,6.25-2.75,6.25-6.25,6.25-6.25-2.75-6.25-6.25ZM784.3,251.25c0-3.5,2.75-6.25,6.25-6.25s6.25,2.75,6.25,6.25-2.75,6.25-6.25,6.25-6.25-2.75-6.25-6.25ZM784.3,263.75c0-3.5,2.75-6.25,6.25-6.25s6.25,2.75,6.25,6.25-2.75,6.25-6.25,6.25-6.25-2.75-6.25-6.25Z"/>
  <path class="cls-1" d="M797.3,226.25c0-3.5,2.75-6.25,6.25-6.25s6.25,2.75,6.25,6.25-2.75,6.25-6.25,6.25-6.25-2.75-6.25-6.25ZM797.3,238.75c0-3.5,2.75-6.25,6.25-6.25s6.25,2.75,6.25,6.25-2.75,6.25-6.25,6.25-6.25-2.75-6.25-6.25ZM797.3,251.25c0-3.5,2.75-6.25,6.25-6.25s6.25,2.75,6.25,6.25-2.75,6.25-6.25,6.25-6.25-2.75-6.25-6.25ZM797.3,263.75c0-3.5,2.75-6.25,6.25-6.25s6.25,2.75,6.25,6.25-2.75,6.25-6.25,6.25-6.25-2.75-6.25-6.25ZM809.8,226.25c0-3.5,2.75-6.25,6.25-6.25s6.25,2.75,6.25,6.25-2.75,6.25-6.25,6.25-6.25-2.75-6.25-6.25ZM809.8,238.75c0-3.5,2.75-6.25,6.25-6.25s6.25,2.75,6.25,6.25-2.75,6.25-6.25,6.25-6.25-2.75-6.25-6.25ZM809.8,251.25c0-3.5,2.75-6.25,6.25-6.25s6.25,2.75,6.25,6.25-2.75,6.25-6.25,6.25-6.25-2.75-6.25-6.25ZM809.8,263.75c0-3.5,2.75-6.25,6.25-6.25s6.25,2.75,6.25,6.25-2.75,6.25-6.25,6.25-6.25-2.75-6.25-6.25ZM822.3,226.25c0-3.5,2.75-6.25,6.25-6.25s6.25,2.75,6.25,6.25-2.75,6.25-6.25,6.25-6.25-2.75-6.25-6.25ZM822.3,238.75c0-3.5,2.75-6.25,6.25-6.25s6.25,2.75,6.25,6.25-2.75,6.25-6.25,6.25-6.25-2.75-6.25-6.25ZM822.3,251.25c0-3.5,2.75-6.25,6.25-6.25s6.25,2.75,6.25,6.25-2.75,6.25-6.25,6.25-6.25-2.75-6.25-6.25ZM822.3,263.75c0-3.5,2.75-6.25,6.25-6.25s6.25,2.75,6.25,6.25-2.75,6.25-6.25,6.25-6.25-2.75-6.25-6.25ZM834.8,226.25c0-3.5,2.75-6.25,6.25-6.25s6.25,2.75,6.25,6.25-2.75,6.25-6.25,6.25-6.25-2.75-6.25-6.25ZM834.8,238.75c0-3.5,2.75-6.25,6.25-6.25s6.25,2.75,6.25,6.25-2.75,6.25-6.25,6.25-6.25-2.75-6.25-6.25ZM834.8,251.25c0-3.5,2.75-6.25,6.25-6.25s6.25,2.75,6.25,6.25-2.75,6.25-6.25,6.25-6.25-2.75-6.25-6.25ZM834.8,263.75c0-3.5,2.75-6.25,6.25-6.25s6.25,2.75,6.25,6.25-2.75,6.25-6.25,6.25-6.25-2.75-6.25-6.25Z"/>
  <path class="cls-1" d="M847.8,226.25c0-3.5,2.75-6.25,6.25-6.25s6.25,2.75,6.25,6.25-2.75,6.25-6.25,6.25-6.25-2.75-6.25-6.25ZM847.8,238.75c0-3.5,2.75-6.25,6.25-6.25s6.25,2.75,6.25,6.25-2.75,6.25-6.25,6.25-6.25-2.75-6.25-6.25ZM847.8,251.25c0-3.5,2.75-6.25,6.25-6.25s6.25,2.75,6.25,6.25-2.75,6.25-6.25,6.25-6.25-2.75-6.25-6.25ZM847.8,263.75c0-3.5,2.75-6.25,6.25-6.25s6.25,2.75,6.25,6.25-2.75,6.25-6.25,6.25-6.25-2.75-6.25-6.25ZM860.3,226.25c0-3.5,2.75-6.25,6.25-6.25s6.25,2.75,6.25,6.25-2.75,6.25-6.25,6.25-6.25-2.75-6.25-6.25ZM860.3,238.75c0-3.5,2.75-6.25,6.25-6.25s6.25,2.75,6.25,6.25-2.75,6.25-6.25,6.25-6.25-2.75-6.25-6.25ZM860.3,251.25c0-3.5,2.75-6.25,6.25-6.25s6.25,2.75,6.25,6.25-2.75,6.25-6.25,6.25-6.25-2.75-6.25-6.25ZM860.3,263.75c0-3.5,2.75-6.25,6.25-6.25s6.25,2.75,6.25,6.25-2.75,6.25-6.25,6.25-6.25-2.75-6.25-6.25ZM872.8,226.25c0-3.5,2.75-6.25,6.25-6.25s6.25,2.75,6.25,6.25-2.75,6.25-6.25,6.25-6.25-2.75-6.25-6.25ZM872.8,238.75c0-3.5,2.75-6.25,6.25-6.25s6.25,2.75,6.25,6.25-2.75,6.25-6.25,6.25-6.25-2.75-6.25-6.25ZM872.8,251.25c0-3.5,2.75-6.25,6.25-6.25s6.25,2.75,6.25,6.25-2.75,6.25-6.25,6.25-6.25-2.75-6.25-6.25ZM872.8,263.75c0-3.5,2.75-6.25,6.25-6.25s6.25,2.75,6.25,6.25-2.75,6.25-6.25,6.25-6.25-2.75-6.25-6.25ZM885.3,226.25c0-3.5,2.75-6.25,6.25-6.25s6.25,2.75,6.25,6.25-2.75,6.25-6.25,6.25-6.25-2.75-6.25-6.25ZM885.3,238.75c0-3.5,2.75-6.25,6.25-6.25s6.25,2.75,6.25,6.25-2.75,6.25-6.25,6.25-6.25-2.75-6.25-6.25ZM885.3,251.25c0-3.5,2.75-6.25,6.25-6.25s6.25,2.75,6.25,6.25-2.75,6.25-6.25,6.25-6.25-2.75-6.25-6.25ZM885.3,263.75c0-3.5,2.75-6.25,6.25-6.25s6.25,2.75,6.25,6.25-2.75,6.25-6.25,6.25-6.25-2.75-6.25-6.25Z"/>
  <path class="cls-1" d="M898.3,226.25c0-3.5,2.75-6.25,6.25-6.25s6.25,2.75,6.25,6.25-2.75,6.25-6.25,6.25-6.25-2.75-6.25-6.25ZM898.3,238.75c0-3.5,2.75-6.25,6.25-6.25s6.25,2.75,6.25,6.25-2.75,6.25-6.25,6.25-6.25-2.75-6.25-6.25ZM898.3,251.25c0-3.5,2.75-6.25,6.25-6.25s6.25,2.75,6.25,6.25-2.75,6.25-6.25,6.25-6.25-2.75-6.25-6.25ZM898.3,263.75c0-3.5,2.75-6.25,6.25-6.25s6.25,2.75,6.25,6.25-2.75,6.25-6.25,6.25-6.25-2.75-6.25-6.25ZM910.8,226.25c0-3.5,2.75-6.25,6.25-6.25s6.25,2.75,6.25,6.25-2.75,6.25-6.25,6.25-6.25-2.75-6.25-6.25ZM910.8,238.75c0-3.5,2.75-6.25,6.25-6.25s6.25,2.75,6.25,6.25-2.75,6.25-6.25,6.25-6.25-2.75-6.25-6.25ZM910.8,251.25c0-3.5,2.75-6.25,6.25-6.25s6.25,2.75,6.25,6.25-2.75,6.25-6.25,6.25-6.25-2.75-6.25-6.25ZM910.8,263.75c0-3.5,2.75-6.25,6.25-6.25s6.25,2.75,6.25,6.25-2.75,6.25-6.25,6.25-6.25-2.75-6.25-6.25ZM923.3,226.25c0-3.5,2.75-6.25,6.25-6.25s6.25,2.75,6.25,6.25-2.75,6.25-6.25,6.25-6.25-2.75-6.25-6.25ZM923.3,238.75c0-3.5,2.75-6.25,6.25-6.25s6.25,2.75,6.25,6.25-2.75,6.25-6.25,6.25-6.25-2.75-6.25-6.25ZM923.3,251.25c0-3.5,2.75-6.25,6.25-6.25s6.25,2.75,6.25,6.25-2.75,6.25-6.25,6.25-6.25-2.75-6.25-6.25ZM923.3,263.75c0-3.5,2.75-6.25,6.25-6.25s6.25,2.75,6.25,6.25-2.75,6.25-6.25,6.25-6.25-2.75-6.25-6.25ZM935.8,226.25c0-3.5,2.75-6.25,6.25-6.25s6.25,2.75,6.25,6.25-2.75,6.25-6.25,6.25-6.25-2.75-6.25-6.25ZM935.8,238.75c0-3.5,2.75-6.25,6.25-6.25s6.25,2.75,6.25,6.25-2.75,6.25-6.25,6.25-6.25-2.75-6.25-6.25ZM935.8,251.25c0-3.5,2.75-6.25,6.25-6.25s6.25,2.75,6.25,6.25-2.75,6.25-6.25,6.25-6.25-2.75-6.25-6.25ZM935.8,263.75c0-3.5,2.75-6.25,6.25-6.25s6.25,2.75,6.25,6.25-2.75,6.25-6.25,6.25-6.25-2.75-6.25-6.25Z"/>
  <path class="cls-1" d="M948.8,226.25c0-3.5,2.75-6.25,6.25-6.25s6.25,2.75,6.25,6.25-2.75,6.25-6.25,6.25-6.25-2.75-6.25-6.25ZM948.8,238.75c0-3.5,2.75-6.25,6.25-6.25s6.25,2.75,6.25,6.25-2.75,6.25-6.25,6.25-6.25-2.75-6.25-6.25ZM948.8,251.25c0-3.5,2.75-6.25,6.25-6.25s6.25,2.75,6.25,6.25-2.75,6.25-6.25,6.25-6.25-2.75-6.25-6.25ZM948.8,263.75c0-3.5,2.75-6.25,6.25-6.25s6.25,2.75,6.25,6.25-2.75,6.25-6.25,6.25-6.25-2.75-6.25-6.25ZM961.3,226.25c0-3.5,2.75-6.25,6.25-6.25s6.25,2.75,6.25,6.25-2.75,6.25-6.25,6.25-6.25-2.75-6.25-6.25ZM961.3,238.75c0-3.5,2.75-6.25,6.25-6.25s6.25,2.75,6.25,6.25-2.75,6.25-6.25,6.25-6.25-2.75-6.25-6.25ZM961.3,251.25c0-3.5,2.75-6.25,6.25-6.25s6.25,2.75,6.25,6.25-2.75,6.25-6.25,6.25-6.25-2.75-6.25-6.25ZM961.3,263.75c0-3.5,2.75-6.25,6.25-6.25s6.25,2.75,6.25,6.25-2.75,6.25-6.25,6.25-6.25-2.75-6.25-6.25ZM973.8,226.25c0-3.5,2.75-6.25,6.25-6.25s6.25,2.75,6.25,6.25-2.75,6.25-6.25,6.25-6.25-2.75-6.25-6.25ZM973.8,238.75c0-3.5,2.75-6.25,6.25-6.25s6.25,2.75,6.25,6.25-2.75,6.25-6.25,6.25-6.25-2.75-6.25-6.25ZM973.8,251.25c0-3.5,2.75-6.25,6.25-6.25s6.25,2.75,6.25,6.25-2.75,6.25-6.25,6.25-6.25-2.75-6.25-6.25ZM973.8,263.75c0-3.5,2.75-6.25,6.25-6.25s6.25,2.75,6.25,6.25-2.75,6.25-6.25,6.25-6.25-2.75-6.25-6.25ZM986.3,226.25c0-3.5,2.75-6.25,6.25-6.25s6.25,2.75,6.25,6.25-2.75,6.25-6.25,6.25-6.25-2.75-6.25-6.25ZM986.3,238.75c0-3.5,2.75-6.25,6.25-6.25s6.25,2.75,6.25,6.25-2.75,6.25-6.25,6.25-6.25-2.75-6.25-6.25ZM986.3,251.25c0-3.5,2.75-6.25,6.25-6.25s6.25,2.75,6.25,6.25-2.75,6.25-6.25,6.25-6.25-2.75-6.25-6.25ZM986.3,263.75c0-3.5,2.75-6.25,6.25-6.25s6.25,2.75,6.25,6.25-2.75,6.25-6.25,6.25-6.25-2.75-6.25-6.25Z"/>
  <path class="cls-1" d="M999.3,226.25c0-3.5,2.75-6.25,6.25-6.25s6.25,2.75,6.25,6.25-2.75,6.25-6.25,6.25-6.25-2.75-6.25-6.25ZM999.3,238.75c0-3.5,2.75-6.25,6.25-6.25s6.25,2.75,6.25,6.25-2.75,6.25-6.25,6.25-6.25-2.75-6.25-6.25ZM999.3,251.25c0-3.5,2.75-6.25,6.25-6.25s6.25,2.75,6.25,6.25-2.75,6.25-6.25,6.25-6.25-2.75-6.25-6.25ZM999.3,263.75c0-3.5,2.75-6.25,6.25-6.25s6.25,2.75,6.25,6.25-2.75,6.25-6.25,6.25-6.25-2.75-6.25-6.25ZM1011.8,226.25c0-3.5,2.75-6.25,6.25-6.25s6.25,2.75,6.25,6.25-2.75,6.25-6.25,6.25-6.25-2.75-6.25-6.25ZM1011.8,238.75c0-3.5,2.75-6.25,6.25-6.25s6.25,2.75,6.25,6.25-2.75,6.25-6.25,6.25-6.25-2.75-6.25-6.25ZM1011.8,251.25c0-3.5,2.75-6.25,6.25-6.25s6.25,2.75,6.25,6.25-2.75,6.25-6.25,6.25-6.25-2.75-6.25-6.25ZM1011.8,263.75c0-3.5,2.75-6.25,6.25-6.25s6.25,2.75,6.25,6.25-2.75,6.25-6.25,6.25-6.25-2.75-6.25-6.25ZM1024.3,226.25c0-3.5,2.75-6.25,6.25-6.25s6.25,2.75,6.25,6.25-2.75,6.25-6.25,6.25-6.25-2.75-6.25-6.25ZM1024.3,238.75c0-3.5,2.75-6.25,6.25-6.25s6.25,2.75,6.25,6.25-2.75,6.25-6.25,6.25-6.25-2.75-6.25-6.25ZM1024.3,251.25c0-3.5,2.75-6.25,6.25-6.25s6.25,2.75,6.25,6.25-2.75,6.25-6.25,6.25-6.25-2.75-6.25-6.25ZM1024.3,263.75c0-3.5,2.75-6.25,6.25-6.25s6.25,2.75,6.25,6.25-2.75,6.25-6.25,6.25-6.25-2.75-6.25-6.25ZM1036.8,226.25c0-3.5,2.75-6.25,6.25-6.25s6.25,2.75,6.25,6.25-2.75,6.25-6.25,6.25-6.25-2.75-6.25-6.25ZM1036.8,238.75c0-3.5,2.75-6.25,6.25-6.25s6.25,2.75,6.25,6.25-2.75,6.25-6.25,6.25-6.25-2.75-6.25-6.25ZM1036.8,251.25c0-3.5,2.75-6.25,6.25-6.25s6.25,2.75,6.25,6.25-2.75,6.25-6.25,6.25-6.25-2.75-6.25-6.25ZM1036.8,263.75c0-3.5,2.75-6.25,6.25-6.25s6.25,2.75,6.25,6.25-2.75,6.25-6.25,6.25-6.25-2.75-6.25-6.25Z"/>
  <path class="cls-1" d="M1049.8,226.25c0-3.5,2.75-6.25,6.25-6.25s6.25,2.75,6.25,6.25-2.75,6.25-6.25,6.25-6.25-2.75-6.25-6.25ZM1049.8,238.75c0-3.5,2.75-6.25,6.25-6.25s6.25,2.75,6.25,6.25-2.75,6.25-6.25,6.25-6.25-2.75-6.25-6.25ZM1049.8,251.25c0-3.5,2.75-6.25,6.25-6.25s6.25,2.75,6.25,6.25-2.75,6.25-6.25,6.25-6.25-2.75-6.25-6.25ZM1049.8,263.75c0-3.5,2.75-6.25,6.25-6.25s6.25,2.75,6.25,6.25-2.75,6.25-6.25,6.25-6.25-2.75-6.25-6.25ZM1062.3,226.25c0-3.5,2.75-6.25,6.25-6.25s6.25,2.75,6.25,6.25-2.75,6.25-6.25,6.25-6.25-2.75-6.25-6.25ZM1062.3,238.75c0-3.5,2.75-6.25,6.25-6.25s6.25,2.75,6.25,6.25-2.75,6.25-6.25,6.25-6.25-2.75-6.25-6.25ZM1062.3,251.25c0-3.5,2.75-6.25,6.25-6.25s6.25,2.75,6.25,6.25-2.75,6.25-6.25,6.25-6.25-2.75-6.25-6.25ZM1062.3,263.75c0-3.5,2.75-6.25,6.25-6.25s6.25,2.75,6.25,6.25-2.75,6.25-6.25,6.25-6.25-2.75-6.25-6.25ZM1074.8,226.25c0-3.5,2.75-6.25,6.25-6.25s6.25,2.75,6.25,6.25-2.75,6.25-6.25,6.25-6.25-2.75-6.25-6.25ZM1074.8,238.75c0-3.5,2.75-6.25,6.25-6.25s6.25,2.75,6.25,6.25-2.75,6.25-6.25,6.25-6.25-2.75-6.25-6.25ZM1074.8,251.25c0-3.5,2.75-6.25,6.25-6.25s6.25,2.75,6.25,6.25-2.75,6.25-6.25,6.25-6.25-2.75-6.25-6.25ZM1074.8,263.75c0-3.5,2.75-6.25,6.25-6.25s6.25,2.75,6.25,6.25-2.75,6.25-6.25,6.25-6.25-2.75-6.25-6.25ZM1087.3,226.25c0-3.5,2.75-6.25,6.25-6.25s6.25,2.75,6.25,6.25-2.75,6.25-6.25,6.25-6.25-2.75-6.25-6.25ZM1087.3,238.75c0-3.5,2.75-6.25,6.25-6.25s6.25,2.75,6.25,6.25-2.75,6.25-6.25,6.25-6.25-2.75-6.25-6.25ZM1087.3,251.25c0-3.5,2.75-6.25,6.25-6.25s6.25,2.75,6.25,6.25-2.75,6.25-6.25,6.25-6.25-2.75-6.25-6.25ZM1087.3,263.75c0-3.5,2.75-6.25,6.25-6.25s6.25,2.75,6.25,6.25-2.75,6.25-6.25,6.25-6.25-2.75-6.25-6.25Z"/>
</svg>